<?xml version="1.0" encoding="utf-8" standalone="no"?>
<!DOCTYPE svg PUBLIC "-//W3C//DTD SVG 1.1//EN"
  "http://www.w3.org/Graphics/SVG/1.1/DTD/svg11.dtd">
<svg xmlns:xlink="http://www.w3.org/1999/xlink" width="620.39952pt" height="382.805494pt" viewBox="0 0 620.39952 382.805494" xmlns="http://www.w3.org/2000/svg" version="1.1">
 <metadata>
  <rdf:RDF xmlns:dc="http://purl.org/dc/elements/1.1/" xmlns:cc="http://creativecommons.org/ns#" xmlns:rdf="http://www.w3.org/1999/02/22-rdf-syntax-ns#">
   <cc:Work>
    <dc:type rdf:resource="http://purl.org/dc/dcmitype/StillImage"/>
    <dc:date>2026-05-14T23:19:34.865304</dc:date>
    <dc:format>image/svg+xml</dc:format>
    <dc:creator>
     <cc:Agent>
      <dc:title>Matplotlib v3.10.8, https://matplotlib.org/</dc:title>
     </cc:Agent>
    </dc:creator>
   </cc:Work>
  </rdf:RDF>
 </metadata>
 <defs>
  <style type="text/css">*{stroke-linejoin: round; stroke-linecap: butt}</style>
 </defs>
 <g id="figure_1">
  <g id="patch_1">
   <path d="M 0 382.805494 
L 620.39952 382.805494 
L 620.39952 0 
L 0 0 
z
" style="fill: #ffffff"/>
  </g>
  <g id="axes_1">
   <g id="patch_2">
    <path d="M 40.361063 345.539588 
L 572.943739 345.539588 
L 572.943739 61.539931 
L 40.361063 61.539931 
z
" style="fill: #ffffff"/>
   </g>
   <g id="axes_2">
    <g id="patch_3">
     <path d="M 572.943739 345.539588 
L 572.943739 345.539588 
L 572.943739 61.539931 
L 572.943739 61.539931 
z
" style="fill: #ffffff"/>
    </g>
    <g id="matplotlib.axis_1"/>
    <g id="matplotlib.axis_2">
     <g id="ytick_1">
      <g id="line2d_1">
       <path d="M 572.943739 317.319954 
L 572.943739 317.319954 
" clip-path="url(#pdb530b2539)" style="fill: none; stroke: #b0b0b0; stroke-opacity: 0.18; stroke-width: 0.7; stroke-linecap: round"/>
      </g>
      <g id="line2d_2">
       <defs>
        <path id="m2ab61e0179" d="M 0 0 
L 3.5 0 
" style="stroke: #444444; stroke-width: 0.8"/>
       </defs>
       <g>
        <use xlink:href="#m2ab61e0179" x="572.943739" y="317.319954" style="fill: #444444; stroke: #444444; stroke-width: 0.8"/>
       </g>
      </g>
      <g id="text_1">
       <text style="font-size: 8.8px; font-family: 'DejaVu Sans', 'Bitstream Vera Sans', 'Computer Modern Sans Serif', 'Lucida Grande', 'Verdana', 'Geneva', 'Lucid', 'Arial', 'Helvetica', 'Avant Garde', sans-serif; text-anchor: start; fill: #444444" x="579.443739" y="320.663266" transform="rotate(-0 579.443739 320.663266)">2.0</text>
      </g>
     </g>
     <g id="ytick_2">
      <g id="line2d_3">
       <path d="M 572.943739 261.679062 
L 572.943739 261.679062 
" clip-path="url(#pdb530b2539)" style="fill: none; stroke: #b0b0b0; stroke-opacity: 0.18; stroke-width: 0.7; stroke-linecap: round"/>
      </g>
      <g id="line2d_4">
       <g>
        <use xlink:href="#m2ab61e0179" x="572.943739" y="261.679062" style="fill: #444444; stroke: #444444; stroke-width: 0.8"/>
       </g>
      </g>
      <g id="text_2">
       <text style="font-size: 8.8px; font-family: 'DejaVu Sans', 'Bitstream Vera Sans', 'Computer Modern Sans Serif', 'Lucida Grande', 'Verdana', 'Geneva', 'Lucid', 'Arial', 'Helvetica', 'Avant Garde', sans-serif; text-anchor: start; fill: #444444" x="579.443739" y="265.022375" transform="rotate(-0 579.443739 265.022375)">4.0</text>
      </g>
     </g>
     <g id="ytick_3">
      <g id="line2d_5">
       <path d="M 572.943739 206.03817 
L 572.943739 206.03817 
" clip-path="url(#pdb530b2539)" style="fill: none; stroke: #b0b0b0; stroke-opacity: 0.18; stroke-width: 0.7; stroke-linecap: round"/>
      </g>
      <g id="line2d_6">
       <g>
        <use xlink:href="#m2ab61e0179" x="572.943739" y="206.03817" style="fill: #444444; stroke: #444444; stroke-width: 0.8"/>
       </g>
      </g>
      <g id="text_3">
       <text style="font-size: 8.8px; font-family: 'DejaVu Sans', 'Bitstream Vera Sans', 'Computer Modern Sans Serif', 'Lucida Grande', 'Verdana', 'Geneva', 'Lucid', 'Arial', 'Helvetica', 'Avant Garde', sans-serif; text-anchor: start; fill: #444444" x="579.443739" y="209.381483" transform="rotate(-0 579.443739 209.381483)">6.0</text>
      </g>
     </g>
     <g id="ytick_4">
      <g id="line2d_7">
       <path d="M 572.943739 150.397279 
L 572.943739 150.397279 
" clip-path="url(#pdb530b2539)" style="fill: none; stroke: #b0b0b0; stroke-opacity: 0.18; stroke-width: 0.7; stroke-linecap: round"/>
      </g>
      <g id="line2d_8">
       <g>
        <use xlink:href="#m2ab61e0179" x="572.943739" y="150.397279" style="fill: #444444; stroke: #444444; stroke-width: 0.8"/>
       </g>
      </g>
      <g id="text_4">
       <text style="font-size: 8.8px; font-family: 'DejaVu Sans', 'Bitstream Vera Sans', 'Computer Modern Sans Serif', 'Lucida Grande', 'Verdana', 'Geneva', 'Lucid', 'Arial', 'Helvetica', 'Avant Garde', sans-serif; text-anchor: start; fill: #444444" x="579.443739" y="153.740591" transform="rotate(-0 579.443739 153.740591)">8.0</text>
      </g>
     </g>
     <g id="ytick_5">
      <g id="line2d_9">
       <path d="M 572.943739 94.756387 
L 572.943739 94.756387 
" clip-path="url(#pdb530b2539)" style="fill: none; stroke: #b0b0b0; stroke-opacity: 0.18; stroke-width: 0.7; stroke-linecap: round"/>
      </g>
      <g id="line2d_10">
       <g>
        <use xlink:href="#m2ab61e0179" x="572.943739" y="94.756387" style="fill: #444444; stroke: #444444; stroke-width: 0.8"/>
       </g>
      </g>
      <g id="text_5">
       <text style="font-size: 8.8px; font-family: 'DejaVu Sans', 'Bitstream Vera Sans', 'Computer Modern Sans Serif', 'Lucida Grande', 'Verdana', 'Geneva', 'Lucid', 'Arial', 'Helvetica', 'Avant Garde', sans-serif; text-anchor: start; fill: #444444" x="579.443739" y="98.0997" transform="rotate(-0 579.443739 98.0997)">10.0</text>
      </g>
     </g>
     <g id="text_6">
      <text style="font-size: 10.5px; font-family: 'DejaVu Sans', 'Bitstream Vera Sans', 'Computer Modern Sans Serif', 'Lucida Grande', 'Verdana', 'Geneva', 'Lucid', 'Arial', 'Helvetica', 'Avant Garde', sans-serif; text-anchor: middle; fill: #444444" x="611.015848" y="203.53976" transform="rotate(-90 611.015848 203.53976)">Desplazamiento absoluto [mm]</text>
     </g>
    </g>
    <g id="patch_4">
     <path d="M 572.943739 345.539588 
L 572.943739 61.539931 
" style="fill: none; stroke: #444444; stroke-width: 0.8; stroke-linejoin: miter; stroke-linecap: square"/>
    </g>
   </g>
   <g id="PathCollection_1">
    <defs>
     <path id="m01176044e4" d="M 0 3.937004 
C 1.044106 3.937004 2.045588 3.522176 2.783882 2.783882 
C 3.522176 2.045588 3.937004 1.044106 3.937004 0 
C 3.937004 -1.044106 3.522176 -2.045588 2.783882 -2.783882 
C 2.045588 -3.522176 1.044106 -3.937004 0 -3.937004 
C -1.044106 -3.937004 -2.045588 -3.522176 -2.783882 -2.783882 
C -3.522176 -2.045588 -3.937004 -1.044106 -3.937004 0 
C -3.937004 1.044106 -3.522176 2.045588 -2.783882 2.783882 
C -2.045588 3.522176 -1.044106 3.937004 0 3.937004 
z
" style="stroke: #ffffff; stroke-opacity: 0.92; stroke-width: 0.7"/>
    </defs>
    <g clip-path="url(#p8d27f190c9)">
     <use xlink:href="#m01176044e4" x="334.048629" y="309.96709" style="fill: #0072b2; fill-opacity: 0.92; stroke: #ffffff; stroke-opacity: 0.92; stroke-width: 0.7"/>
     <use xlink:href="#m01176044e4" x="443.633542" y="280.33345" style="fill: #0072b2; fill-opacity: 0.92; stroke: #ffffff; stroke-opacity: 0.92; stroke-width: 0.7"/>
     <use xlink:href="#m01176044e4" x="465.550524" y="321.87295" style="fill: #0072b2; fill-opacity: 0.92; stroke: #ffffff; stroke-opacity: 0.92; stroke-width: 0.7"/>
     <use xlink:href="#m01176044e4" x="553.218454" y="317.896725" style="fill: #0072b2; fill-opacity: 0.92; stroke: #ffffff; stroke-opacity: 0.92; stroke-width: 0.7"/>
    </g>
   </g>
   <g id="PathCollection_2">
    <defs>
     <path id="m6fbdeff4ab" d="M 0 -3.937004 
L -3.937004 3.937004 
L 3.937004 3.937004 
z
" style="stroke: #ffffff; stroke-opacity: 0.92; stroke-width: 0.7"/>
    </defs>
    <g clip-path="url(#p8d27f190c9)">
     <use xlink:href="#m6fbdeff4ab" x="60.086347" y="294.037858" style="fill: #0072b2; fill-opacity: 0.92; stroke: #ffffff; stroke-opacity: 0.92; stroke-width: 0.7"/>
    </g>
   </g>
   <g id="PathCollection_3">
    <defs>
     <path id="m3354f00e14" d="M 0 5.567764 
L 5.567764 0 
L 0 -5.567764 
L -5.567764 0 
z
" style="stroke: #ffffff; stroke-opacity: 0.92; stroke-width: 0.7"/>
    </defs>
    <g clip-path="url(#p8d27f190c9)">
     <use xlink:href="#m3354f00e14" x="449.112787" y="309.311548" style="fill: #0072b2; fill-opacity: 0.92; stroke: #ffffff; stroke-opacity: 0.92; stroke-width: 0.7"/>
     <use xlink:href="#m3354f00e14" x="454.592033" y="299.253781" style="fill: #0072b2; fill-opacity: 0.92; stroke: #ffffff; stroke-opacity: 0.92; stroke-width: 0.7"/>
     <use xlink:href="#m3354f00e14" x="460.071279" y="305.590417" style="fill: #0072b2; fill-opacity: 0.92; stroke: #ffffff; stroke-opacity: 0.92; stroke-width: 0.7"/>
    </g>
   </g>
   <g id="PathCollection_4">
    <defs>
     <path id="mc2a783ad30" d="M -1.968502 3.937004 
L 0 1.968502 
L 1.968502 3.937004 
L 3.937004 1.968502 
L 1.968502 0 
L 3.937004 -1.968502 
L 1.968502 -3.937004 
L 0 -1.968502 
L -1.968502 -3.937004 
L -3.937004 -1.968502 
L -1.968502 0 
L -3.937004 1.968502 
z
" style="stroke: #ffffff; stroke-opacity: 0.92; stroke-width: 0.7"/>
    </defs>
    <g clip-path="url(#p8d27f190c9)">
     <use xlink:href="#mc2a783ad30" x="443.633542" y="280.33345" style="fill: #0072b2; fill-opacity: 0.92; stroke: #ffffff; stroke-opacity: 0.92; stroke-width: 0.7"/>
    </g>
   </g>
   <g id="PathCollection_5">
    <defs>
     <path id="m2baa99d9cf" d="M 0 3.937004 
C 1.044106 3.937004 2.045588 3.522176 2.783882 2.783882 
C 3.522176 2.045588 3.937004 1.044106 3.937004 0 
C 3.937004 -1.044106 3.522176 -2.045588 2.783882 -2.783882 
C 2.045588 -3.522176 1.044106 -3.937004 0 -3.937004 
C -1.044106 -3.937004 -2.045588 -3.522176 -2.783882 -2.783882 
C -3.522176 -2.045588 -3.937004 -1.044106 -3.937004 0 
C -3.937004 1.044106 -3.522176 2.045588 -2.783882 2.783882 
C -2.045588 3.522176 -1.044106 3.937004 0 3.937004 
z
" style="stroke: #ffffff; stroke-opacity: 0.92; stroke-width: 0.7"/>
    </defs>
    <g clip-path="url(#p8d27f190c9)">
     <use xlink:href="#m2baa99d9cf" x="334.048629" y="205.603801" style="fill: #d55e00; fill-opacity: 0.92; stroke: #ffffff; stroke-opacity: 0.92; stroke-width: 0.7"/>
     <use xlink:href="#m2baa99d9cf" x="443.633542" y="147.017221" style="fill: #d55e00; fill-opacity: 0.92; stroke: #ffffff; stroke-opacity: 0.92; stroke-width: 0.7"/>
     <use xlink:href="#m2baa99d9cf" x="465.550524" y="253.435606" style="fill: #d55e00; fill-opacity: 0.92; stroke: #ffffff; stroke-opacity: 0.92; stroke-width: 0.7"/>
     <use xlink:href="#m2baa99d9cf" x="553.218454" y="267.312054" style="fill: #d55e00; fill-opacity: 0.92; stroke: #ffffff; stroke-opacity: 0.92; stroke-width: 0.7"/>
    </g>
   </g>
   <g id="PathCollection_6">
    <defs>
     <path id="m30cc2e010f" d="M 0 5.567764 
L 5.567764 0 
L 0 -5.567764 
L -5.567764 0 
z
" style="stroke: #ffffff; stroke-opacity: 0.92; stroke-width: 0.7"/>
    </defs>
    <g clip-path="url(#p8d27f190c9)">
     <use xlink:href="#m30cc2e010f" x="449.112787" y="96.806928" style="fill: #d55e00; fill-opacity: 0.92; stroke: #ffffff; stroke-opacity: 0.92; stroke-width: 0.7"/>
     <use xlink:href="#m30cc2e010f" x="454.592033" y="225.034995" style="fill: #d55e00; fill-opacity: 0.92; stroke: #ffffff; stroke-opacity: 0.92; stroke-width: 0.7"/>
     <use xlink:href="#m30cc2e010f" x="460.071279" y="260.254592" style="fill: #d55e00; fill-opacity: 0.92; stroke: #ffffff; stroke-opacity: 0.92; stroke-width: 0.7"/>
     <use xlink:href="#m30cc2e010f" x="471.02977" y="272.022534" style="fill: #d55e00; fill-opacity: 0.92; stroke: #ffffff; stroke-opacity: 0.92; stroke-width: 0.7"/>
    </g>
   </g>
   <g id="PathCollection_7">
    <defs>
     <path id="m7c790af49b" d="M -1.968502 3.937004 
L 0 1.968502 
L 1.968502 3.937004 
L 3.937004 1.968502 
L 1.968502 0 
L 3.937004 -1.968502 
L 1.968502 -3.937004 
L 0 -1.968502 
L -1.968502 -3.937004 
L -3.937004 -1.968502 
L -1.968502 0 
L -3.937004 1.968502 
z
" style="stroke: #ffffff; stroke-opacity: 0.92; stroke-width: 0.7"/>
    </defs>
    <g clip-path="url(#p8d27f190c9)">
     <use xlink:href="#m7c790af49b" x="443.633542" y="147.017221" style="fill: #d55e00; fill-opacity: 0.92; stroke: #ffffff; stroke-opacity: 0.92; stroke-width: 0.7"/>
     <use xlink:href="#m7c790af49b" x="465.550524" y="253.435606" style="fill: #d55e00; fill-opacity: 0.92; stroke: #ffffff; stroke-opacity: 0.92; stroke-width: 0.7"/>
    </g>
   </g>
   <g id="PathCollection_8">
    <defs>
     <path id="mf7f26615e3" d="M 0 3.937004 
C 1.044106 3.937004 2.045588 3.522176 2.783882 2.783882 
C 3.522176 2.045588 3.937004 1.044106 3.937004 0 
C 3.937004 -1.044106 3.522176 -2.045588 2.783882 -2.783882 
C 2.045588 -3.522176 1.044106 -3.937004 0 -3.937004 
C -1.044106 -3.937004 -2.045588 -3.522176 -2.783882 -2.783882 
C -3.522176 -2.045588 -3.937004 -1.044106 -3.937004 0 
C -3.937004 1.044106 -3.522176 2.045588 -2.783882 2.783882 
C -2.045588 3.522176 -1.044106 3.937004 0 3.937004 
z
" style="stroke: #ffffff; stroke-opacity: 0.92; stroke-width: 0.7"/>
    </defs>
    <g clip-path="url(#p8d27f190c9)">
     <use xlink:href="#mf7f26615e3" x="334.048629" y="113.873666" style="fill: #009e73; fill-opacity: 0.92; stroke: #ffffff; stroke-opacity: 0.92; stroke-width: 0.7"/>
     <use xlink:href="#mf7f26615e3" x="443.633542" y="183.256659" style="fill: #009e73; fill-opacity: 0.92; stroke: #ffffff; stroke-opacity: 0.92; stroke-width: 0.7"/>
     <use xlink:href="#mf7f26615e3" x="465.550524" y="168.074641" style="fill: #009e73; fill-opacity: 0.92; stroke: #ffffff; stroke-opacity: 0.92; stroke-width: 0.7"/>
     <use xlink:href="#mf7f26615e3" x="553.218454" y="85.206569" style="fill: #009e73; fill-opacity: 0.92; stroke: #ffffff; stroke-opacity: 0.92; stroke-width: 0.7"/>
    </g>
   </g>
   <g id="PathCollection_9">
    <defs>
     <path id="mfe2fca1c84" d="M 0 3.937004 
C 1.044106 3.937004 2.045588 3.522176 2.783882 2.783882 
C 3.522176 2.045588 3.937004 1.044106 3.937004 0 
C 3.937004 -1.044106 3.522176 -2.045588 2.783882 -2.783882 
C 2.045588 -3.522176 1.044106 -3.937004 0 -3.937004 
C -1.044106 -3.937004 -2.045588 -3.522176 -2.783882 -2.783882 
C -3.522176 -2.045588 -3.937004 -1.044106 -3.937004 0 
C -3.937004 1.044106 -3.522176 2.045588 -2.783882 2.783882 
C -2.045588 3.522176 -1.044106 3.937004 0 3.937004 
z
" style="stroke: #ffffff; stroke-opacity: 0.92; stroke-width: 0.7"/>
    </defs>
    <g clip-path="url(#p8d27f190c9)">
     <use xlink:href="#mfe2fca1c84" x="334.048629" y="242.446303" style="fill: #cc79a7; fill-opacity: 0.92; stroke: #ffffff; stroke-opacity: 0.92; stroke-width: 0.7"/>
     <use xlink:href="#mfe2fca1c84" x="443.633542" y="226.479903" style="fill: #cc79a7; fill-opacity: 0.92; stroke: #ffffff; stroke-opacity: 0.92; stroke-width: 0.7"/>
     <use xlink:href="#mfe2fca1c84" x="465.550524" y="206.974111" style="fill: #cc79a7; fill-opacity: 0.92; stroke: #ffffff; stroke-opacity: 0.92; stroke-width: 0.7"/>
     <use xlink:href="#mfe2fca1c84" x="553.218454" y="224.831472" style="fill: #cc79a7; fill-opacity: 0.92; stroke: #ffffff; stroke-opacity: 0.92; stroke-width: 0.7"/>
    </g>
   </g>
   <g id="matplotlib.axis_3">
    <g id="xtick_1">
     <g id="line2d_11">
      <path d="M 114.878803 345.539588 
L 114.878803 61.539931 
" clip-path="url(#p8d27f190c9)" style="fill: none; stroke: #b0b0b0; stroke-opacity: 0.18; stroke-width: 0.7; stroke-linecap: round"/>
     </g>
     <g id="line2d_12">
      <defs>
       <path id="m59e9aa2a1e" d="M 0 0 
L 0 3.5 
" style="stroke: #333333; stroke-width: 0.8"/>
      </defs>
      <g>
       <use xlink:href="#m59e9aa2a1e" x="114.878803" y="345.539588" style="fill: #333333; stroke: #333333; stroke-width: 0.8"/>
      </g>
     </g>
     <g id="text_7">
      <text style="font-size: 9.2px; font-family: 'DejaVu Sans', 'Bitstream Vera Sans', 'Computer Modern Sans Serif', 'Lucida Grande', 'Verdana', 'Geneva', 'Lucid', 'Arial', 'Helvetica', 'Avant Garde', sans-serif; text-anchor: middle; fill: #333333" x="114.878803" y="359.53015" transform="rotate(-0 114.878803 359.53015)">0.665</text>
     </g>
    </g>
    <g id="xtick_2">
     <g id="line2d_13">
      <path d="M 224.463716 345.539588 
L 224.463716 61.539931 
" clip-path="url(#p8d27f190c9)" style="fill: none; stroke: #b0b0b0; stroke-opacity: 0.18; stroke-width: 0.7; stroke-linecap: round"/>
     </g>
     <g id="line2d_14">
      <g>
       <use xlink:href="#m59e9aa2a1e" x="224.463716" y="345.539588" style="fill: #333333; stroke: #333333; stroke-width: 0.8"/>
      </g>
     </g>
     <g id="text_8">
      <text style="font-size: 9.2px; font-family: 'DejaVu Sans', 'Bitstream Vera Sans', 'Computer Modern Sans Serif', 'Lucida Grande', 'Verdana', 'Geneva', 'Lucid', 'Arial', 'Helvetica', 'Avant Garde', sans-serif; text-anchor: middle; fill: #333333" x="224.463716" y="359.53015" transform="rotate(-0 224.463716 359.53015)">0.670</text>
     </g>
    </g>
    <g id="xtick_3">
     <g id="line2d_15">
      <path d="M 334.048629 345.539588 
L 334.048629 61.539931 
" clip-path="url(#p8d27f190c9)" style="fill: none; stroke: #b0b0b0; stroke-opacity: 0.18; stroke-width: 0.7; stroke-linecap: round"/>
     </g>
     <g id="line2d_16">
      <g>
       <use xlink:href="#m59e9aa2a1e" x="334.048629" y="345.539588" style="fill: #333333; stroke: #333333; stroke-width: 0.8"/>
      </g>
     </g>
     <g id="text_9">
      <text style="font-size: 9.2px; font-family: 'DejaVu Sans', 'Bitstream Vera Sans', 'Computer Modern Sans Serif', 'Lucida Grande', 'Verdana', 'Geneva', 'Lucid', 'Arial', 'Helvetica', 'Avant Garde', sans-serif; text-anchor: middle; fill: #333333" x="334.048629" y="359.53015" transform="rotate(-0 334.048629 359.53015)">0.675</text>
     </g>
    </g>
    <g id="xtick_4">
     <g id="line2d_17">
      <path d="M 443.633542 345.539588 
L 443.633542 61.539931 
" clip-path="url(#p8d27f190c9)" style="fill: none; stroke: #b0b0b0; stroke-opacity: 0.18; stroke-width: 0.7; stroke-linecap: round"/>
     </g>
     <g id="line2d_18">
      <g>
       <use xlink:href="#m59e9aa2a1e" x="443.633542" y="345.539588" style="fill: #333333; stroke: #333333; stroke-width: 0.8"/>
      </g>
     </g>
     <g id="text_10">
      <text style="font-size: 9.2px; font-family: 'DejaVu Sans', 'Bitstream Vera Sans', 'Computer Modern Sans Serif', 'Lucida Grande', 'Verdana', 'Geneva', 'Lucid', 'Arial', 'Helvetica', 'Avant Garde', sans-serif; text-anchor: middle; fill: #333333" x="443.633542" y="359.53015" transform="rotate(-0 443.633542 359.53015)">0.680</text>
     </g>
    </g>
    <g id="xtick_5">
     <g id="line2d_19">
      <path d="M 553.218454 345.539588 
L 553.218454 61.539931 
" clip-path="url(#p8d27f190c9)" style="fill: none; stroke: #b0b0b0; stroke-opacity: 0.18; stroke-width: 0.7; stroke-linecap: round"/>
     </g>
     <g id="line2d_20">
      <g>
       <use xlink:href="#m59e9aa2a1e" x="553.218454" y="345.539588" style="fill: #333333; stroke: #333333; stroke-width: 0.8"/>
      </g>
     </g>
     <g id="text_11">
      <text style="font-size: 9.2px; font-family: 'DejaVu Sans', 'Bitstream Vera Sans', 'Computer Modern Sans Serif', 'Lucida Grande', 'Verdana', 'Geneva', 'Lucid', 'Arial', 'Helvetica', 'Avant Garde', sans-serif; text-anchor: middle; fill: #333333" x="553.218454" y="359.53015" transform="rotate(-0 553.218454 359.53015)">0.685</text>
     </g>
    </g>
    <g id="text_12">
     <text style="font-size: 10.5px; font-family: 'DejaVu Sans', 'Bitstream Vera Sans', 'Computer Modern Sans Serif', 'Lucida Grande', 'Verdana', 'Geneva', 'Lucid', 'Arial', 'Helvetica', 'Avant Garde', sans-serif; text-anchor: middle; fill: #222222" x="306.652401" y="373.421822" transform="rotate(-0 306.652401 373.421822)">mu [-]</text>
    </g>
   </g>
   <g id="matplotlib.axis_4">
    <g id="ytick_6">
     <g id="line2d_21">
      <path d="M 40.361063 317.085706 
L 572.943739 317.085706 
" clip-path="url(#p8d27f190c9)" style="fill: none; stroke: #b0b0b0; stroke-opacity: 0.18; stroke-width: 0.7; stroke-linecap: round"/>
     </g>
     <g id="line2d_22">
      <defs>
       <path id="me5ef106f24" d="M 0 0 
L -3.5 0 
" style="stroke: #333333; stroke-width: 0.8"/>
      </defs>
      <g>
       <use xlink:href="#me5ef106f24" x="40.361063" y="317.085706" style="fill: #333333; stroke: #333333; stroke-width: 0.8"/>
      </g>
     </g>
     <g id="text_13">
      <text style="font-size: 9.2px; font-family: 'DejaVu Sans', 'Bitstream Vera Sans', 'Computer Modern Sans Serif', 'Lucida Grande', 'Verdana', 'Geneva', 'Lucid', 'Arial', 'Helvetica', 'Avant Garde', sans-serif; text-anchor: end; fill: #333333" x="33.361063" y="320.580987" transform="rotate(-0 33.361063 320.580987)">2</text>
     </g>
    </g>
    <g id="ytick_7">
     <g id="line2d_23">
      <path d="M 40.361063 261.210566 
L 572.943739 261.210566 
" clip-path="url(#p8d27f190c9)" style="fill: none; stroke: #b0b0b0; stroke-opacity: 0.18; stroke-width: 0.7; stroke-linecap: round"/>
     </g>
     <g id="line2d_24">
      <g>
       <use xlink:href="#me5ef106f24" x="40.361063" y="261.210566" style="fill: #333333; stroke: #333333; stroke-width: 0.8"/>
      </g>
     </g>
     <g id="text_14">
      <text style="font-size: 9.2px; font-family: 'DejaVu Sans', 'Bitstream Vera Sans', 'Computer Modern Sans Serif', 'Lucida Grande', 'Verdana', 'Geneva', 'Lucid', 'Arial', 'Helvetica', 'Avant Garde', sans-serif; text-anchor: end; fill: #333333" x="33.361063" y="264.705847" transform="rotate(-0 33.361063 264.705847)">4</text>
     </g>
    </g>
    <g id="ytick_8">
     <g id="line2d_25">
      <path d="M 40.361063 205.335426 
L 572.943739 205.335426 
" clip-path="url(#p8d27f190c9)" style="fill: none; stroke: #b0b0b0; stroke-opacity: 0.18; stroke-width: 0.7; stroke-linecap: round"/>
     </g>
     <g id="line2d_26">
      <g>
       <use xlink:href="#me5ef106f24" x="40.361063" y="205.335426" style="fill: #333333; stroke: #333333; stroke-width: 0.8"/>
      </g>
     </g>
     <g id="text_15">
      <text style="font-size: 9.2px; font-family: 'DejaVu Sans', 'Bitstream Vera Sans', 'Computer Modern Sans Serif', 'Lucida Grande', 'Verdana', 'Geneva', 'Lucid', 'Arial', 'Helvetica', 'Avant Garde', sans-serif; text-anchor: end; fill: #333333" x="33.361063" y="208.830707" transform="rotate(-0 33.361063 208.830707)">6</text>
     </g>
    </g>
    <g id="ytick_9">
     <g id="line2d_27">
      <path d="M 40.361063 149.460286 
L 572.943739 149.460286 
" clip-path="url(#p8d27f190c9)" style="fill: none; stroke: #b0b0b0; stroke-opacity: 0.18; stroke-width: 0.7; stroke-linecap: round"/>
     </g>
     <g id="line2d_28">
      <g>
       <use xlink:href="#me5ef106f24" x="40.361063" y="149.460286" style="fill: #333333; stroke: #333333; stroke-width: 0.8"/>
      </g>
     </g>
     <g id="text_16">
      <text style="font-size: 9.2px; font-family: 'DejaVu Sans', 'Bitstream Vera Sans', 'Computer Modern Sans Serif', 'Lucida Grande', 'Verdana', 'Geneva', 'Lucid', 'Arial', 'Helvetica', 'Avant Garde', sans-serif; text-anchor: end; fill: #333333" x="33.361063" y="152.955567" transform="rotate(-0 33.361063 152.955567)">8</text>
     </g>
    </g>
    <g id="ytick_10">
     <g id="line2d_29">
      <path d="M 40.361063 93.585146 
L 572.943739 93.585146 
" clip-path="url(#p8d27f190c9)" style="fill: none; stroke: #b0b0b0; stroke-opacity: 0.18; stroke-width: 0.7; stroke-linecap: round"/>
     </g>
     <g id="line2d_30">
      <g>
       <use xlink:href="#me5ef106f24" x="40.361063" y="93.585146" style="fill: #333333; stroke: #333333; stroke-width: 0.8"/>
      </g>
     </g>
     <g id="text_17">
      <text style="font-size: 9.2px; font-family: 'DejaVu Sans', 'Bitstream Vera Sans', 'Computer Modern Sans Serif', 'Lucida Grande', 'Verdana', 'Geneva', 'Lucid', 'Arial', 'Helvetica', 'Avant Garde', sans-serif; text-anchor: end; fill: #333333" x="33.361063" y="97.080428" transform="rotate(-0 33.361063 97.080428)">10</text>
     </g>
    </g>
    <g id="text_18">
     <text style="font-size: 10.5px; font-family: 'DejaVu Sans', 'Bitstream Vera Sans', 'Computer Modern Sans Serif', 'Lucida Grande', 'Verdana', 'Geneva', 'Lucid', 'Arial', 'Helvetica', 'Avant Garde', sans-serif; text-anchor: middle; fill: #222222" x="15.178359" y="203.53976" transform="rotate(-90 15.178359 203.53976)">Desplazamiento maximo [% d_eq]</text>
    </g>
   </g>
   <g id="line2d_31">
    <path d="M 40.361063 233.272996 
L 572.943739 233.272996 
" clip-path="url(#p8d27f190c9)" style="fill: none; stroke-dasharray: 4.07,1.76; stroke-dashoffset: 0; stroke: #000000; stroke-width: 1.1"/>
   </g>
   <g id="patch_5">
    <path d="M 40.361063 345.539588 
L 40.361063 61.539931 
" style="fill: none; stroke: #444444; stroke-width: 0.8; stroke-linejoin: miter; stroke-linecap: square"/>
   </g>
   <g id="patch_6">
    <path d="M 40.361062 345.539588 
L 572.943739 345.539588 
" style="fill: none; stroke: #444444; stroke-width: 0.8; stroke-linejoin: miter; stroke-linecap: square"/>
   </g>
   <g id="text_19">
    <text style="font-weight: 700; font-size: 12.5px; font-family: 'DejaVu Sans', 'Bitstream Vera Sans', 'Computer Modern Sans Serif', 'Lucida Grande', 'Verdana', 'Geneva', 'Lucid', 'Arial', 'Helvetica', 'Avant Garde', sans-serif; text-anchor: middle" x="306.652401" y="55.539931" transform="rotate(-0 306.652401 55.539931)">Frontera practica por desplazamiento</text>
   </g>
   <g id="legend_1">
    <g id="patch_7">
     <path d="M 120.104322 45.768188 
L 493.200479 45.768188 
Q 494.840479 45.768188 494.840479 44.128188 
L 494.840479 8.84 
Q 494.840479 7.2 493.200479 7.2 
L 120.104322 7.2 
Q 118.464322 7.2 118.464322 8.84 
L 118.464322 44.128188 
Q 118.464322 45.768188 120.104322 45.768188 
z
" style="fill: #ffffff; opacity: 0.96; stroke: #d5d5d5; stroke-width: 0.6; stroke-linejoin: miter"/>
    </g>
    <g id="line2d_32">
     <defs>
      <path id="m9bfce1c8fa" d="M 0 3.75 
C 0.994512 3.75 1.948425 3.354876 2.65165 2.65165 
C 3.354876 1.948425 3.75 0.994512 3.75 0 
C 3.75 -0.994512 3.354876 -1.948425 2.65165 -2.65165 
C 1.948425 -3.354876 0.994512 -3.75 0 -3.75 
C -0.994512 -3.75 -1.948425 -3.354876 -2.65165 -2.65165 
C -3.354876 -1.948425 -3.75 -0.994512 -3.75 0 
C -3.75 0.994512 -3.354876 1.948425 -2.65165 2.65165 
C -1.948425 3.354876 -0.994512 3.75 0 3.75 
z
" style="stroke: #ffffff"/>
     </defs>
     <g>
      <use xlink:href="#m9bfce1c8fa" x="129.944322" y="13.840719" style="fill: #0072b2; stroke: #ffffff"/>
     </g>
    </g>
    <g id="text_20">
     <text style="font-size: 8.2px; font-family: 'DejaVu Sans', 'Bitstream Vera Sans', 'Computer Modern Sans Serif', 'Lucida Grande', 'Verdana', 'Geneva', 'Lucid', 'Arial', 'Helvetica', 'Avant Garde', sans-serif; text-anchor: start" x="141.834322" y="16.710719" transform="rotate(-0 141.834322 16.710719)">dp=0.002</text>
    </g>
    <g id="line2d_33">
     <defs>
      <path id="mc5ae38a690" d="M 0 3.75 
C 0.994512 3.75 1.948425 3.354876 2.65165 2.65165 
C 3.354876 1.948425 3.75 0.994512 3.75 0 
C 3.75 -0.994512 3.354876 -1.948425 2.65165 -2.65165 
C 1.948425 -3.354876 0.994512 -3.75 0 -3.75 
C -0.994512 -3.75 -1.948425 -3.354876 -2.65165 -2.65165 
C -3.354876 -1.948425 -3.75 -0.994512 -3.75 0 
C -3.75 0.994512 -3.354876 1.948425 -2.65165 2.65165 
C -1.948425 3.354876 -0.994512 3.75 0 3.75 
z
" style="stroke: #ffffff"/>
     </defs>
     <g>
      <use xlink:href="#mc5ae38a690" x="129.944322" y="25.876781" style="fill: #d55e00; stroke: #ffffff"/>
     </g>
    </g>
    <g id="text_21">
     <text style="font-size: 8.2px; font-family: 'DejaVu Sans', 'Bitstream Vera Sans', 'Computer Modern Sans Serif', 'Lucida Grande', 'Verdana', 'Geneva', 'Lucid', 'Arial', 'Helvetica', 'Avant Garde', sans-serif; text-anchor: start" x="141.834322" y="28.746781" transform="rotate(-0 141.834322 28.746781)">dp=0.003</text>
    </g>
    <g id="line2d_34">
     <defs>
      <path id="mc8a4dc6117" d="M 0 3.75 
C 0.994512 3.75 1.948425 3.354876 2.65165 2.65165 
C 3.354876 1.948425 3.75 0.994512 3.75 0 
C 3.75 -0.994512 3.354876 -1.948425 2.65165 -2.65165 
C 1.948425 -3.354876 0.994512 -3.75 0 -3.75 
C -0.994512 -3.75 -1.948425 -3.354876 -2.65165 -2.65165 
C -3.354876 -1.948425 -3.75 -0.994512 -3.75 0 
C -3.75 0.994512 -3.354876 1.948425 -2.65165 2.65165 
C -1.948425 3.354876 -0.994512 3.75 0 3.75 
z
" style="stroke: #ffffff"/>
     </defs>
     <g>
      <use xlink:href="#mc8a4dc6117" x="129.944322" y="37.912844" style="fill: #009e73; stroke: #ffffff"/>
     </g>
    </g>
    <g id="text_22">
     <text style="font-size: 8.2px; font-family: 'DejaVu Sans', 'Bitstream Vera Sans', 'Computer Modern Sans Serif', 'Lucida Grande', 'Verdana', 'Geneva', 'Lucid', 'Arial', 'Helvetica', 'Avant Garde', sans-serif; text-anchor: start" x="141.834322" y="40.782844" transform="rotate(-0 141.834322 40.782844)">dp=0.004</text>
    </g>
    <g id="line2d_35">
     <defs>
      <path id="m49088e0b5d" d="M 0 3.75 
C 0.994512 3.75 1.948425 3.354876 2.65165 2.65165 
C 3.354876 1.948425 3.75 0.994512 3.75 0 
C 3.75 -0.994512 3.354876 -1.948425 2.65165 -2.65165 
C 1.948425 -3.354876 0.994512 -3.75 0 -3.75 
C -0.994512 -3.75 -1.948425 -3.354876 -2.65165 -2.65165 
C -3.354876 -1.948425 -3.75 -0.994512 -3.75 0 
C -3.75 0.994512 -3.354876 1.948425 -2.65165 2.65165 
C -1.948425 3.354876 -0.994512 3.75 0 3.75 
z
" style="stroke: #ffffff"/>
     </defs>
     <g>
      <use xlink:href="#m49088e0b5d" x="198.992166" y="13.840719" style="fill: #cc79a7; stroke: #ffffff"/>
     </g>
    </g>
    <g id="text_23">
     <text style="font-size: 8.2px; font-family: 'DejaVu Sans', 'Bitstream Vera Sans', 'Computer Modern Sans Serif', 'Lucida Grande', 'Verdana', 'Geneva', 'Lucid', 'Arial', 'Helvetica', 'Avant Garde', sans-serif; text-anchor: start" x="210.882166" y="16.710719" transform="rotate(-0 210.882166 16.710719)">dp=0.005</text>
    </g>
    <g id="line2d_36">
     <defs>
      <path id="m2a9b212883" d="M 0 3.75 
C 0.994512 3.75 1.948425 3.354876 2.65165 2.65165 
C 3.354876 1.948425 3.75 0.994512 3.75 0 
C 3.75 -0.994512 3.354876 -1.948425 2.65165 -2.65165 
C 1.948425 -3.354876 0.994512 -3.75 0 -3.75 
C -0.994512 -3.75 -1.948425 -3.354876 -2.65165 -2.65165 
C -3.354876 -1.948425 -3.75 -0.994512 -3.75 0 
C -3.75 0.994512 -3.354876 1.948425 -2.65165 2.65165 
C -1.948425 3.354876 -0.994512 3.75 0 3.75 
z
" style="stroke: #333333"/>
     </defs>
     <g>
      <use xlink:href="#m2a9b212883" x="198.992166" y="25.876781" style="fill: #f2f2f2; stroke: #333333"/>
     </g>
    </g>
    <g id="text_24">
     <text style="font-size: 8.2px; font-family: 'DejaVu Sans', 'Bitstream Vera Sans', 'Computer Modern Sans Serif', 'Lucida Grande', 'Verdana', 'Geneva', 'Lucid', 'Arial', 'Helvetica', 'Avant Garde', sans-serif; text-anchor: start" x="210.882166" y="28.746781" transform="rotate(-0 210.882166 28.746781)">grilla base</text>
    </g>
    <g id="line2d_37">
     <defs>
      <path id="m1bd45ef02a" d="M 0 -3.75 
L -3.75 3.75 
L 3.75 3.75 
z
" style="stroke: #333333; stroke-linejoin: miter"/>
     </defs>
     <g>
      <use xlink:href="#m1bd45ef02a" x="269.872197" y="13.840719" style="fill: #f2f2f2; stroke: #333333; stroke-linejoin: miter"/>
     </g>
    </g>
    <g id="text_25">
     <text style="font-size: 8.2px; font-family: 'DejaVu Sans', 'Bitstream Vera Sans', 'Computer Modern Sans Serif', 'Lucida Grande', 'Verdana', 'Geneva', 'Lucid', 'Arial', 'Helvetica', 'Avant Garde', sans-serif; text-anchor: start" x="281.762197" y="16.710719" transform="rotate(-0 281.762197 16.710719)">probe fino</text>
    </g>
    <g id="line2d_38">
     <defs>
      <path id="mbd04cf92d4" d="M 0 5.303301 
L 5.303301 0 
L 0 -5.303301 
L -5.303301 0 
z
" style="stroke: #333333; stroke-linejoin: miter"/>
     </defs>
     <g>
      <use xlink:href="#mbd04cf92d4" x="269.872197" y="25.876781" style="fill: #f2f2f2; stroke: #333333; stroke-linejoin: miter"/>
     </g>
    </g>
    <g id="text_26">
     <text style="font-size: 8.2px; font-family: 'DejaVu Sans', 'Bitstream Vera Sans', 'Computer Modern Sans Serif', 'Lucida Grande', 'Verdana', 'Geneva', 'Lucid', 'Arial', 'Helvetica', 'Avant Garde', sans-serif; text-anchor: start" x="281.762197" y="28.746781" transform="rotate(-0 281.762197 28.746781)">refinamiento frontera</text>
    </g>
    <g id="line2d_39">
     <defs>
      <path id="mcc8d92f397" d="M -1.875 3.75 
L 0 1.875 
L 1.875 3.75 
L 3.75 1.875 
L 1.875 0 
L 3.75 -1.875 
L 1.875 -3.75 
L 0 -1.875 
L -1.875 -3.75 
L -3.75 -1.875 
L -1.875 0 
L -3.75 1.875 
z
" style="stroke: #333333; stroke-linejoin: miter"/>
     </defs>
     <g>
      <use xlink:href="#mcc8d92f397" x="386.070041" y="13.840719" style="fill: #f2f2f2; stroke: #333333; stroke-linejoin: miter"/>
     </g>
    </g>
    <g id="text_27">
     <text style="font-size: 8.2px; font-family: 'DejaVu Sans', 'Bitstream Vera Sans', 'Computer Modern Sans Serif', 'Lucida Grande', 'Verdana', 'Geneva', 'Lucid', 'Arial', 'Helvetica', 'Avant Garde', sans-serif; text-anchor: start" x="397.960041" y="16.710719" transform="rotate(-0 397.960041 16.710719)">repeticion</text>
    </g>
    <g id="line2d_40">
     <path d="M 377.870041 25.876781 
L 386.070041 25.876781 
L 394.270041 25.876781 
" style="fill: none; stroke-dasharray: 5.18,2.24; stroke-dashoffset: 0; stroke: #000000; stroke-width: 1.4"/>
    </g>
    <g id="text_28">
     <text style="font-size: 8.2px; font-family: 'DejaVu Sans', 'Bitstream Vera Sans', 'Computer Modern Sans Serif', 'Lucida Grande', 'Verdana', 'Geneva', 'Lucid', 'Arial', 'Helvetica', 'Avant Garde', sans-serif; text-anchor: start" x="397.960041" y="28.746781" transform="rotate(-0 397.960041 28.746781)">umbral 5% = 5.02 mm</text>
    </g>
   </g>
  </g>
 </g>
 <defs>
  <clipPath id="pdb530b2539">
   <rect x="572.943739" y="61.539931" width="0" height="283.999656"/>
  </clipPath>
  <clipPath id="p8d27f190c9">
   <rect x="40.361063" y="61.539931" width="532.582676" height="283.999656"/>
  </clipPath>
 </defs>
</svg>
