<?xml version="1.0" encoding="utf-8" standalone="no"?>
<!DOCTYPE svg PUBLIC "-//W3C//DTD SVG 1.1//EN"
  "http://www.w3.org/Graphics/SVG/1.1/DTD/svg11.dtd">
<svg xmlns:xlink="http://www.w3.org/1999/xlink" width="620.39952pt" height="382.805494pt" viewBox="0 0 620.39952 382.805494" xmlns="http://www.w3.org/2000/svg" version="1.1">
 <metadata>
  <rdf:RDF xmlns:dc="http://purl.org/dc/elements/1.1/" xmlns:cc="http://creativecommons.org/ns#" xmlns:rdf="http://www.w3.org/1999/02/22-rdf-syntax-ns#">
   <cc:Work>
    <dc:type rdf:resource="http://purl.org/dc/dcmitype/StillImage"/>
    <dc:date>2026-05-14T23:19:35.088298</dc:date>
    <dc:format>image/svg+xml</dc:format>
    <dc:creator>
     <cc:Agent>
      <dc:title>Matplotlib v3.10.8, https://matplotlib.org/</dc:title>
     </cc:Agent>
    </dc:creator>
   </cc:Work>
  </rdf:RDF>
 </metadata>
 <defs>
  <style type="text/css">*{stroke-linejoin: round; stroke-linecap: butt}</style>
 </defs>
 <g id="figure_1">
  <g id="patch_1">
   <path d="M 0 382.805494 
L 620.39952 382.805494 
L 620.39952 0 
L 0 0 
z
" style="fill: #ffffff"/>
  </g>
  <g id="axes_1">
   <g id="patch_2">
    <path d="M 40.069031 345.539588 
L 613.19952 345.539588 
L 613.19952 61.539931 
L 40.069031 61.539931 
z
" style="fill: #ffffff"/>
   </g>
   <g id="PathCollection_1">
    <defs>
     <path id="m43e110a726" d="M 0 3.937004 
C 1.044106 3.937004 2.045588 3.522176 2.783882 2.783882 
C 3.522176 2.045588 3.937004 1.044106 3.937004 0 
C 3.937004 -1.044106 3.522176 -2.045588 2.783882 -2.783882 
C 2.045588 -3.522176 1.044106 -3.937004 0 -3.937004 
C -1.044106 -3.937004 -2.045588 -3.522176 -2.783882 -2.783882 
C -3.522176 -2.045588 -3.937004 -1.044106 -3.937004 0 
C -3.937004 1.044106 -3.522176 2.045588 -2.783882 2.783882 
C -2.045588 3.522176 -1.044106 3.937004 0 3.937004 
z
" style="stroke: #ffffff; stroke-opacity: 0.92; stroke-width: 0.7"/>
    </defs>
    <g clip-path="url(#pb56b4e8b3e)">
     <use xlink:href="#m43e110a726" x="356.116297" y="309.96709" style="fill: #0072b2; fill-opacity: 0.92; stroke: #ffffff; stroke-opacity: 0.92; stroke-width: 0.7"/>
     <use xlink:href="#m43e110a726" x="474.044381" y="280.33345" style="fill: #0072b2; fill-opacity: 0.92; stroke: #ffffff; stroke-opacity: 0.92; stroke-width: 0.7"/>
     <use xlink:href="#m43e110a726" x="497.629998" y="321.87295" style="fill: #0072b2; fill-opacity: 0.92; stroke: #ffffff; stroke-opacity: 0.92; stroke-width: 0.7"/>
     <use xlink:href="#m43e110a726" x="591.972465" y="317.896725" style="fill: #0072b2; fill-opacity: 0.92; stroke: #ffffff; stroke-opacity: 0.92; stroke-width: 0.7"/>
    </g>
   </g>
   <g id="PathCollection_2">
    <defs>
     <path id="mf8bd45ba19" d="M 0 -3.937004 
L -3.937004 3.937004 
L 3.937004 3.937004 
z
" style="stroke: #ffffff; stroke-opacity: 0.92; stroke-width: 0.7"/>
    </defs>
    <g clip-path="url(#pb56b4e8b3e)">
     <use xlink:href="#mf8bd45ba19" x="61.296086" y="294.037858" style="fill: #0072b2; fill-opacity: 0.92; stroke: #ffffff; stroke-opacity: 0.92; stroke-width: 0.7"/>
    </g>
   </g>
   <g id="PathCollection_3">
    <defs>
     <path id="m32b7988845" d="M 0 5.567764 
L 5.567764 0 
L 0 -5.567764 
L -5.567764 0 
z
" style="stroke: #ffffff; stroke-opacity: 0.92; stroke-width: 0.7"/>
    </defs>
    <g clip-path="url(#pb56b4e8b3e)">
     <use xlink:href="#m32b7988845" x="479.940785" y="309.311548" style="fill: #0072b2; fill-opacity: 0.92; stroke: #ffffff; stroke-opacity: 0.92; stroke-width: 0.7"/>
     <use xlink:href="#m32b7988845" x="485.837189" y="299.253781" style="fill: #0072b2; fill-opacity: 0.92; stroke: #ffffff; stroke-opacity: 0.92; stroke-width: 0.7"/>
     <use xlink:href="#m32b7988845" x="491.733593" y="305.590417" style="fill: #0072b2; fill-opacity: 0.92; stroke: #ffffff; stroke-opacity: 0.92; stroke-width: 0.7"/>
    </g>
   </g>
   <g id="PathCollection_4">
    <defs>
     <path id="m1328207ae2" d="M -1.968502 3.937004 
L 0 1.968502 
L 1.968502 3.937004 
L 3.937004 1.968502 
L 1.968502 0 
L 3.937004 -1.968502 
L 1.968502 -3.937004 
L 0 -1.968502 
L -1.968502 -3.937004 
L -3.937004 -1.968502 
L -1.968502 0 
L -3.937004 1.968502 
z
" style="stroke: #ffffff; stroke-opacity: 0.92; stroke-width: 0.7"/>
    </defs>
    <g clip-path="url(#pb56b4e8b3e)">
     <use xlink:href="#m1328207ae2" x="474.044381" y="280.33345" style="fill: #0072b2; fill-opacity: 0.92; stroke: #ffffff; stroke-opacity: 0.92; stroke-width: 0.7"/>
    </g>
   </g>
   <g id="PathCollection_5">
    <defs>
     <path id="m136b231ece" d="M 0 3.937004 
C 1.044106 3.937004 2.045588 3.522176 2.783882 2.783882 
C 3.522176 2.045588 3.937004 1.044106 3.937004 0 
C 3.937004 -1.044106 3.522176 -2.045588 2.783882 -2.783882 
C 2.045588 -3.522176 1.044106 -3.937004 0 -3.937004 
C -1.044106 -3.937004 -2.045588 -3.522176 -2.783882 -2.783882 
C -3.522176 -2.045588 -3.937004 -1.044106 -3.937004 0 
C -3.937004 1.044106 -3.522176 2.045588 -2.783882 2.783882 
C -2.045588 3.522176 -1.044106 3.937004 0 3.937004 
z
" style="stroke: #ffffff; stroke-opacity: 0.92; stroke-width: 0.7"/>
    </defs>
    <g clip-path="url(#pb56b4e8b3e)">
     <use xlink:href="#m136b231ece" x="356.116297" y="205.603801" style="fill: #d55e00; fill-opacity: 0.92; stroke: #ffffff; stroke-opacity: 0.92; stroke-width: 0.7"/>
     <use xlink:href="#m136b231ece" x="474.044381" y="147.017221" style="fill: #d55e00; fill-opacity: 0.92; stroke: #ffffff; stroke-opacity: 0.92; stroke-width: 0.7"/>
     <use xlink:href="#m136b231ece" x="497.629998" y="253.435606" style="fill: #d55e00; fill-opacity: 0.92; stroke: #ffffff; stroke-opacity: 0.92; stroke-width: 0.7"/>
     <use xlink:href="#m136b231ece" x="591.972465" y="267.312054" style="fill: #d55e00; fill-opacity: 0.92; stroke: #ffffff; stroke-opacity: 0.92; stroke-width: 0.7"/>
    </g>
   </g>
   <g id="PathCollection_6">
    <defs>
     <path id="m39eaf14d6d" d="M 0 5.567764 
L 5.567764 0 
L 0 -5.567764 
L -5.567764 0 
z
" style="stroke: #ffffff; stroke-opacity: 0.92; stroke-width: 0.7"/>
    </defs>
    <g clip-path="url(#pb56b4e8b3e)">
     <use xlink:href="#m39eaf14d6d" x="479.940785" y="96.806928" style="fill: #d55e00; fill-opacity: 0.92; stroke: #ffffff; stroke-opacity: 0.92; stroke-width: 0.7"/>
     <use xlink:href="#m39eaf14d6d" x="485.837189" y="225.034995" style="fill: #d55e00; fill-opacity: 0.92; stroke: #ffffff; stroke-opacity: 0.92; stroke-width: 0.7"/>
     <use xlink:href="#m39eaf14d6d" x="491.733593" y="260.254592" style="fill: #d55e00; fill-opacity: 0.92; stroke: #ffffff; stroke-opacity: 0.92; stroke-width: 0.7"/>
     <use xlink:href="#m39eaf14d6d" x="503.526402" y="272.022534" style="fill: #d55e00; fill-opacity: 0.92; stroke: #ffffff; stroke-opacity: 0.92; stroke-width: 0.7"/>
    </g>
   </g>
   <g id="PathCollection_7">
    <defs>
     <path id="md45dd8a078" d="M -1.968502 3.937004 
L 0 1.968502 
L 1.968502 3.937004 
L 3.937004 1.968502 
L 1.968502 0 
L 3.937004 -1.968502 
L 1.968502 -3.937004 
L 0 -1.968502 
L -1.968502 -3.937004 
L -3.937004 -1.968502 
L -1.968502 0 
L -3.937004 1.968502 
z
" style="stroke: #ffffff; stroke-opacity: 0.92; stroke-width: 0.7"/>
    </defs>
    <g clip-path="url(#pb56b4e8b3e)">
     <use xlink:href="#md45dd8a078" x="474.044381" y="147.017221" style="fill: #d55e00; fill-opacity: 0.92; stroke: #ffffff; stroke-opacity: 0.92; stroke-width: 0.7"/>
     <use xlink:href="#md45dd8a078" x="497.629998" y="253.435606" style="fill: #d55e00; fill-opacity: 0.92; stroke: #ffffff; stroke-opacity: 0.92; stroke-width: 0.7"/>
    </g>
   </g>
   <g id="PathCollection_8">
    <defs>
     <path id="m1f7977384b" d="M 0 3.937004 
C 1.044106 3.937004 2.045588 3.522176 2.783882 2.783882 
C 3.522176 2.045588 3.937004 1.044106 3.937004 0 
C 3.937004 -1.044106 3.522176 -2.045588 2.783882 -2.783882 
C 2.045588 -3.522176 1.044106 -3.937004 0 -3.937004 
C -1.044106 -3.937004 -2.045588 -3.522176 -2.783882 -2.783882 
C -3.522176 -2.045588 -3.937004 -1.044106 -3.937004 0 
C -3.937004 1.044106 -3.522176 2.045588 -2.783882 2.783882 
C -2.045588 3.522176 -1.044106 3.937004 0 3.937004 
z
" style="stroke: #ffffff; stroke-opacity: 0.92; stroke-width: 0.7"/>
    </defs>
    <g clip-path="url(#pb56b4e8b3e)">
     <use xlink:href="#m1f7977384b" x="356.116297" y="113.873666" style="fill: #009e73; fill-opacity: 0.92; stroke: #ffffff; stroke-opacity: 0.92; stroke-width: 0.7"/>
     <use xlink:href="#m1f7977384b" x="474.044381" y="183.256659" style="fill: #009e73; fill-opacity: 0.92; stroke: #ffffff; stroke-opacity: 0.92; stroke-width: 0.7"/>
     <use xlink:href="#m1f7977384b" x="497.629998" y="168.074641" style="fill: #009e73; fill-opacity: 0.92; stroke: #ffffff; stroke-opacity: 0.92; stroke-width: 0.7"/>
     <use xlink:href="#m1f7977384b" x="591.972465" y="85.206569" style="fill: #009e73; fill-opacity: 0.92; stroke: #ffffff; stroke-opacity: 0.92; stroke-width: 0.7"/>
    </g>
   </g>
   <g id="PathCollection_9">
    <defs>
     <path id="m0f78407cf1" d="M 0 3.937004 
C 1.044106 3.937004 2.045588 3.522176 2.783882 2.783882 
C 3.522176 2.045588 3.937004 1.044106 3.937004 0 
C 3.937004 -1.044106 3.522176 -2.045588 2.783882 -2.783882 
C 2.045588 -3.522176 1.044106 -3.937004 0 -3.937004 
C -1.044106 -3.937004 -2.045588 -3.522176 -2.783882 -2.783882 
C -3.522176 -2.045588 -3.937004 -1.044106 -3.937004 0 
C -3.937004 1.044106 -3.522176 2.045588 -2.783882 2.783882 
C -2.045588 3.522176 -1.044106 3.937004 0 3.937004 
z
" style="stroke: #ffffff; stroke-opacity: 0.92; stroke-width: 0.7"/>
    </defs>
    <g clip-path="url(#pb56b4e8b3e)">
     <use xlink:href="#m0f78407cf1" x="356.116297" y="242.446303" style="fill: #cc79a7; fill-opacity: 0.92; stroke: #ffffff; stroke-opacity: 0.92; stroke-width: 0.7"/>
     <use xlink:href="#m0f78407cf1" x="474.044381" y="226.479903" style="fill: #cc79a7; fill-opacity: 0.92; stroke: #ffffff; stroke-opacity: 0.92; stroke-width: 0.7"/>
     <use xlink:href="#m0f78407cf1" x="497.629998" y="206.974111" style="fill: #cc79a7; fill-opacity: 0.92; stroke: #ffffff; stroke-opacity: 0.92; stroke-width: 0.7"/>
     <use xlink:href="#m0f78407cf1" x="591.972465" y="224.831472" style="fill: #cc79a7; fill-opacity: 0.92; stroke: #ffffff; stroke-opacity: 0.92; stroke-width: 0.7"/>
    </g>
   </g>
   <g id="matplotlib.axis_1">
    <g id="xtick_1">
     <g id="line2d_1">
      <path d="M 120.260128 345.539588 
L 120.260128 61.539931 
" clip-path="url(#pb56b4e8b3e)" style="fill: none; stroke: #b0b0b0; stroke-opacity: 0.18; stroke-width: 0.7; stroke-linecap: round"/>
     </g>
     <g id="line2d_2">
      <defs>
       <path id="m1736101a07" d="M 0 0 
L 0 3.5 
" style="stroke: #333333; stroke-width: 0.8"/>
      </defs>
      <g>
       <use xlink:href="#m1736101a07" x="120.260128" y="345.539588" style="fill: #333333; stroke: #333333; stroke-width: 0.8"/>
      </g>
     </g>
     <g id="text_1">
      <text style="font-size: 9.2px; font-family: 'DejaVu Sans', 'Bitstream Vera Sans', 'Computer Modern Sans Serif', 'Lucida Grande', 'Verdana', 'Geneva', 'Lucid', 'Arial', 'Helvetica', 'Avant Garde', sans-serif; text-anchor: middle; fill: #333333" x="120.260128" y="359.53015" transform="rotate(-0 120.260128 359.53015)">0.665</text>
     </g>
    </g>
    <g id="xtick_2">
     <g id="line2d_3">
      <path d="M 238.188213 345.539588 
L 238.188213 61.539931 
" clip-path="url(#pb56b4e8b3e)" style="fill: none; stroke: #b0b0b0; stroke-opacity: 0.18; stroke-width: 0.7; stroke-linecap: round"/>
     </g>
     <g id="line2d_4">
      <g>
       <use xlink:href="#m1736101a07" x="238.188213" y="345.539588" style="fill: #333333; stroke: #333333; stroke-width: 0.8"/>
      </g>
     </g>
     <g id="text_2">
      <text style="font-size: 9.2px; font-family: 'DejaVu Sans', 'Bitstream Vera Sans', 'Computer Modern Sans Serif', 'Lucida Grande', 'Verdana', 'Geneva', 'Lucid', 'Arial', 'Helvetica', 'Avant Garde', sans-serif; text-anchor: middle; fill: #333333" x="238.188213" y="359.53015" transform="rotate(-0 238.188213 359.53015)">0.670</text>
     </g>
    </g>
    <g id="xtick_3">
     <g id="line2d_5">
      <path d="M 356.116297 345.539588 
L 356.116297 61.539931 
" clip-path="url(#pb56b4e8b3e)" style="fill: none; stroke: #b0b0b0; stroke-opacity: 0.18; stroke-width: 0.7; stroke-linecap: round"/>
     </g>
     <g id="line2d_6">
      <g>
       <use xlink:href="#m1736101a07" x="356.116297" y="345.539588" style="fill: #333333; stroke: #333333; stroke-width: 0.8"/>
      </g>
     </g>
     <g id="text_3">
      <text style="font-size: 9.2px; font-family: 'DejaVu Sans', 'Bitstream Vera Sans', 'Computer Modern Sans Serif', 'Lucida Grande', 'Verdana', 'Geneva', 'Lucid', 'Arial', 'Helvetica', 'Avant Garde', sans-serif; text-anchor: middle; fill: #333333" x="356.116297" y="359.53015" transform="rotate(-0 356.116297 359.53015)">0.675</text>
     </g>
    </g>
    <g id="xtick_4">
     <g id="line2d_7">
      <path d="M 474.044381 345.539588 
L 474.044381 61.539931 
" clip-path="url(#pb56b4e8b3e)" style="fill: none; stroke: #b0b0b0; stroke-opacity: 0.18; stroke-width: 0.7; stroke-linecap: round"/>
     </g>
     <g id="line2d_8">
      <g>
       <use xlink:href="#m1736101a07" x="474.044381" y="345.539588" style="fill: #333333; stroke: #333333; stroke-width: 0.8"/>
      </g>
     </g>
     <g id="text_4">
      <text style="font-size: 9.2px; font-family: 'DejaVu Sans', 'Bitstream Vera Sans', 'Computer Modern Sans Serif', 'Lucida Grande', 'Verdana', 'Geneva', 'Lucid', 'Arial', 'Helvetica', 'Avant Garde', sans-serif; text-anchor: middle; fill: #333333" x="474.044381" y="359.53015" transform="rotate(-0 474.044381 359.53015)">0.680</text>
     </g>
    </g>
    <g id="xtick_5">
     <g id="line2d_9">
      <path d="M 591.972465 345.539588 
L 591.972465 61.539931 
" clip-path="url(#pb56b4e8b3e)" style="fill: none; stroke: #b0b0b0; stroke-opacity: 0.18; stroke-width: 0.7; stroke-linecap: round"/>
     </g>
     <g id="line2d_10">
      <g>
       <use xlink:href="#m1736101a07" x="591.972465" y="345.539588" style="fill: #333333; stroke: #333333; stroke-width: 0.8"/>
      </g>
     </g>
     <g id="text_5">
      <text style="font-size: 9.2px; font-family: 'DejaVu Sans', 'Bitstream Vera Sans', 'Computer Modern Sans Serif', 'Lucida Grande', 'Verdana', 'Geneva', 'Lucid', 'Arial', 'Helvetica', 'Avant Garde', sans-serif; text-anchor: middle; fill: #333333" x="591.972465" y="359.53015" transform="rotate(-0 591.972465 359.53015)">0.685</text>
     </g>
    </g>
    <g id="text_6">
     <text style="font-size: 10.5px; font-family: 'DejaVu Sans', 'Bitstream Vera Sans', 'Computer Modern Sans Serif', 'Lucida Grande', 'Verdana', 'Geneva', 'Lucid', 'Arial', 'Helvetica', 'Avant Garde', sans-serif; text-anchor: middle; fill: #222222" x="326.634276" y="373.421822" transform="rotate(-0 326.634276 373.421822)">mu [-]</text>
    </g>
   </g>
   <g id="matplotlib.axis_2">
    <g id="ytick_1">
     <g id="line2d_11">
      <path d="M 40.069031 317.319718 
L 613.19952 317.319718 
" clip-path="url(#pb56b4e8b3e)" style="fill: none; stroke: #b0b0b0; stroke-opacity: 0.18; stroke-width: 0.7; stroke-linecap: round"/>
     </g>
     <g id="line2d_12">
      <defs>
       <path id="m3266372c18" d="M 0 0 
L -3.5 0 
" style="stroke: #333333; stroke-width: 0.8"/>
      </defs>
      <g>
       <use xlink:href="#m3266372c18" x="40.069031" y="317.319718" style="fill: #333333; stroke: #333333; stroke-width: 0.8"/>
      </g>
     </g>
     <g id="text_7">
      <text style="font-size: 9.2px; font-family: 'DejaVu Sans', 'Bitstream Vera Sans', 'Computer Modern Sans Serif', 'Lucida Grande', 'Verdana', 'Geneva', 'Lucid', 'Arial', 'Helvetica', 'Avant Garde', sans-serif; text-anchor: end; fill: #333333" x="33.069031" y="320.814999" transform="rotate(-0 33.069031 320.814999)">2</text>
     </g>
    </g>
    <g id="ytick_2">
     <g id="line2d_13">
      <path d="M 40.069031 261.678591 
L 613.19952 261.678591 
" clip-path="url(#pb56b4e8b3e)" style="fill: none; stroke: #b0b0b0; stroke-opacity: 0.18; stroke-width: 0.7; stroke-linecap: round"/>
     </g>
     <g id="line2d_14">
      <g>
       <use xlink:href="#m3266372c18" x="40.069031" y="261.678591" style="fill: #333333; stroke: #333333; stroke-width: 0.8"/>
      </g>
     </g>
     <g id="text_8">
      <text style="font-size: 9.2px; font-family: 'DejaVu Sans', 'Bitstream Vera Sans', 'Computer Modern Sans Serif', 'Lucida Grande', 'Verdana', 'Geneva', 'Lucid', 'Arial', 'Helvetica', 'Avant Garde', sans-serif; text-anchor: end; fill: #333333" x="33.069031" y="265.173872" transform="rotate(-0 33.069031 265.173872)">4</text>
     </g>
    </g>
    <g id="ytick_3">
     <g id="line2d_15">
      <path d="M 40.069031 206.037464 
L 613.19952 206.037464 
" clip-path="url(#pb56b4e8b3e)" style="fill: none; stroke: #b0b0b0; stroke-opacity: 0.18; stroke-width: 0.7; stroke-linecap: round"/>
     </g>
     <g id="line2d_16">
      <g>
       <use xlink:href="#m3266372c18" x="40.069031" y="206.037464" style="fill: #333333; stroke: #333333; stroke-width: 0.8"/>
      </g>
     </g>
     <g id="text_9">
      <text style="font-size: 9.2px; font-family: 'DejaVu Sans', 'Bitstream Vera Sans', 'Computer Modern Sans Serif', 'Lucida Grande', 'Verdana', 'Geneva', 'Lucid', 'Arial', 'Helvetica', 'Avant Garde', sans-serif; text-anchor: end; fill: #333333" x="33.069031" y="209.532745" transform="rotate(-0 33.069031 209.532745)">6</text>
     </g>
    </g>
    <g id="ytick_4">
     <g id="line2d_17">
      <path d="M 40.069031 150.396336 
L 613.19952 150.396336 
" clip-path="url(#pb56b4e8b3e)" style="fill: none; stroke: #b0b0b0; stroke-opacity: 0.18; stroke-width: 0.7; stroke-linecap: round"/>
     </g>
     <g id="line2d_18">
      <g>
       <use xlink:href="#m3266372c18" x="40.069031" y="150.396336" style="fill: #333333; stroke: #333333; stroke-width: 0.8"/>
      </g>
     </g>
     <g id="text_10">
      <text style="font-size: 9.2px; font-family: 'DejaVu Sans', 'Bitstream Vera Sans', 'Computer Modern Sans Serif', 'Lucida Grande', 'Verdana', 'Geneva', 'Lucid', 'Arial', 'Helvetica', 'Avant Garde', sans-serif; text-anchor: end; fill: #333333" x="33.069031" y="153.891618" transform="rotate(-0 33.069031 153.891618)">8</text>
     </g>
    </g>
    <g id="ytick_5">
     <g id="line2d_19">
      <path d="M 40.069031 94.755209 
L 613.19952 94.755209 
" clip-path="url(#pb56b4e8b3e)" style="fill: none; stroke: #b0b0b0; stroke-opacity: 0.18; stroke-width: 0.7; stroke-linecap: round"/>
     </g>
     <g id="line2d_20">
      <g>
       <use xlink:href="#m3266372c18" x="40.069031" y="94.755209" style="fill: #333333; stroke: #333333; stroke-width: 0.8"/>
      </g>
     </g>
     <g id="text_11">
      <text style="font-size: 9.2px; font-family: 'DejaVu Sans', 'Bitstream Vera Sans', 'Computer Modern Sans Serif', 'Lucida Grande', 'Verdana', 'Geneva', 'Lucid', 'Arial', 'Helvetica', 'Avant Garde', sans-serif; text-anchor: end; fill: #333333" x="33.069031" y="98.25049" transform="rotate(-0 33.069031 98.25049)">10</text>
     </g>
    </g>
    <g id="text_12">
     <text style="font-size: 10.5px; font-family: 'DejaVu Sans', 'Bitstream Vera Sans', 'Computer Modern Sans Serif', 'Lucida Grande', 'Verdana', 'Geneva', 'Lucid', 'Arial', 'Helvetica', 'Avant Garde', sans-serif; text-anchor: middle; fill: #222222" x="15.178359" y="203.53976" transform="rotate(-90 15.178359 203.53976)">Desplazamiento maximo [mm]</text>
    </g>
   </g>
   <g id="line2d_21">
    <path d="M 40.069031 233.272404 
L 613.19952 233.272404 
" clip-path="url(#pb56b4e8b3e)" style="fill: none; stroke-dasharray: 4.07,1.76; stroke-dashoffset: 0; stroke: #000000; stroke-width: 1.1"/>
   </g>
   <g id="patch_3">
    <path d="M 40.069031 345.539588 
L 40.069031 61.539931 
" style="fill: none; stroke: #444444; stroke-width: 0.8; stroke-linejoin: miter; stroke-linecap: square"/>
   </g>
   <g id="patch_4">
    <path d="M 40.069031 345.539588 
L 613.19952 345.539588 
" style="fill: none; stroke: #444444; stroke-width: 0.8; stroke-linejoin: miter; stroke-linecap: square"/>
   </g>
   <g id="text_13">
    <text style="font-weight: 700; font-size: 12.5px; font-family: 'DejaVu Sans', 'Bitstream Vera Sans', 'Computer Modern Sans Serif', 'Lucida Grande', 'Verdana', 'Geneva', 'Lucid', 'Arial', 'Helvetica', 'Avant Garde', sans-serif; text-anchor: middle" x="326.634276" y="55.539931" transform="rotate(-0 326.634276 55.539931)">Desplazamiento absoluto cerca de la frontera</text>
   </g>
   <g id="legend_1">
    <g id="patch_5">
     <path d="M 152.632198 45.768188 
L 500.636354 45.768188 
Q 502.276354 45.768188 502.276354 44.128188 
L 502.276354 8.84 
Q 502.276354 7.2 500.636354 7.2 
L 152.632198 7.2 
Q 150.992198 7.2 150.992198 8.84 
L 150.992198 44.128188 
Q 150.992198 45.768188 152.632198 45.768188 
z
" style="fill: #ffffff; opacity: 0.96; stroke: #d5d5d5; stroke-width: 0.6; stroke-linejoin: miter"/>
    </g>
    <g id="line2d_22">
     <defs>
      <path id="ma7dc3c6f97" d="M 0 3.75 
C 0.994512 3.75 1.948425 3.354876 2.65165 2.65165 
C 3.354876 1.948425 3.75 0.994512 3.75 0 
C 3.75 -0.994512 3.354876 -1.948425 2.65165 -2.65165 
C 1.948425 -3.354876 0.994512 -3.75 0 -3.75 
C -0.994512 -3.75 -1.948425 -3.354876 -2.65165 -2.65165 
C -3.354876 -1.948425 -3.75 -0.994512 -3.75 0 
C -3.75 0.994512 -3.354876 1.948425 -2.65165 2.65165 
C -1.948425 3.354876 -0.994512 3.75 0 3.75 
z
" style="stroke: #ffffff"/>
     </defs>
     <g>
      <use xlink:href="#ma7dc3c6f97" x="162.472198" y="13.840719" style="fill: #0072b2; stroke: #ffffff"/>
     </g>
    </g>
    <g id="text_14">
     <text style="font-size: 8.2px; font-family: 'DejaVu Sans', 'Bitstream Vera Sans', 'Computer Modern Sans Serif', 'Lucida Grande', 'Verdana', 'Geneva', 'Lucid', 'Arial', 'Helvetica', 'Avant Garde', sans-serif; text-anchor: start" x="174.362198" y="16.710719" transform="rotate(-0 174.362198 16.710719)">dp=0.002</text>
    </g>
    <g id="line2d_23">
     <defs>
      <path id="m2adec8fe87" d="M 0 3.75 
C 0.994512 3.75 1.948425 3.354876 2.65165 2.65165 
C 3.354876 1.948425 3.75 0.994512 3.75 0 
C 3.75 -0.994512 3.354876 -1.948425 2.65165 -2.65165 
C 1.948425 -3.354876 0.994512 -3.75 0 -3.75 
C -0.994512 -3.75 -1.948425 -3.354876 -2.65165 -2.65165 
C -3.354876 -1.948425 -3.75 -0.994512 -3.75 0 
C -3.75 0.994512 -3.354876 1.948425 -2.65165 2.65165 
C -1.948425 3.354876 -0.994512 3.75 0 3.75 
z
" style="stroke: #ffffff"/>
     </defs>
     <g>
      <use xlink:href="#m2adec8fe87" x="162.472198" y="25.876781" style="fill: #d55e00; stroke: #ffffff"/>
     </g>
    </g>
    <g id="text_15">
     <text style="font-size: 8.2px; font-family: 'DejaVu Sans', 'Bitstream Vera Sans', 'Computer Modern Sans Serif', 'Lucida Grande', 'Verdana', 'Geneva', 'Lucid', 'Arial', 'Helvetica', 'Avant Garde', sans-serif; text-anchor: start" x="174.362198" y="28.746781" transform="rotate(-0 174.362198 28.746781)">dp=0.003</text>
    </g>
    <g id="line2d_24">
     <defs>
      <path id="m6eaef9b311" d="M 0 3.75 
C 0.994512 3.75 1.948425 3.354876 2.65165 2.65165 
C 3.354876 1.948425 3.75 0.994512 3.75 0 
C 3.75 -0.994512 3.354876 -1.948425 2.65165 -2.65165 
C 1.948425 -3.354876 0.994512 -3.75 0 -3.75 
C -0.994512 -3.75 -1.948425 -3.354876 -2.65165 -2.65165 
C -3.354876 -1.948425 -3.75 -0.994512 -3.75 0 
C -3.75 0.994512 -3.354876 1.948425 -2.65165 2.65165 
C -1.948425 3.354876 -0.994512 3.75 0 3.75 
z
" style="stroke: #ffffff"/>
     </defs>
     <g>
      <use xlink:href="#m6eaef9b311" x="162.472198" y="37.912844" style="fill: #009e73; stroke: #ffffff"/>
     </g>
    </g>
    <g id="text_16">
     <text style="font-size: 8.2px; font-family: 'DejaVu Sans', 'Bitstream Vera Sans', 'Computer Modern Sans Serif', 'Lucida Grande', 'Verdana', 'Geneva', 'Lucid', 'Arial', 'Helvetica', 'Avant Garde', sans-serif; text-anchor: start" x="174.362198" y="40.782844" transform="rotate(-0 174.362198 40.782844)">dp=0.004</text>
    </g>
    <g id="line2d_25">
     <defs>
      <path id="ma119d08115" d="M 0 3.75 
C 0.994512 3.75 1.948425 3.354876 2.65165 2.65165 
C 3.354876 1.948425 3.75 0.994512 3.75 0 
C 3.75 -0.994512 3.354876 -1.948425 2.65165 -2.65165 
C 1.948425 -3.354876 0.994512 -3.75 0 -3.75 
C -0.994512 -3.75 -1.948425 -3.354876 -2.65165 -2.65165 
C -3.354876 -1.948425 -3.75 -0.994512 -3.75 0 
C -3.75 0.994512 -3.354876 1.948425 -2.65165 2.65165 
C -1.948425 3.354876 -0.994512 3.75 0 3.75 
z
" style="stroke: #ffffff"/>
     </defs>
     <g>
      <use xlink:href="#ma119d08115" x="231.520041" y="13.840719" style="fill: #cc79a7; stroke: #ffffff"/>
     </g>
    </g>
    <g id="text_17">
     <text style="font-size: 8.2px; font-family: 'DejaVu Sans', 'Bitstream Vera Sans', 'Computer Modern Sans Serif', 'Lucida Grande', 'Verdana', 'Geneva', 'Lucid', 'Arial', 'Helvetica', 'Avant Garde', sans-serif; text-anchor: start" x="243.410041" y="16.710719" transform="rotate(-0 243.410041 16.710719)">dp=0.005</text>
    </g>
    <g id="line2d_26">
     <defs>
      <path id="m0624b05f8a" d="M 0 3.75 
C 0.994512 3.75 1.948425 3.354876 2.65165 2.65165 
C 3.354876 1.948425 3.75 0.994512 3.75 0 
C 3.75 -0.994512 3.354876 -1.948425 2.65165 -2.65165 
C 1.948425 -3.354876 0.994512 -3.75 0 -3.75 
C -0.994512 -3.75 -1.948425 -3.354876 -2.65165 -2.65165 
C -3.354876 -1.948425 -3.75 -0.994512 -3.75 0 
C -3.75 0.994512 -3.354876 1.948425 -2.65165 2.65165 
C -1.948425 3.354876 -0.994512 3.75 0 3.75 
z
" style="stroke: #333333"/>
     </defs>
     <g>
      <use xlink:href="#m0624b05f8a" x="231.520041" y="25.876781" style="fill: #f2f2f2; stroke: #333333"/>
     </g>
    </g>
    <g id="text_18">
     <text style="font-size: 8.2px; font-family: 'DejaVu Sans', 'Bitstream Vera Sans', 'Computer Modern Sans Serif', 'Lucida Grande', 'Verdana', 'Geneva', 'Lucid', 'Arial', 'Helvetica', 'Avant Garde', sans-serif; text-anchor: start" x="243.410041" y="28.746781" transform="rotate(-0 243.410041 28.746781)">grilla base</text>
    </g>
    <g id="line2d_27">
     <defs>
      <path id="m72aab38d28" d="M 0 -3.75 
L -3.75 3.75 
L 3.75 3.75 
z
" style="stroke: #333333; stroke-linejoin: miter"/>
     </defs>
     <g>
      <use xlink:href="#m72aab38d28" x="302.400073" y="13.840719" style="fill: #f2f2f2; stroke: #333333; stroke-linejoin: miter"/>
     </g>
    </g>
    <g id="text_19">
     <text style="font-size: 8.2px; font-family: 'DejaVu Sans', 'Bitstream Vera Sans', 'Computer Modern Sans Serif', 'Lucida Grande', 'Verdana', 'Geneva', 'Lucid', 'Arial', 'Helvetica', 'Avant Garde', sans-serif; text-anchor: start" x="314.290073" y="16.710719" transform="rotate(-0 314.290073 16.710719)">probe fino</text>
    </g>
    <g id="line2d_28">
     <defs>
      <path id="mc764dd8dd5" d="M 0 5.303301 
L 5.303301 0 
L 0 -5.303301 
L -5.303301 0 
z
" style="stroke: #333333; stroke-linejoin: miter"/>
     </defs>
     <g>
      <use xlink:href="#mc764dd8dd5" x="302.400073" y="25.876781" style="fill: #f2f2f2; stroke: #333333; stroke-linejoin: miter"/>
     </g>
    </g>
    <g id="text_20">
     <text style="font-size: 8.2px; font-family: 'DejaVu Sans', 'Bitstream Vera Sans', 'Computer Modern Sans Serif', 'Lucida Grande', 'Verdana', 'Geneva', 'Lucid', 'Arial', 'Helvetica', 'Avant Garde', sans-serif; text-anchor: start" x="314.290073" y="28.746781" transform="rotate(-0 314.290073 28.746781)">refinamiento frontera</text>
    </g>
    <g id="line2d_29">
     <defs>
      <path id="m5b1e17ae48" d="M -1.875 3.75 
L 0 1.875 
L 1.875 3.75 
L 3.75 1.875 
L 1.875 0 
L 3.75 -1.875 
L 1.875 -3.75 
L 0 -1.875 
L -1.875 -3.75 
L -3.75 -1.875 
L -1.875 0 
L -3.75 1.875 
z
" style="stroke: #333333; stroke-linejoin: miter"/>
     </defs>
     <g>
      <use xlink:href="#m5b1e17ae48" x="418.597916" y="13.840719" style="fill: #f2f2f2; stroke: #333333; stroke-linejoin: miter"/>
     </g>
    </g>
    <g id="text_21">
     <text style="font-size: 8.2px; font-family: 'DejaVu Sans', 'Bitstream Vera Sans', 'Computer Modern Sans Serif', 'Lucida Grande', 'Verdana', 'Geneva', 'Lucid', 'Arial', 'Helvetica', 'Avant Garde', sans-serif; text-anchor: start" x="430.487916" y="16.710719" transform="rotate(-0 430.487916 16.710719)">repeticion</text>
    </g>
    <g id="line2d_30">
     <path d="M 410.397916 25.876781 
L 418.597916 25.876781 
L 426.797916 25.876781 
" style="fill: none; stroke-dasharray: 5.18,2.24; stroke-dashoffset: 0; stroke: #000000; stroke-width: 1.4"/>
    </g>
    <g id="text_22">
     <text style="font-size: 8.2px; font-family: 'DejaVu Sans', 'Bitstream Vera Sans', 'Computer Modern Sans Serif', 'Lucida Grande', 'Verdana', 'Geneva', 'Lucid', 'Arial', 'Helvetica', 'Avant Garde', sans-serif; text-anchor: start" x="430.487916" y="28.746781" transform="rotate(-0 430.487916 28.746781)">umbral 5.02 mm</text>
    </g>
   </g>
  </g>
 </g>
 <defs>
  <clipPath id="pb56b4e8b3e">
   <rect x="40.069031" y="61.539931" width="573.130489" height="283.999656"/>
  </clipPath>
 </defs>
</svg>
