<?xml version="1.0" encoding="utf-8" standalone="no"?>
<!DOCTYPE svg PUBLIC "-//W3C//DTD SVG 1.1//EN"
  "http://www.w3.org/Graphics/SVG/1.1/DTD/svg11.dtd">
<svg xmlns:xlink="http://www.w3.org/1999/xlink" width="613.19952pt" height="368.39952pt" viewBox="0 0 613.19952 368.39952" xmlns="http://www.w3.org/2000/svg" version="1.1">
 <metadata>
  <rdf:RDF xmlns:dc="http://purl.org/dc/elements/1.1/" xmlns:cc="http://creativecommons.org/ns#" xmlns:rdf="http://www.w3.org/1999/02/22-rdf-syntax-ns#">
   <cc:Work>
    <dc:type rdf:resource="http://purl.org/dc/dcmitype/StillImage"/>
    <dc:date>2026-05-14T23:19:36.918977</dc:date>
    <dc:format>image/svg+xml</dc:format>
    <dc:creator>
     <cc:Agent>
      <dc:title>Matplotlib v3.10.8, https://matplotlib.org/</dc:title>
     </cc:Agent>
    </dc:creator>
   </cc:Work>
  </rdf:RDF>
 </metadata>
 <defs>
  <style type="text/css">*{stroke-linejoin: round; stroke-linecap: butt}</style>
 </defs>
 <g id="figure_1">
  <g id="patch_1">
   <path d="M 0 368.39952 
L 613.19952 368.39952 
L 613.19952 0 
L 0 0 
z
" style="fill: #ffffff"/>
  </g>
  <g id="axes_1">
   <g id="patch_2">
    <path d="M 54.699906 331.133614 
L 605.99952 331.133614 
L 605.99952 22.698047 
L 54.699906 22.698047 
z
" style="fill: #ffffff"/>
   </g>
   <g id="matplotlib.axis_1">
    <g id="xtick_1">
     <g id="line2d_1">
      <path d="M 585.581016 331.133614 
L 585.581016 22.698047 
" clip-path="url(#pe828949a55)" style="fill: none; stroke: #b0b0b0; stroke-opacity: 0.18; stroke-width: 0.7; stroke-linecap: round"/>
     </g>
     <g id="line2d_2">
      <defs>
       <path id="m87e0d09c72" d="M 0 0 
L 0 3.5 
" style="stroke: #333333; stroke-width: 0.8"/>
      </defs>
      <g>
       <use xlink:href="#m87e0d09c72" x="585.581016" y="331.133614" style="fill: #333333; stroke: #333333; stroke-width: 0.8"/>
      </g>
     </g>
     <g id="text_1">
      <text style="font-size: 9.2px; font-family: 'DejaVu Sans', 'Bitstream Vera Sans', 'Computer Modern Sans Serif', 'Lucida Grande', 'Verdana', 'Geneva', 'Lucid', 'Arial', 'Helvetica', 'Avant Garde', sans-serif; text-anchor: middle; fill: #333333" x="585.581016" y="345.124176" transform="rotate(-0 585.581016 345.124176)">0.0020</text>
     </g>
    </g>
    <g id="xtick_2">
     <g id="line2d_3">
      <path d="M 500.503915 331.133614 
L 500.503915 22.698047 
" clip-path="url(#pe828949a55)" style="fill: none; stroke: #b0b0b0; stroke-opacity: 0.18; stroke-width: 0.7; stroke-linecap: round"/>
     </g>
     <g id="line2d_4">
      <g>
       <use xlink:href="#m87e0d09c72" x="500.503915" y="331.133614" style="fill: #333333; stroke: #333333; stroke-width: 0.8"/>
      </g>
     </g>
     <g id="text_2">
      <text style="font-size: 9.2px; font-family: 'DejaVu Sans', 'Bitstream Vera Sans', 'Computer Modern Sans Serif', 'Lucida Grande', 'Verdana', 'Geneva', 'Lucid', 'Arial', 'Helvetica', 'Avant Garde', sans-serif; text-anchor: middle; fill: #333333" x="500.503915" y="345.124176" transform="rotate(-0 500.503915 345.124176)">0.0025</text>
     </g>
    </g>
    <g id="xtick_3">
     <g id="line2d_5">
      <path d="M 415.426814 331.133614 
L 415.426814 22.698047 
" clip-path="url(#pe828949a55)" style="fill: none; stroke: #b0b0b0; stroke-opacity: 0.18; stroke-width: 0.7; stroke-linecap: round"/>
     </g>
     <g id="line2d_6">
      <g>
       <use xlink:href="#m87e0d09c72" x="415.426814" y="331.133614" style="fill: #333333; stroke: #333333; stroke-width: 0.8"/>
      </g>
     </g>
     <g id="text_3">
      <text style="font-size: 9.2px; font-family: 'DejaVu Sans', 'Bitstream Vera Sans', 'Computer Modern Sans Serif', 'Lucida Grande', 'Verdana', 'Geneva', 'Lucid', 'Arial', 'Helvetica', 'Avant Garde', sans-serif; text-anchor: middle; fill: #333333" x="415.426814" y="345.124176" transform="rotate(-0 415.426814 345.124176)">0.0030</text>
     </g>
    </g>
    <g id="xtick_4">
     <g id="line2d_7">
      <path d="M 330.349713 331.133614 
L 330.349713 22.698047 
" clip-path="url(#pe828949a55)" style="fill: none; stroke: #b0b0b0; stroke-opacity: 0.18; stroke-width: 0.7; stroke-linecap: round"/>
     </g>
     <g id="line2d_8">
      <g>
       <use xlink:href="#m87e0d09c72" x="330.349713" y="331.133614" style="fill: #333333; stroke: #333333; stroke-width: 0.8"/>
      </g>
     </g>
     <g id="text_4">
      <text style="font-size: 9.2px; font-family: 'DejaVu Sans', 'Bitstream Vera Sans', 'Computer Modern Sans Serif', 'Lucida Grande', 'Verdana', 'Geneva', 'Lucid', 'Arial', 'Helvetica', 'Avant Garde', sans-serif; text-anchor: middle; fill: #333333" x="330.349713" y="345.124176" transform="rotate(-0 330.349713 345.124176)">0.0035</text>
     </g>
    </g>
    <g id="xtick_5">
     <g id="line2d_9">
      <path d="M 245.272612 331.133614 
L 245.272612 22.698047 
" clip-path="url(#pe828949a55)" style="fill: none; stroke: #b0b0b0; stroke-opacity: 0.18; stroke-width: 0.7; stroke-linecap: round"/>
     </g>
     <g id="line2d_10">
      <g>
       <use xlink:href="#m87e0d09c72" x="245.272612" y="331.133614" style="fill: #333333; stroke: #333333; stroke-width: 0.8"/>
      </g>
     </g>
     <g id="text_5">
      <text style="font-size: 9.2px; font-family: 'DejaVu Sans', 'Bitstream Vera Sans', 'Computer Modern Sans Serif', 'Lucida Grande', 'Verdana', 'Geneva', 'Lucid', 'Arial', 'Helvetica', 'Avant Garde', sans-serif; text-anchor: middle; fill: #333333" x="245.272612" y="345.124176" transform="rotate(-0 245.272612 345.124176)">0.0040</text>
     </g>
    </g>
    <g id="xtick_6">
     <g id="line2d_11">
      <path d="M 160.195511 331.133614 
L 160.195511 22.698047 
" clip-path="url(#pe828949a55)" style="fill: none; stroke: #b0b0b0; stroke-opacity: 0.18; stroke-width: 0.7; stroke-linecap: round"/>
     </g>
     <g id="line2d_12">
      <g>
       <use xlink:href="#m87e0d09c72" x="160.195511" y="331.133614" style="fill: #333333; stroke: #333333; stroke-width: 0.8"/>
      </g>
     </g>
     <g id="text_6">
      <text style="font-size: 9.2px; font-family: 'DejaVu Sans', 'Bitstream Vera Sans', 'Computer Modern Sans Serif', 'Lucida Grande', 'Verdana', 'Geneva', 'Lucid', 'Arial', 'Helvetica', 'Avant Garde', sans-serif; text-anchor: middle; fill: #333333" x="160.195511" y="345.124176" transform="rotate(-0 160.195511 345.124176)">0.0045</text>
     </g>
    </g>
    <g id="xtick_7">
     <g id="line2d_13">
      <path d="M 75.11841 331.133614 
L 75.11841 22.698047 
" clip-path="url(#pe828949a55)" style="fill: none; stroke: #b0b0b0; stroke-opacity: 0.18; stroke-width: 0.7; stroke-linecap: round"/>
     </g>
     <g id="line2d_14">
      <g>
       <use xlink:href="#m87e0d09c72" x="75.11841" y="331.133614" style="fill: #333333; stroke: #333333; stroke-width: 0.8"/>
      </g>
     </g>
     <g id="text_7">
      <text style="font-size: 9.2px; font-family: 'DejaVu Sans', 'Bitstream Vera Sans', 'Computer Modern Sans Serif', 'Lucida Grande', 'Verdana', 'Geneva', 'Lucid', 'Arial', 'Helvetica', 'Avant Garde', sans-serif; text-anchor: middle; fill: #333333" x="75.11841" y="345.124176" transform="rotate(-0 75.11841 345.124176)">0.0050</text>
     </g>
    </g>
    <g id="text_8">
     <text style="font-size: 10.5px; font-family: 'DejaVu Sans', 'Bitstream Vera Sans', 'Computer Modern Sans Serif', 'Lucida Grande', 'Verdana', 'Geneva', 'Lucid', 'Arial', 'Helvetica', 'Avant Garde', sans-serif; text-anchor: middle; fill: #222222" x="330.349713" y="359.015848" transform="rotate(-0 330.349713 359.015848)">dp [m] (mas fino hacia la derecha)</text>
    </g>
   </g>
   <g id="matplotlib.axis_2">
    <g id="ytick_1">
     <g id="line2d_15">
      <path d="M 54.699906 300.485649 
L 605.99952 300.485649 
" clip-path="url(#pe828949a55)" style="fill: none; stroke: #b0b0b0; stroke-opacity: 0.18; stroke-width: 0.7; stroke-linecap: round"/>
     </g>
     <g id="line2d_16">
      <defs>
       <path id="m972ba76137" d="M 0 0 
L -3.5 0 
" style="stroke: #333333; stroke-width: 0.8"/>
      </defs>
      <g>
       <use xlink:href="#m972ba76137" x="54.699906" y="300.485649" style="fill: #333333; stroke: #333333; stroke-width: 0.8"/>
      </g>
     </g>
     <g id="text_9">
      <text style="font-size: 9.2px; font-family: 'DejaVu Sans', 'Bitstream Vera Sans', 'Computer Modern Sans Serif', 'Lucida Grande', 'Verdana', 'Geneva', 'Lucid', 'Arial', 'Helvetica', 'Avant Garde', sans-serif; text-anchor: end; fill: #333333" x="47.699906" y="303.98093" transform="rotate(-0 47.699906 303.98093)">0.002</text>
     </g>
    </g>
    <g id="ytick_2">
     <g id="line2d_17">
      <path d="M 54.699906 240.057045 
L 605.99952 240.057045 
" clip-path="url(#pe828949a55)" style="fill: none; stroke: #b0b0b0; stroke-opacity: 0.18; stroke-width: 0.7; stroke-linecap: round"/>
     </g>
     <g id="line2d_18">
      <g>
       <use xlink:href="#m972ba76137" x="54.699906" y="240.057045" style="fill: #333333; stroke: #333333; stroke-width: 0.8"/>
      </g>
     </g>
     <g id="text_10">
      <text style="font-size: 9.2px; font-family: 'DejaVu Sans', 'Bitstream Vera Sans', 'Computer Modern Sans Serif', 'Lucida Grande', 'Verdana', 'Geneva', 'Lucid', 'Arial', 'Helvetica', 'Avant Garde', sans-serif; text-anchor: end; fill: #333333" x="47.699906" y="243.552327" transform="rotate(-0 47.699906 243.552327)">0.004</text>
     </g>
    </g>
    <g id="ytick_3">
     <g id="line2d_19">
      <path d="M 54.699906 179.628442 
L 605.99952 179.628442 
" clip-path="url(#pe828949a55)" style="fill: none; stroke: #b0b0b0; stroke-opacity: 0.18; stroke-width: 0.7; stroke-linecap: round"/>
     </g>
     <g id="line2d_20">
      <g>
       <use xlink:href="#m972ba76137" x="54.699906" y="179.628442" style="fill: #333333; stroke: #333333; stroke-width: 0.8"/>
      </g>
     </g>
     <g id="text_11">
      <text style="font-size: 9.2px; font-family: 'DejaVu Sans', 'Bitstream Vera Sans', 'Computer Modern Sans Serif', 'Lucida Grande', 'Verdana', 'Geneva', 'Lucid', 'Arial', 'Helvetica', 'Avant Garde', sans-serif; text-anchor: end; fill: #333333" x="47.699906" y="183.123723" transform="rotate(-0 47.699906 183.123723)">0.006</text>
     </g>
    </g>
    <g id="ytick_4">
     <g id="line2d_21">
      <path d="M 54.699906 119.199839 
L 605.99952 119.199839 
" clip-path="url(#pe828949a55)" style="fill: none; stroke: #b0b0b0; stroke-opacity: 0.18; stroke-width: 0.7; stroke-linecap: round"/>
     </g>
     <g id="line2d_22">
      <g>
       <use xlink:href="#m972ba76137" x="54.699906" y="119.199839" style="fill: #333333; stroke: #333333; stroke-width: 0.8"/>
      </g>
     </g>
     <g id="text_12">
      <text style="font-size: 9.2px; font-family: 'DejaVu Sans', 'Bitstream Vera Sans', 'Computer Modern Sans Serif', 'Lucida Grande', 'Verdana', 'Geneva', 'Lucid', 'Arial', 'Helvetica', 'Avant Garde', sans-serif; text-anchor: end; fill: #333333" x="47.699906" y="122.69512" transform="rotate(-0 47.699906 122.69512)">0.008</text>
     </g>
    </g>
    <g id="ytick_5">
     <g id="line2d_23">
      <path d="M 54.699906 58.771235 
L 605.99952 58.771235 
" clip-path="url(#pe828949a55)" style="fill: none; stroke: #b0b0b0; stroke-opacity: 0.18; stroke-width: 0.7; stroke-linecap: round"/>
     </g>
     <g id="line2d_24">
      <g>
       <use xlink:href="#m972ba76137" x="54.699906" y="58.771235" style="fill: #333333; stroke: #333333; stroke-width: 0.8"/>
      </g>
     </g>
     <g id="text_13">
      <text style="font-size: 9.2px; font-family: 'DejaVu Sans', 'Bitstream Vera Sans', 'Computer Modern Sans Serif', 'Lucida Grande', 'Verdana', 'Geneva', 'Lucid', 'Arial', 'Helvetica', 'Avant Garde', sans-serif; text-anchor: end; fill: #333333" x="47.699906" y="62.266516" transform="rotate(-0 47.699906 62.266516)">0.010</text>
     </g>
    </g>
    <g id="text_14">
     <text style="font-size: 10.5px; font-family: 'DejaVu Sans', 'Bitstream Vera Sans', 'Computer Modern Sans Serif', 'Lucida Grande', 'Verdana', 'Geneva', 'Lucid', 'Arial', 'Helvetica', 'Avant Garde', sans-serif; text-anchor: middle; fill: #222222" x="15.178359" y="176.91583" transform="rotate(-90 15.178359 176.91583)">Desplazamiento [m]</text>
    </g>
   </g>
   <g id="line2d_25">
    <path d="M 75.11841 219.169972 
L 245.272612 79.534683 
L 415.426814 179.157466 
L 585.581016 292.500386 
" clip-path="url(#pe828949a55)" style="fill: none; stroke: #1f77b4; stroke-width: 1.8; stroke-linecap: round"/>
    <defs>
     <path id="m58b89d6343" d="M 0 3 
C 0.795609 3 1.55874 2.683901 2.12132 2.12132 
C 2.683901 1.55874 3 0.795609 3 0 
C 3 -0.795609 2.683901 -1.55874 2.12132 -2.12132 
C 1.55874 -2.683901 0.795609 -3 0 -3 
C -0.795609 -3 -1.55874 -2.683901 -2.12132 -2.12132 
C -2.683901 -1.55874 -3 -0.795609 -3 0 
C -3 0.795609 -2.683901 1.55874 -2.12132 2.12132 
C -1.55874 2.683901 -0.795609 3 0 3 
z
" style="stroke: #1f77b4"/>
    </defs>
    <g clip-path="url(#pe828949a55)">
     <use xlink:href="#m58b89d6343" x="75.11841" y="219.169972" style="fill: #1f77b4; stroke: #1f77b4"/>
     <use xlink:href="#m58b89d6343" x="245.272612" y="79.534683" style="fill: #1f77b4; stroke: #1f77b4"/>
     <use xlink:href="#m58b89d6343" x="415.426814" y="179.157466" style="fill: #1f77b4; stroke: #1f77b4"/>
     <use xlink:href="#m58b89d6343" x="585.581016" y="292.500386" style="fill: #1f77b4; stroke: #1f77b4"/>
    </g>
   </g>
   <g id="line2d_26">
    <path d="M 75.11841 201.829791 
L 245.272612 154.88753 
L 415.426814 115.529977 
L 585.581016 260.317006 
" clip-path="url(#pe828949a55)" style="fill: none; stroke: #ff7f0e; stroke-width: 1.8; stroke-linecap: round"/>
    <defs>
     <path id="m44e6679015" d="M 0 3 
C 0.795609 3 1.55874 2.683901 2.12132 2.12132 
C 2.683901 1.55874 3 0.795609 3 0 
C 3 -0.795609 2.683901 -1.55874 2.12132 -2.12132 
C 1.55874 -2.683901 0.795609 -3 0 -3 
C -0.795609 -3 -1.55874 -2.683901 -2.12132 -2.12132 
C -2.683901 -1.55874 -3 -0.795609 -3 0 
C -3 0.795609 -2.683901 1.55874 -2.12132 2.12132 
C -1.55874 2.683901 -0.795609 3 0 3 
z
" style="stroke: #ff7f0e"/>
    </defs>
    <g clip-path="url(#pe828949a55)">
     <use xlink:href="#m44e6679015" x="75.11841" y="201.829791" style="fill: #ff7f0e; stroke: #ff7f0e"/>
     <use xlink:href="#m44e6679015" x="245.272612" y="154.88753" style="fill: #ff7f0e; stroke: #ff7f0e"/>
     <use xlink:href="#m44e6679015" x="415.426814" y="115.529977" style="fill: #ff7f0e; stroke: #ff7f0e"/>
     <use xlink:href="#m44e6679015" x="585.581016" y="260.317006" style="fill: #ff7f0e; stroke: #ff7f0e"/>
    </g>
   </g>
   <g id="line2d_27">
    <path d="M 75.11841 180.645681 
L 245.272612 138.399221 
L 415.426814 231.104818 
L 585.581016 305.43065 
" clip-path="url(#pe828949a55)" style="fill: none; stroke: #2ca02c; stroke-width: 1.8; stroke-linecap: round"/>
    <defs>
     <path id="mf3973679fd" d="M 0 3 
C 0.795609 3 1.55874 2.683901 2.12132 2.12132 
C 2.683901 1.55874 3 0.795609 3 0 
C 3 -0.795609 2.683901 -1.55874 2.12132 -2.12132 
C 1.55874 -2.683901 0.795609 -3 0 -3 
C -0.795609 -3 -1.55874 -2.683901 -2.12132 -2.12132 
C -2.683901 -1.55874 -3 -0.795609 -3 0 
C -3 0.795609 -2.683901 1.55874 -2.12132 2.12132 
C -1.55874 2.683901 -0.795609 3 0 3 
z
" style="stroke: #2ca02c"/>
    </defs>
    <g clip-path="url(#pe828949a55)">
     <use xlink:href="#mf3973679fd" x="75.11841" y="180.645681" style="fill: #2ca02c; stroke: #2ca02c"/>
     <use xlink:href="#mf3973679fd" x="245.272612" y="138.399221" style="fill: #2ca02c; stroke: #2ca02c"/>
     <use xlink:href="#mf3973679fd" x="415.426814" y="231.104818" style="fill: #2ca02c; stroke: #2ca02c"/>
     <use xlink:href="#mf3973679fd" x="585.581016" y="305.43065" style="fill: #2ca02c; stroke: #2ca02c"/>
    </g>
   </g>
   <g id="line2d_28">
    <path d="M 75.11841 200.039526 
L 245.272612 48.401011 
L 415.426814 246.175224 
L 585.581016 301.112302 
" clip-path="url(#pe828949a55)" style="fill: none; stroke: #d62728; stroke-width: 1.8; stroke-linecap: round"/>
    <defs>
     <path id="m568d847288" d="M 0 3 
C 0.795609 3 1.55874 2.683901 2.12132 2.12132 
C 2.683901 1.55874 3 0.795609 3 0 
C 3 -0.795609 2.683901 -1.55874 2.12132 -2.12132 
C 1.55874 -2.683901 0.795609 -3 0 -3 
C -0.795609 -3 -1.55874 -2.683901 -2.12132 -2.12132 
C -2.683901 -1.55874 -3 -0.795609 -3 0 
C -3 0.795609 -2.683901 1.55874 -2.12132 2.12132 
C -1.55874 2.683901 -0.795609 3 0 3 
z
" style="stroke: #d62728"/>
    </defs>
    <g clip-path="url(#pe828949a55)">
     <use xlink:href="#m568d847288" x="75.11841" y="200.039526" style="fill: #d62728; stroke: #d62728"/>
     <use xlink:href="#m568d847288" x="245.272612" y="48.401011" style="fill: #d62728; stroke: #d62728"/>
     <use xlink:href="#m568d847288" x="415.426814" y="246.175224" style="fill: #d62728; stroke: #d62728"/>
     <use xlink:href="#m568d847288" x="585.581016" y="301.112302" style="fill: #d62728; stroke: #d62728"/>
    </g>
   </g>
   <g id="patch_3">
    <path d="M 54.699906 331.133614 
L 54.699906 22.698047 
" style="fill: none; stroke: #444444; stroke-width: 0.8; stroke-linejoin: miter; stroke-linecap: square"/>
   </g>
   <g id="patch_4">
    <path d="M 54.699906 331.133614 
L 605.99952 331.133614 
" style="fill: none; stroke: #444444; stroke-width: 0.8; stroke-linejoin: miter; stroke-linecap: square"/>
   </g>
   <g id="text_15">
    <text style="font-weight: 700; font-size: 12.5px; font-family: 'DejaVu Sans', 'Bitstream Vera Sans', 'Computer Modern Sans Serif', 'Lucida Grande', 'Verdana', 'Geneva', 'Lucid', 'Arial', 'Helvetica', 'Avant Garde', sans-serif; text-anchor: middle" x="330.349713" y="16.698047" transform="rotate(-0 330.349713 16.698047)">Desplazamiento absoluto por dp</text>
   </g>
   <g id="legend_1">
    <g id="patch_5">
     <path d="M 447.598582 53.330172 
L 600.25952 53.330172 
Q 601.89952 53.330172 601.89952 51.690172 
L 601.89952 28.438047 
Q 601.89952 26.798047 600.25952 26.798047 
L 447.598582 26.798047 
Q 445.958582 26.798047 445.958582 28.438047 
L 445.958582 51.690172 
Q 445.958582 53.330172 447.598582 53.330172 
z
" style="fill: #ffffff; opacity: 0.96; stroke: #d5d5d5; stroke-width: 0.6; stroke-linejoin: miter"/>
    </g>
    <g id="line2d_29">
     <path d="M 449.238582 33.438766 
L 457.438582 33.438766 
L 465.638582 33.438766 
" style="fill: none; stroke: #1f77b4; stroke-width: 1.8; stroke-linecap: round"/>
     <g>
      <use xlink:href="#m58b89d6343" x="457.438582" y="33.438766" style="fill: #1f77b4; stroke: #1f77b4"/>
     </g>
    </g>
    <g id="text_16">
     <text style="font-size: 8.2px; font-family: 'DejaVu Sans', 'Bitstream Vera Sans', 'Computer Modern Sans Serif', 'Lucida Grande', 'Verdana', 'Geneva', 'Lucid', 'Arial', 'Helvetica', 'Avant Garde', sans-serif; text-anchor: start" x="472.198582" y="36.308766" transform="rotate(-0 472.198582 36.308766)">mu=0.675</text>
    </g>
    <g id="line2d_30">
     <path d="M 449.238582 45.474828 
L 457.438582 45.474828 
L 465.638582 45.474828 
" style="fill: none; stroke: #ff7f0e; stroke-width: 1.8; stroke-linecap: round"/>
     <g>
      <use xlink:href="#m44e6679015" x="457.438582" y="45.474828" style="fill: #ff7f0e; stroke: #ff7f0e"/>
     </g>
    </g>
    <g id="text_17">
     <text style="font-size: 8.2px; font-family: 'DejaVu Sans', 'Bitstream Vera Sans', 'Computer Modern Sans Serif', 'Lucida Grande', 'Verdana', 'Geneva', 'Lucid', 'Arial', 'Helvetica', 'Avant Garde', sans-serif; text-anchor: start" x="472.198582" y="48.344828" transform="rotate(-0 472.198582 48.344828)">mu=0.680</text>
    </g>
    <g id="line2d_31">
     <path d="M 532.129051 33.438766 
L 540.329051 33.438766 
L 548.529051 33.438766 
" style="fill: none; stroke: #2ca02c; stroke-width: 1.8; stroke-linecap: round"/>
     <g>
      <use xlink:href="#mf3973679fd" x="540.329051" y="33.438766" style="fill: #2ca02c; stroke: #2ca02c"/>
     </g>
    </g>
    <g id="text_18">
     <text style="font-size: 8.2px; font-family: 'DejaVu Sans', 'Bitstream Vera Sans', 'Computer Modern Sans Serif', 'Lucida Grande', 'Verdana', 'Geneva', 'Lucid', 'Arial', 'Helvetica', 'Avant Garde', sans-serif; text-anchor: start" x="555.089051" y="36.308766" transform="rotate(-0 555.089051 36.308766)">mu=0.681</text>
    </g>
    <g id="line2d_32">
     <path d="M 532.129051 45.474828 
L 540.329051 45.474828 
L 548.529051 45.474828 
" style="fill: none; stroke: #d62728; stroke-width: 1.8; stroke-linecap: round"/>
     <g>
      <use xlink:href="#m568d847288" x="540.329051" y="45.474828" style="fill: #d62728; stroke: #d62728"/>
     </g>
    </g>
    <g id="text_19">
     <text style="font-size: 8.2px; font-family: 'DejaVu Sans', 'Bitstream Vera Sans', 'Computer Modern Sans Serif', 'Lucida Grande', 'Verdana', 'Geneva', 'Lucid', 'Arial', 'Helvetica', 'Avant Garde', sans-serif; text-anchor: start" x="555.089051" y="48.344828" transform="rotate(-0 555.089051 48.344828)">mu=0.685</text>
    </g>
   </g>
  </g>
 </g>
 <defs>
  <clipPath id="pe828949a55">
   <rect x="54.699906" y="22.698047" width="551.299614" height="308.435567"/>
  </clipPath>
 </defs>
</svg>
