<?xml version="1.0" encoding="utf-8" standalone="no"?>
<!DOCTYPE svg PUBLIC "-//W3C//DTD SVG 1.1//EN"
  "http://www.w3.org/Graphics/SVG/1.1/DTD/svg11.dtd">
<svg xmlns:xlink="http://www.w3.org/1999/xlink" width="613.19952pt" height="368.39952pt" viewBox="0 0 613.19952 368.39952" xmlns="http://www.w3.org/2000/svg" version="1.1">
 <metadata>
  <rdf:RDF xmlns:dc="http://purl.org/dc/elements/1.1/" xmlns:cc="http://creativecommons.org/ns#" xmlns:rdf="http://www.w3.org/1999/02/22-rdf-syntax-ns#">
   <cc:Work>
    <dc:type rdf:resource="http://purl.org/dc/dcmitype/StillImage"/>
    <dc:date>2026-05-14T23:19:37.105980</dc:date>
    <dc:format>image/svg+xml</dc:format>
    <dc:creator>
     <cc:Agent>
      <dc:title>Matplotlib v3.10.8, https://matplotlib.org/</dc:title>
     </cc:Agent>
    </dc:creator>
   </cc:Work>
  </rdf:RDF>
 </metadata>
 <defs>
  <style type="text/css">*{stroke-linejoin: round; stroke-linecap: butt}</style>
 </defs>
 <g id="figure_1">
  <g id="patch_1">
   <path d="M 0 368.39952 
L 613.19952 368.39952 
L 613.19952 0 
L 0 0 
z
" style="fill: #ffffff"/>
  </g>
  <g id="axes_1">
   <g id="patch_2">
    <path d="M 34.215531 331.133614 
L 605.99952 331.133614 
L 605.99952 22.698047 
L 34.215531 22.698047 
z
" style="fill: #ffffff"/>
   </g>
   <g id="matplotlib.axis_1">
    <g id="xtick_1">
     <g id="line2d_1">
      <path d="M 584.822335 331.133614 
L 584.822335 22.698047 
" clip-path="url(#p9612b838aa)" style="fill: none; stroke: #b0b0b0; stroke-opacity: 0.18; stroke-width: 0.7; stroke-linecap: round"/>
     </g>
     <g id="line2d_2">
      <defs>
       <path id="m7a751f2247" d="M 0 0 
L 0 3.5 
" style="stroke: #333333; stroke-width: 0.8"/>
      </defs>
      <g>
       <use xlink:href="#m7a751f2247" x="584.822335" y="331.133614" style="fill: #333333; stroke: #333333; stroke-width: 0.8"/>
      </g>
     </g>
     <g id="text_1">
      <text style="font-size: 9.2px; font-family: 'DejaVu Sans', 'Bitstream Vera Sans', 'Computer Modern Sans Serif', 'Lucida Grande', 'Verdana', 'Geneva', 'Lucid', 'Arial', 'Helvetica', 'Avant Garde', sans-serif; text-anchor: middle; fill: #333333" x="584.822335" y="345.124176" transform="rotate(-0 584.822335 345.124176)">0.0020</text>
     </g>
    </g>
    <g id="xtick_2">
     <g id="line2d_3">
      <path d="M 496.584065 331.133614 
L 496.584065 22.698047 
" clip-path="url(#p9612b838aa)" style="fill: none; stroke: #b0b0b0; stroke-opacity: 0.18; stroke-width: 0.7; stroke-linecap: round"/>
     </g>
     <g id="line2d_4">
      <g>
       <use xlink:href="#m7a751f2247" x="496.584065" y="331.133614" style="fill: #333333; stroke: #333333; stroke-width: 0.8"/>
      </g>
     </g>
     <g id="text_2">
      <text style="font-size: 9.2px; font-family: 'DejaVu Sans', 'Bitstream Vera Sans', 'Computer Modern Sans Serif', 'Lucida Grande', 'Verdana', 'Geneva', 'Lucid', 'Arial', 'Helvetica', 'Avant Garde', sans-serif; text-anchor: middle; fill: #333333" x="496.584065" y="345.124176" transform="rotate(-0 496.584065 345.124176)">0.0025</text>
     </g>
    </g>
    <g id="xtick_3">
     <g id="line2d_5">
      <path d="M 408.345795 331.133614 
L 408.345795 22.698047 
" clip-path="url(#p9612b838aa)" style="fill: none; stroke: #b0b0b0; stroke-opacity: 0.18; stroke-width: 0.7; stroke-linecap: round"/>
     </g>
     <g id="line2d_6">
      <g>
       <use xlink:href="#m7a751f2247" x="408.345795" y="331.133614" style="fill: #333333; stroke: #333333; stroke-width: 0.8"/>
      </g>
     </g>
     <g id="text_3">
      <text style="font-size: 9.2px; font-family: 'DejaVu Sans', 'Bitstream Vera Sans', 'Computer Modern Sans Serif', 'Lucida Grande', 'Verdana', 'Geneva', 'Lucid', 'Arial', 'Helvetica', 'Avant Garde', sans-serif; text-anchor: middle; fill: #333333" x="408.345795" y="345.124176" transform="rotate(-0 408.345795 345.124176)">0.0030</text>
     </g>
    </g>
    <g id="xtick_4">
     <g id="line2d_7">
      <path d="M 320.107526 331.133614 
L 320.107526 22.698047 
" clip-path="url(#p9612b838aa)" style="fill: none; stroke: #b0b0b0; stroke-opacity: 0.18; stroke-width: 0.7; stroke-linecap: round"/>
     </g>
     <g id="line2d_8">
      <g>
       <use xlink:href="#m7a751f2247" x="320.107526" y="331.133614" style="fill: #333333; stroke: #333333; stroke-width: 0.8"/>
      </g>
     </g>
     <g id="text_4">
      <text style="font-size: 9.2px; font-family: 'DejaVu Sans', 'Bitstream Vera Sans', 'Computer Modern Sans Serif', 'Lucida Grande', 'Verdana', 'Geneva', 'Lucid', 'Arial', 'Helvetica', 'Avant Garde', sans-serif; text-anchor: middle; fill: #333333" x="320.107526" y="345.124176" transform="rotate(-0 320.107526 345.124176)">0.0035</text>
     </g>
    </g>
    <g id="xtick_5">
     <g id="line2d_9">
      <path d="M 231.869256 331.133614 
L 231.869256 22.698047 
" clip-path="url(#p9612b838aa)" style="fill: none; stroke: #b0b0b0; stroke-opacity: 0.18; stroke-width: 0.7; stroke-linecap: round"/>
     </g>
     <g id="line2d_10">
      <g>
       <use xlink:href="#m7a751f2247" x="231.869256" y="331.133614" style="fill: #333333; stroke: #333333; stroke-width: 0.8"/>
      </g>
     </g>
     <g id="text_5">
      <text style="font-size: 9.2px; font-family: 'DejaVu Sans', 'Bitstream Vera Sans', 'Computer Modern Sans Serif', 'Lucida Grande', 'Verdana', 'Geneva', 'Lucid', 'Arial', 'Helvetica', 'Avant Garde', sans-serif; text-anchor: middle; fill: #333333" x="231.869256" y="345.124176" transform="rotate(-0 231.869256 345.124176)">0.0040</text>
     </g>
    </g>
    <g id="xtick_6">
     <g id="line2d_11">
      <path d="M 143.630986 331.133614 
L 143.630986 22.698047 
" clip-path="url(#p9612b838aa)" style="fill: none; stroke: #b0b0b0; stroke-opacity: 0.18; stroke-width: 0.7; stroke-linecap: round"/>
     </g>
     <g id="line2d_12">
      <g>
       <use xlink:href="#m7a751f2247" x="143.630986" y="331.133614" style="fill: #333333; stroke: #333333; stroke-width: 0.8"/>
      </g>
     </g>
     <g id="text_6">
      <text style="font-size: 9.2px; font-family: 'DejaVu Sans', 'Bitstream Vera Sans', 'Computer Modern Sans Serif', 'Lucida Grande', 'Verdana', 'Geneva', 'Lucid', 'Arial', 'Helvetica', 'Avant Garde', sans-serif; text-anchor: middle; fill: #333333" x="143.630986" y="345.124176" transform="rotate(-0 143.630986 345.124176)">0.0045</text>
     </g>
    </g>
    <g id="xtick_7">
     <g id="line2d_13">
      <path d="M 55.392716 331.133614 
L 55.392716 22.698047 
" clip-path="url(#p9612b838aa)" style="fill: none; stroke: #b0b0b0; stroke-opacity: 0.18; stroke-width: 0.7; stroke-linecap: round"/>
     </g>
     <g id="line2d_14">
      <g>
       <use xlink:href="#m7a751f2247" x="55.392716" y="331.133614" style="fill: #333333; stroke: #333333; stroke-width: 0.8"/>
      </g>
     </g>
     <g id="text_7">
      <text style="font-size: 9.2px; font-family: 'DejaVu Sans', 'Bitstream Vera Sans', 'Computer Modern Sans Serif', 'Lucida Grande', 'Verdana', 'Geneva', 'Lucid', 'Arial', 'Helvetica', 'Avant Garde', sans-serif; text-anchor: middle; fill: #333333" x="55.392716" y="345.124176" transform="rotate(-0 55.392716 345.124176)">0.0050</text>
     </g>
    </g>
    <g id="text_8">
     <text style="font-size: 10.5px; font-family: 'DejaVu Sans', 'Bitstream Vera Sans', 'Computer Modern Sans Serif', 'Lucida Grande', 'Verdana', 'Geneva', 'Lucid', 'Arial', 'Helvetica', 'Avant Garde', sans-serif; text-anchor: middle; fill: #222222" x="320.107526" y="359.015848" transform="rotate(-0 320.107526 359.015848)">dp [m] (mas fino hacia la derecha)</text>
    </g>
   </g>
   <g id="matplotlib.axis_2">
    <g id="ytick_1">
     <g id="line2d_15">
      <path d="M 34.215531 285.037847 
L 605.99952 285.037847 
" clip-path="url(#p9612b838aa)" style="fill: none; stroke: #b0b0b0; stroke-opacity: 0.18; stroke-width: 0.7; stroke-linecap: round"/>
     </g>
     <g id="line2d_16">
      <defs>
       <path id="me22bf36aaf" d="M 0 0 
L -3.5 0 
" style="stroke: #333333; stroke-width: 0.8"/>
      </defs>
      <g>
       <use xlink:href="#me22bf36aaf" x="34.215531" y="285.037847" style="fill: #333333; stroke: #333333; stroke-width: 0.8"/>
      </g>
     </g>
     <g id="text_9">
      <text style="font-size: 9.2px; font-family: 'DejaVu Sans', 'Bitstream Vera Sans', 'Computer Modern Sans Serif', 'Lucida Grande', 'Verdana', 'Geneva', 'Lucid', 'Arial', 'Helvetica', 'Avant Garde', sans-serif; text-anchor: end; fill: #333333" x="27.215531" y="288.533128" transform="rotate(-0 27.215531 288.533128)">4</text>
     </g>
    </g>
    <g id="ytick_2">
     <g id="line2d_17">
      <path d="M 34.215531 224.492708 
L 605.99952 224.492708 
" clip-path="url(#p9612b838aa)" style="fill: none; stroke: #b0b0b0; stroke-opacity: 0.18; stroke-width: 0.7; stroke-linecap: round"/>
     </g>
     <g id="line2d_18">
      <g>
       <use xlink:href="#me22bf36aaf" x="34.215531" y="224.492708" style="fill: #333333; stroke: #333333; stroke-width: 0.8"/>
      </g>
     </g>
     <g id="text_10">
      <text style="font-size: 9.2px; font-family: 'DejaVu Sans', 'Bitstream Vera Sans', 'Computer Modern Sans Serif', 'Lucida Grande', 'Verdana', 'Geneva', 'Lucid', 'Arial', 'Helvetica', 'Avant Garde', sans-serif; text-anchor: end; fill: #333333" x="27.215531" y="227.98799" transform="rotate(-0 27.215531 227.98799)">5</text>
     </g>
    </g>
    <g id="ytick_3">
     <g id="line2d_19">
      <path d="M 34.215531 163.94757 
L 605.99952 163.94757 
" clip-path="url(#p9612b838aa)" style="fill: none; stroke: #b0b0b0; stroke-opacity: 0.18; stroke-width: 0.7; stroke-linecap: round"/>
     </g>
     <g id="line2d_20">
      <g>
       <use xlink:href="#me22bf36aaf" x="34.215531" y="163.94757" style="fill: #333333; stroke: #333333; stroke-width: 0.8"/>
      </g>
     </g>
     <g id="text_11">
      <text style="font-size: 9.2px; font-family: 'DejaVu Sans', 'Bitstream Vera Sans', 'Computer Modern Sans Serif', 'Lucida Grande', 'Verdana', 'Geneva', 'Lucid', 'Arial', 'Helvetica', 'Avant Garde', sans-serif; text-anchor: end; fill: #333333" x="27.215531" y="167.442851" transform="rotate(-0 27.215531 167.442851)">6</text>
     </g>
    </g>
    <g id="ytick_4">
     <g id="line2d_21">
      <path d="M 34.215531 103.402432 
L 605.99952 103.402432 
" clip-path="url(#p9612b838aa)" style="fill: none; stroke: #b0b0b0; stroke-opacity: 0.18; stroke-width: 0.7; stroke-linecap: round"/>
     </g>
     <g id="line2d_22">
      <g>
       <use xlink:href="#me22bf36aaf" x="34.215531" y="103.402432" style="fill: #333333; stroke: #333333; stroke-width: 0.8"/>
      </g>
     </g>
     <g id="text_12">
      <text style="font-size: 9.2px; font-family: 'DejaVu Sans', 'Bitstream Vera Sans', 'Computer Modern Sans Serif', 'Lucida Grande', 'Verdana', 'Geneva', 'Lucid', 'Arial', 'Helvetica', 'Avant Garde', sans-serif; text-anchor: end; fill: #333333" x="27.215531" y="106.897713" transform="rotate(-0 27.215531 106.897713)">7</text>
     </g>
    </g>
    <g id="ytick_5">
     <g id="line2d_23">
      <path d="M 34.215531 42.857293 
L 605.99952 42.857293 
" clip-path="url(#p9612b838aa)" style="fill: none; stroke: #b0b0b0; stroke-opacity: 0.18; stroke-width: 0.7; stroke-linecap: round"/>
     </g>
     <g id="line2d_24">
      <g>
       <use xlink:href="#me22bf36aaf" x="34.215531" y="42.857293" style="fill: #333333; stroke: #333333; stroke-width: 0.8"/>
      </g>
     </g>
     <g id="text_13">
      <text style="font-size: 9.2px; font-family: 'DejaVu Sans', 'Bitstream Vera Sans', 'Computer Modern Sans Serif', 'Lucida Grande', 'Verdana', 'Geneva', 'Lucid', 'Arial', 'Helvetica', 'Avant Garde', sans-serif; text-anchor: end; fill: #333333" x="27.215531" y="46.352575" transform="rotate(-0 27.215531 46.352575)">8</text>
     </g>
    </g>
    <g id="text_14">
     <text style="font-size: 10.5px; font-family: 'DejaVu Sans', 'Bitstream Vera Sans', 'Computer Modern Sans Serif', 'Lucida Grande', 'Verdana', 'Geneva', 'Lucid', 'Arial', 'Helvetica', 'Avant Garde', sans-serif; text-anchor: middle; fill: #222222" x="15.178359" y="176.91583" transform="rotate(-90 15.178359 176.91583)">Rotacion [deg]</text>
    </g>
   </g>
   <g id="line2d_25">
    <path d="M 55.392716 305.43065 
L 231.869256 190.345087 
L 408.345795 204.367057 
L 584.822335 67.812244 
" clip-path="url(#p9612b838aa)" style="fill: none; stroke: #1f77b4; stroke-width: 1.8; stroke-linecap: round"/>
    <defs>
     <path id="mde6addcd5e" d="M 0 3 
C 0.795609 3 1.55874 2.683901 2.12132 2.12132 
C 2.683901 1.55874 3 0.795609 3 0 
C 3 -0.795609 2.683901 -1.55874 2.12132 -2.12132 
C 1.55874 -2.683901 0.795609 -3 0 -3 
C -0.795609 -3 -1.55874 -2.683901 -2.12132 -2.12132 
C -2.683901 -1.55874 -3 -0.795609 -3 0 
C -3 0.795609 -2.683901 1.55874 -2.12132 2.12132 
C -1.55874 2.683901 -0.795609 3 0 3 
z
" style="stroke: #1f77b4"/>
    </defs>
    <g clip-path="url(#p9612b838aa)">
     <use xlink:href="#mde6addcd5e" x="55.392716" y="305.43065" style="fill: #1f77b4; stroke: #1f77b4"/>
     <use xlink:href="#mde6addcd5e" x="231.869256" y="190.345087" style="fill: #1f77b4; stroke: #1f77b4"/>
     <use xlink:href="#mde6addcd5e" x="408.345795" y="204.367057" style="fill: #1f77b4; stroke: #1f77b4"/>
     <use xlink:href="#mde6addcd5e" x="584.822335" y="67.812244" style="fill: #1f77b4; stroke: #1f77b4"/>
    </g>
   </g>
   <g id="line2d_26">
    <path d="M 55.392716 305.145861 
L 231.869256 226.980874 
L 408.345795 172.141782 
L 584.822335 48.401011 
" clip-path="url(#p9612b838aa)" style="fill: none; stroke: #ff7f0e; stroke-width: 1.8; stroke-linecap: round"/>
    <defs>
     <path id="ma31acc9028" d="M 0 3 
C 0.795609 3 1.55874 2.683901 2.12132 2.12132 
C 2.683901 1.55874 3 0.795609 3 0 
C 3 -0.795609 2.683901 -1.55874 2.12132 -2.12132 
C 1.55874 -2.683901 0.795609 -3 0 -3 
C -0.795609 -3 -1.55874 -2.683901 -2.12132 -2.12132 
C -2.683901 -1.55874 -3 -0.795609 -3 0 
C -3 0.795609 -2.683901 1.55874 -2.12132 2.12132 
C -1.55874 2.683901 -0.795609 3 0 3 
z
" style="stroke: #ff7f0e"/>
    </defs>
    <g clip-path="url(#p9612b838aa)">
     <use xlink:href="#ma31acc9028" x="55.392716" y="305.145861" style="fill: #ff7f0e; stroke: #ff7f0e"/>
     <use xlink:href="#ma31acc9028" x="231.869256" y="226.980874" style="fill: #ff7f0e; stroke: #ff7f0e"/>
     <use xlink:href="#ma31acc9028" x="408.345795" y="172.141782" style="fill: #ff7f0e; stroke: #ff7f0e"/>
     <use xlink:href="#ma31acc9028" x="584.822335" y="48.401011" style="fill: #ff7f0e; stroke: #ff7f0e"/>
    </g>
   </g>
   <g id="line2d_27">
    <path d="M 55.392716 267.575972 
L 231.869256 202.687084 
L 408.345795 212.178969 
L 584.822335 95.896111 
" clip-path="url(#p9612b838aa)" style="fill: none; stroke: #2ca02c; stroke-width: 1.8; stroke-linecap: round"/>
    <defs>
     <path id="mab021cea25" d="M 0 3 
C 0.795609 3 1.55874 2.683901 2.12132 2.12132 
C 2.683901 1.55874 3 0.795609 3 0 
C 3 -0.795609 2.683901 -1.55874 2.12132 -2.12132 
C 1.55874 -2.683901 0.795609 -3 0 -3 
C -0.795609 -3 -1.55874 -2.683901 -2.12132 -2.12132 
C -2.683901 -1.55874 -3 -0.795609 -3 0 
C -3 0.795609 -2.683901 1.55874 -2.12132 2.12132 
C -1.55874 2.683901 -0.795609 3 0 3 
z
" style="stroke: #2ca02c"/>
    </defs>
    <g clip-path="url(#p9612b838aa)">
     <use xlink:href="#mab021cea25" x="55.392716" y="267.575972" style="fill: #2ca02c; stroke: #2ca02c"/>
     <use xlink:href="#mab021cea25" x="231.869256" y="202.687084" style="fill: #2ca02c; stroke: #2ca02c"/>
     <use xlink:href="#mab021cea25" x="408.345795" y="212.178969" style="fill: #2ca02c; stroke: #2ca02c"/>
     <use xlink:href="#mab021cea25" x="584.822335" y="95.896111" style="fill: #2ca02c; stroke: #2ca02c"/>
    </g>
   </g>
   <g id="line2d_28">
    <path d="M 55.392716 292.90402 
L 231.869256 189.502698 
L 408.345795 239.029345 
L 584.822335 77.195528 
" clip-path="url(#p9612b838aa)" style="fill: none; stroke: #d62728; stroke-width: 1.8; stroke-linecap: round"/>
    <defs>
     <path id="m7ad12d3b7f" d="M 0 3 
C 0.795609 3 1.55874 2.683901 2.12132 2.12132 
C 2.683901 1.55874 3 0.795609 3 0 
C 3 -0.795609 2.683901 -1.55874 2.12132 -2.12132 
C 1.55874 -2.683901 0.795609 -3 0 -3 
C -0.795609 -3 -1.55874 -2.683901 -2.12132 -2.12132 
C -2.683901 -1.55874 -3 -0.795609 -3 0 
C -3 0.795609 -2.683901 1.55874 -2.12132 2.12132 
C -1.55874 2.683901 -0.795609 3 0 3 
z
" style="stroke: #d62728"/>
    </defs>
    <g clip-path="url(#p9612b838aa)">
     <use xlink:href="#m7ad12d3b7f" x="55.392716" y="292.90402" style="fill: #d62728; stroke: #d62728"/>
     <use xlink:href="#m7ad12d3b7f" x="231.869256" y="189.502698" style="fill: #d62728; stroke: #d62728"/>
     <use xlink:href="#m7ad12d3b7f" x="408.345795" y="239.029345" style="fill: #d62728; stroke: #d62728"/>
     <use xlink:href="#m7ad12d3b7f" x="584.822335" y="77.195528" style="fill: #d62728; stroke: #d62728"/>
    </g>
   </g>
   <g id="line2d_29">
    <path d="M 34.215531 224.492708 
L 605.99952 224.492708 
" clip-path="url(#p9612b838aa)" style="fill: none; stroke-dasharray: 4.07,1.76; stroke-dashoffset: 0; stroke: #000000; stroke-width: 1.1"/>
   </g>
   <g id="patch_3">
    <path d="M 34.215531 331.133614 
L 34.215531 22.698047 
" style="fill: none; stroke: #444444; stroke-width: 0.8; stroke-linejoin: miter; stroke-linecap: square"/>
   </g>
   <g id="patch_4">
    <path d="M 34.215531 331.133614 
L 605.99952 331.133614 
" style="fill: none; stroke: #444444; stroke-width: 0.8; stroke-linejoin: miter; stroke-linecap: square"/>
   </g>
   <g id="text_15">
    <text style="font-weight: 700; font-size: 12.5px; font-family: 'DejaVu Sans', 'Bitstream Vera Sans', 'Computer Modern Sans Serif', 'Lucida Grande', 'Verdana', 'Geneva', 'Lucid', 'Arial', 'Helvetica', 'Avant Garde', sans-serif; text-anchor: middle" x="320.107526" y="16.698047" transform="rotate(-0 320.107526 16.698047)">Rotacion diagnostica por dp</text>
   </g>
   <g id="legend_1">
    <g id="patch_5">
     <path d="M 39.955531 65.366234 
L 192.616469 65.366234 
Q 194.256469 65.366234 194.256469 63.726234 
L 194.256469 28.438047 
Q 194.256469 26.798047 192.616469 26.798047 
L 39.955531 26.798047 
Q 38.315531 26.798047 38.315531 28.438047 
L 38.315531 63.726234 
Q 38.315531 65.366234 39.955531 65.366234 
z
" style="fill: #ffffff; opacity: 0.96; stroke: #d5d5d5; stroke-width: 0.6; stroke-linejoin: miter"/>
    </g>
    <g id="line2d_30">
     <path d="M 41.595531 33.438766 
L 49.795531 33.438766 
L 57.995531 33.438766 
" style="fill: none; stroke: #1f77b4; stroke-width: 1.8; stroke-linecap: round"/>
     <g>
      <use xlink:href="#mde6addcd5e" x="49.795531" y="33.438766" style="fill: #1f77b4; stroke: #1f77b4"/>
     </g>
    </g>
    <g id="text_16">
     <text style="font-size: 8.2px; font-family: 'DejaVu Sans', 'Bitstream Vera Sans', 'Computer Modern Sans Serif', 'Lucida Grande', 'Verdana', 'Geneva', 'Lucid', 'Arial', 'Helvetica', 'Avant Garde', sans-serif; text-anchor: start" x="64.555531" y="36.308766" transform="rotate(-0 64.555531 36.308766)">mu=0.675</text>
    </g>
    <g id="line2d_31">
     <path d="M 41.595531 45.474828 
L 49.795531 45.474828 
L 57.995531 45.474828 
" style="fill: none; stroke: #ff7f0e; stroke-width: 1.8; stroke-linecap: round"/>
     <g>
      <use xlink:href="#ma31acc9028" x="49.795531" y="45.474828" style="fill: #ff7f0e; stroke: #ff7f0e"/>
     </g>
    </g>
    <g id="text_17">
     <text style="font-size: 8.2px; font-family: 'DejaVu Sans', 'Bitstream Vera Sans', 'Computer Modern Sans Serif', 'Lucida Grande', 'Verdana', 'Geneva', 'Lucid', 'Arial', 'Helvetica', 'Avant Garde', sans-serif; text-anchor: start" x="64.555531" y="48.344828" transform="rotate(-0 64.555531 48.344828)">mu=0.680</text>
    </g>
    <g id="line2d_32">
     <path d="M 41.595531 57.510891 
L 49.795531 57.510891 
L 57.995531 57.510891 
" style="fill: none; stroke: #2ca02c; stroke-width: 1.8; stroke-linecap: round"/>
     <g>
      <use xlink:href="#mab021cea25" x="49.795531" y="57.510891" style="fill: #2ca02c; stroke: #2ca02c"/>
     </g>
    </g>
    <g id="text_18">
     <text style="font-size: 8.2px; font-family: 'DejaVu Sans', 'Bitstream Vera Sans', 'Computer Modern Sans Serif', 'Lucida Grande', 'Verdana', 'Geneva', 'Lucid', 'Arial', 'Helvetica', 'Avant Garde', sans-serif; text-anchor: start" x="64.555531" y="60.380891" transform="rotate(-0 64.555531 60.380891)">mu=0.681</text>
    </g>
    <g id="line2d_33">
     <path d="M 124.486 33.438766 
L 132.686 33.438766 
L 140.886 33.438766 
" style="fill: none; stroke: #d62728; stroke-width: 1.8; stroke-linecap: round"/>
     <g>
      <use xlink:href="#m7ad12d3b7f" x="132.686" y="33.438766" style="fill: #d62728; stroke: #d62728"/>
     </g>
    </g>
    <g id="text_19">
     <text style="font-size: 8.2px; font-family: 'DejaVu Sans', 'Bitstream Vera Sans', 'Computer Modern Sans Serif', 'Lucida Grande', 'Verdana', 'Geneva', 'Lucid', 'Arial', 'Helvetica', 'Avant Garde', sans-serif; text-anchor: start" x="147.446" y="36.308766" transform="rotate(-0 147.446 36.308766)">mu=0.685</text>
    </g>
    <g id="line2d_34">
     <path d="M 124.486 45.474828 
L 132.686 45.474828 
L 140.886 45.474828 
" style="fill: none; stroke-dasharray: 4.07,1.76; stroke-dashoffset: 0; stroke: #000000; stroke-width: 1.1"/>
    </g>
    <g id="text_20">
     <text style="font-size: 8.2px; font-family: 'DejaVu Sans', 'Bitstream Vera Sans', 'Computer Modern Sans Serif', 'Lucida Grande', 'Verdana', 'Geneva', 'Lucid', 'Arial', 'Helvetica', 'Avant Garde', sans-serif; text-anchor: start" x="147.446" y="48.344828" transform="rotate(-0 147.446 48.344828)">umbral rot</text>
    </g>
   </g>
  </g>
 </g>
 <defs>
  <clipPath id="p9612b838aa">
   <rect x="34.215531" y="22.698047" width="571.783989" height="308.435567"/>
  </clipPath>
 </defs>
</svg>
