<?xml version="1.0" encoding="utf-8" standalone="no"?>
<!DOCTYPE svg PUBLIC "-//W3C//DTD SVG 1.1//EN"
  "http://www.w3.org/Graphics/SVG/1.1/DTD/svg11.dtd">
<svg xmlns:xlink="http://www.w3.org/1999/xlink" width="613.19952pt" height="368.39952pt" viewBox="0 0 613.19952 368.39952" xmlns="http://www.w3.org/2000/svg" version="1.1">
 <metadata>
  <rdf:RDF xmlns:dc="http://purl.org/dc/elements/1.1/" xmlns:cc="http://creativecommons.org/ns#" xmlns:rdf="http://www.w3.org/1999/02/22-rdf-syntax-ns#">
   <cc:Work>
    <dc:type rdf:resource="http://purl.org/dc/dcmitype/StillImage"/>
    <dc:date>2026-05-14T23:19:37.502359</dc:date>
    <dc:format>image/svg+xml</dc:format>
    <dc:creator>
     <cc:Agent>
      <dc:title>Matplotlib v3.10.8, https://matplotlib.org/</dc:title>
     </cc:Agent>
    </dc:creator>
   </cc:Work>
  </rdf:RDF>
 </metadata>
 <defs>
  <style type="text/css">*{stroke-linejoin: round; stroke-linecap: butt}</style>
 </defs>
 <g id="figure_1">
  <g id="patch_1">
   <path d="M 0 368.39952 
L 613.19952 368.39952 
L 613.19952 0 
L 0 0 
z
" style="fill: #ffffff"/>
  </g>
  <g id="axes_1">
   <g id="patch_2">
    <path d="M 40.069031 331.133614 
L 605.99952 331.133614 
L 605.99952 22.698047 
L 40.069031 22.698047 
z
" style="fill: #ffffff"/>
   </g>
   <g id="matplotlib.axis_1">
    <g id="xtick_1">
     <g id="line2d_1">
      <path d="M 585.039132 331.133614 
L 585.039132 22.698047 
" clip-path="url(#p5b1a50511c)" style="fill: none; stroke: #b0b0b0; stroke-opacity: 0.18; stroke-width: 0.7; stroke-linecap: round"/>
     </g>
     <g id="line2d_2">
      <defs>
       <path id="m433701dece" d="M 0 0 
L 0 3.5 
" style="stroke: #333333; stroke-width: 0.8"/>
      </defs>
      <g>
       <use xlink:href="#m433701dece" x="585.039132" y="331.133614" style="fill: #333333; stroke: #333333; stroke-width: 0.8"/>
      </g>
     </g>
     <g id="text_1">
      <text style="font-size: 9.2px; font-family: 'DejaVu Sans', 'Bitstream Vera Sans', 'Computer Modern Sans Serif', 'Lucida Grande', 'Verdana', 'Geneva', 'Lucid', 'Arial', 'Helvetica', 'Avant Garde', sans-serif; text-anchor: middle; fill: #333333" x="585.039132" y="345.124176" transform="rotate(-0 585.039132 345.124176)">0.0020</text>
     </g>
    </g>
    <g id="xtick_2">
     <g id="line2d_3">
      <path d="M 497.70418 331.133614 
L 497.70418 22.698047 
" clip-path="url(#p5b1a50511c)" style="fill: none; stroke: #b0b0b0; stroke-opacity: 0.18; stroke-width: 0.7; stroke-linecap: round"/>
     </g>
     <g id="line2d_4">
      <g>
       <use xlink:href="#m433701dece" x="497.70418" y="331.133614" style="fill: #333333; stroke: #333333; stroke-width: 0.8"/>
      </g>
     </g>
     <g id="text_2">
      <text style="font-size: 9.2px; font-family: 'DejaVu Sans', 'Bitstream Vera Sans', 'Computer Modern Sans Serif', 'Lucida Grande', 'Verdana', 'Geneva', 'Lucid', 'Arial', 'Helvetica', 'Avant Garde', sans-serif; text-anchor: middle; fill: #333333" x="497.70418" y="345.124176" transform="rotate(-0 497.70418 345.124176)">0.0025</text>
     </g>
    </g>
    <g id="xtick_3">
     <g id="line2d_5">
      <path d="M 410.369228 331.133614 
L 410.369228 22.698047 
" clip-path="url(#p5b1a50511c)" style="fill: none; stroke: #b0b0b0; stroke-opacity: 0.18; stroke-width: 0.7; stroke-linecap: round"/>
     </g>
     <g id="line2d_6">
      <g>
       <use xlink:href="#m433701dece" x="410.369228" y="331.133614" style="fill: #333333; stroke: #333333; stroke-width: 0.8"/>
      </g>
     </g>
     <g id="text_3">
      <text style="font-size: 9.2px; font-family: 'DejaVu Sans', 'Bitstream Vera Sans', 'Computer Modern Sans Serif', 'Lucida Grande', 'Verdana', 'Geneva', 'Lucid', 'Arial', 'Helvetica', 'Avant Garde', sans-serif; text-anchor: middle; fill: #333333" x="410.369228" y="345.124176" transform="rotate(-0 410.369228 345.124176)">0.0030</text>
     </g>
    </g>
    <g id="xtick_4">
     <g id="line2d_7">
      <path d="M 323.034276 331.133614 
L 323.034276 22.698047 
" clip-path="url(#p5b1a50511c)" style="fill: none; stroke: #b0b0b0; stroke-opacity: 0.18; stroke-width: 0.7; stroke-linecap: round"/>
     </g>
     <g id="line2d_8">
      <g>
       <use xlink:href="#m433701dece" x="323.034276" y="331.133614" style="fill: #333333; stroke: #333333; stroke-width: 0.8"/>
      </g>
     </g>
     <g id="text_4">
      <text style="font-size: 9.2px; font-family: 'DejaVu Sans', 'Bitstream Vera Sans', 'Computer Modern Sans Serif', 'Lucida Grande', 'Verdana', 'Geneva', 'Lucid', 'Arial', 'Helvetica', 'Avant Garde', sans-serif; text-anchor: middle; fill: #333333" x="323.034276" y="345.124176" transform="rotate(-0 323.034276 345.124176)">0.0035</text>
     </g>
    </g>
    <g id="xtick_5">
     <g id="line2d_9">
      <path d="M 235.699324 331.133614 
L 235.699324 22.698047 
" clip-path="url(#p5b1a50511c)" style="fill: none; stroke: #b0b0b0; stroke-opacity: 0.18; stroke-width: 0.7; stroke-linecap: round"/>
     </g>
     <g id="line2d_10">
      <g>
       <use xlink:href="#m433701dece" x="235.699324" y="331.133614" style="fill: #333333; stroke: #333333; stroke-width: 0.8"/>
      </g>
     </g>
     <g id="text_5">
      <text style="font-size: 9.2px; font-family: 'DejaVu Sans', 'Bitstream Vera Sans', 'Computer Modern Sans Serif', 'Lucida Grande', 'Verdana', 'Geneva', 'Lucid', 'Arial', 'Helvetica', 'Avant Garde', sans-serif; text-anchor: middle; fill: #333333" x="235.699324" y="345.124176" transform="rotate(-0 235.699324 345.124176)">0.0040</text>
     </g>
    </g>
    <g id="xtick_6">
     <g id="line2d_11">
      <path d="M 148.364372 331.133614 
L 148.364372 22.698047 
" clip-path="url(#p5b1a50511c)" style="fill: none; stroke: #b0b0b0; stroke-opacity: 0.18; stroke-width: 0.7; stroke-linecap: round"/>
     </g>
     <g id="line2d_12">
      <g>
       <use xlink:href="#m433701dece" x="148.364372" y="331.133614" style="fill: #333333; stroke: #333333; stroke-width: 0.8"/>
      </g>
     </g>
     <g id="text_6">
      <text style="font-size: 9.2px; font-family: 'DejaVu Sans', 'Bitstream Vera Sans', 'Computer Modern Sans Serif', 'Lucida Grande', 'Verdana', 'Geneva', 'Lucid', 'Arial', 'Helvetica', 'Avant Garde', sans-serif; text-anchor: middle; fill: #333333" x="148.364372" y="345.124176" transform="rotate(-0 148.364372 345.124176)">0.0045</text>
     </g>
    </g>
    <g id="xtick_7">
     <g id="line2d_13">
      <path d="M 61.02942 331.133614 
L 61.02942 22.698047 
" clip-path="url(#p5b1a50511c)" style="fill: none; stroke: #b0b0b0; stroke-opacity: 0.18; stroke-width: 0.7; stroke-linecap: round"/>
     </g>
     <g id="line2d_14">
      <g>
       <use xlink:href="#m433701dece" x="61.02942" y="331.133614" style="fill: #333333; stroke: #333333; stroke-width: 0.8"/>
      </g>
     </g>
     <g id="text_7">
      <text style="font-size: 9.2px; font-family: 'DejaVu Sans', 'Bitstream Vera Sans', 'Computer Modern Sans Serif', 'Lucida Grande', 'Verdana', 'Geneva', 'Lucid', 'Arial', 'Helvetica', 'Avant Garde', sans-serif; text-anchor: middle; fill: #333333" x="61.02942" y="345.124176" transform="rotate(-0 61.02942 345.124176)">0.0050</text>
     </g>
    </g>
    <g id="text_8">
     <text style="font-size: 10.5px; font-family: 'DejaVu Sans', 'Bitstream Vera Sans', 'Computer Modern Sans Serif', 'Lucida Grande', 'Verdana', 'Geneva', 'Lucid', 'Arial', 'Helvetica', 'Avant Garde', sans-serif; text-anchor: middle; fill: #222222" x="323.034276" y="359.015848" transform="rotate(-0 323.034276 359.015848)">dp [m] (mas fino hacia la derecha)</text>
    </g>
   </g>
   <g id="matplotlib.axis_2">
    <g id="ytick_1">
     <g id="line2d_15">
      <path d="M 40.069031 305.416623 
L 605.99952 305.416623 
" clip-path="url(#p5b1a50511c)" style="fill: none; stroke: #b0b0b0; stroke-opacity: 0.18; stroke-width: 0.7; stroke-linecap: round"/>
     </g>
     <g id="line2d_16">
      <defs>
       <path id="m931db5f505" d="M 0 0 
L -3.5 0 
" style="stroke: #333333; stroke-width: 0.8"/>
      </defs>
      <g>
       <use xlink:href="#m931db5f505" x="40.069031" y="305.416623" style="fill: #333333; stroke: #333333; stroke-width: 0.8"/>
      </g>
     </g>
     <g id="text_9">
      <text style="font-size: 9.2px; font-family: 'DejaVu Sans', 'Bitstream Vera Sans', 'Computer Modern Sans Serif', 'Lucida Grande', 'Verdana', 'Geneva', 'Lucid', 'Arial', 'Helvetica', 'Avant Garde', sans-serif; text-anchor: end; fill: #333333" x="33.069031" y="308.911904" transform="rotate(-0 33.069031 308.911904)">8</text>
     </g>
    </g>
    <g id="ytick_2">
     <g id="line2d_17">
      <path d="M 40.069031 244.811243 
L 605.99952 244.811243 
" clip-path="url(#p5b1a50511c)" style="fill: none; stroke: #b0b0b0; stroke-opacity: 0.18; stroke-width: 0.7; stroke-linecap: round"/>
     </g>
     <g id="line2d_18">
      <g>
       <use xlink:href="#m931db5f505" x="40.069031" y="244.811243" style="fill: #333333; stroke: #333333; stroke-width: 0.8"/>
      </g>
     </g>
     <g id="text_10">
      <text style="font-size: 9.2px; font-family: 'DejaVu Sans', 'Bitstream Vera Sans', 'Computer Modern Sans Serif', 'Lucida Grande', 'Verdana', 'Geneva', 'Lucid', 'Arial', 'Helvetica', 'Avant Garde', sans-serif; text-anchor: end; fill: #333333" x="33.069031" y="248.306524" transform="rotate(-0 33.069031 248.306524)">10</text>
     </g>
    </g>
    <g id="ytick_3">
     <g id="line2d_19">
      <path d="M 40.069031 184.205863 
L 605.99952 184.205863 
" clip-path="url(#p5b1a50511c)" style="fill: none; stroke: #b0b0b0; stroke-opacity: 0.18; stroke-width: 0.7; stroke-linecap: round"/>
     </g>
     <g id="line2d_20">
      <g>
       <use xlink:href="#m931db5f505" x="40.069031" y="184.205863" style="fill: #333333; stroke: #333333; stroke-width: 0.8"/>
      </g>
     </g>
     <g id="text_11">
      <text style="font-size: 9.2px; font-family: 'DejaVu Sans', 'Bitstream Vera Sans', 'Computer Modern Sans Serif', 'Lucida Grande', 'Verdana', 'Geneva', 'Lucid', 'Arial', 'Helvetica', 'Avant Garde', sans-serif; text-anchor: end; fill: #333333" x="33.069031" y="187.701145" transform="rotate(-0 33.069031 187.701145)">12</text>
     </g>
    </g>
    <g id="ytick_4">
     <g id="line2d_21">
      <path d="M 40.069031 123.600483 
L 605.99952 123.600483 
" clip-path="url(#p5b1a50511c)" style="fill: none; stroke: #b0b0b0; stroke-opacity: 0.18; stroke-width: 0.7; stroke-linecap: round"/>
     </g>
     <g id="line2d_22">
      <g>
       <use xlink:href="#m931db5f505" x="40.069031" y="123.600483" style="fill: #333333; stroke: #333333; stroke-width: 0.8"/>
      </g>
     </g>
     <g id="text_12">
      <text style="font-size: 9.2px; font-family: 'DejaVu Sans', 'Bitstream Vera Sans', 'Computer Modern Sans Serif', 'Lucida Grande', 'Verdana', 'Geneva', 'Lucid', 'Arial', 'Helvetica', 'Avant Garde', sans-serif; text-anchor: end; fill: #333333" x="33.069031" y="127.095765" transform="rotate(-0 33.069031 127.095765)">14</text>
     </g>
    </g>
    <g id="ytick_5">
     <g id="line2d_23">
      <path d="M 40.069031 62.995104 
L 605.99952 62.995104 
" clip-path="url(#p5b1a50511c)" style="fill: none; stroke: #b0b0b0; stroke-opacity: 0.18; stroke-width: 0.7; stroke-linecap: round"/>
     </g>
     <g id="line2d_24">
      <g>
       <use xlink:href="#m931db5f505" x="40.069031" y="62.995104" style="fill: #333333; stroke: #333333; stroke-width: 0.8"/>
      </g>
     </g>
     <g id="text_13">
      <text style="font-size: 9.2px; font-family: 'DejaVu Sans', 'Bitstream Vera Sans', 'Computer Modern Sans Serif', 'Lucida Grande', 'Verdana', 'Geneva', 'Lucid', 'Arial', 'Helvetica', 'Avant Garde', sans-serif; text-anchor: end; fill: #333333" x="33.069031" y="66.490385" transform="rotate(-0 33.069031 66.490385)">16</text>
     </g>
    </g>
    <g id="text_14">
     <text style="font-size: 10.5px; font-family: 'DejaVu Sans', 'Bitstream Vera Sans', 'Computer Modern Sans Serif', 'Lucida Grande', 'Verdana', 'Geneva', 'Lucid', 'Arial', 'Helvetica', 'Avant Garde', sans-serif; text-anchor: middle; fill: #222222" x="15.178359" y="176.91583" transform="rotate(-90 15.178359 176.91583)">Fuerza SPH [N]</text>
    </g>
   </g>
   <g id="line2d_25">
    <path d="M 61.02942 227.397628 
L 235.699324 52.44626 
L 410.369228 296.717781 
L 585.039132 289.627965 
" clip-path="url(#p5b1a50511c)" style="fill: none; stroke: #1f77b4; stroke-width: 1.8; stroke-linecap: round"/>
    <defs>
     <path id="m824571328c" d="M 0 3 
C 0.795609 3 1.55874 2.683901 2.12132 2.12132 
C 2.683901 1.55874 3 0.795609 3 0 
C 3 -0.795609 2.683901 -1.55874 2.12132 -2.12132 
C 1.55874 -2.683901 0.795609 -3 0 -3 
C -0.795609 -3 -1.55874 -2.683901 -2.12132 -2.12132 
C -2.683901 -1.55874 -3 -0.795609 -3 0 
C -3 0.795609 -2.683901 1.55874 -2.12132 2.12132 
C -1.55874 2.683901 -0.795609 3 0 3 
z
" style="stroke: #1f77b4"/>
    </defs>
    <g clip-path="url(#p5b1a50511c)">
     <use xlink:href="#m824571328c" x="61.02942" y="227.397628" style="fill: #1f77b4; stroke: #1f77b4"/>
     <use xlink:href="#m824571328c" x="235.699324" y="52.44626" style="fill: #1f77b4; stroke: #1f77b4"/>
     <use xlink:href="#m824571328c" x="410.369228" y="296.717781" style="fill: #1f77b4; stroke: #1f77b4"/>
     <use xlink:href="#m824571328c" x="585.039132" y="289.627965" style="fill: #1f77b4; stroke: #1f77b4"/>
    </g>
   </g>
   <g id="line2d_26">
    <path d="M 61.02942 241.725762 
L 235.699324 48.401011 
L 410.369228 294.108173 
L 585.039132 305.43065 
" clip-path="url(#p5b1a50511c)" style="fill: none; stroke: #ff7f0e; stroke-width: 1.8; stroke-linecap: round"/>
    <defs>
     <path id="mb122623e57" d="M 0 3 
C 0.795609 3 1.55874 2.683901 2.12132 2.12132 
C 2.683901 1.55874 3 0.795609 3 0 
C 3 -0.795609 2.683901 -1.55874 2.12132 -2.12132 
C 1.55874 -2.683901 0.795609 -3 0 -3 
C -0.795609 -3 -1.55874 -2.683901 -2.12132 -2.12132 
C -2.683901 -1.55874 -3 -0.795609 -3 0 
C -3 0.795609 -2.683901 1.55874 -2.12132 2.12132 
C -1.55874 2.683901 -0.795609 3 0 3 
z
" style="stroke: #ff7f0e"/>
    </defs>
    <g clip-path="url(#p5b1a50511c)">
     <use xlink:href="#mb122623e57" x="61.02942" y="241.725762" style="fill: #ff7f0e; stroke: #ff7f0e"/>
     <use xlink:href="#mb122623e57" x="235.699324" y="48.401011" style="fill: #ff7f0e; stroke: #ff7f0e"/>
     <use xlink:href="#mb122623e57" x="410.369228" y="294.108173" style="fill: #ff7f0e; stroke: #ff7f0e"/>
     <use xlink:href="#mb122623e57" x="585.039132" y="305.43065" style="fill: #ff7f0e; stroke: #ff7f0e"/>
    </g>
   </g>
   <g id="line2d_27">
    <path d="M 61.02942 184.134253 
L 235.699324 48.970978 
L 410.369228 294.74368 
L 585.039132 293.239485 
" clip-path="url(#p5b1a50511c)" style="fill: none; stroke: #2ca02c; stroke-width: 1.8; stroke-linecap: round"/>
    <defs>
     <path id="m985d55d647" d="M 0 3 
C 0.795609 3 1.55874 2.683901 2.12132 2.12132 
C 2.683901 1.55874 3 0.795609 3 0 
C 3 -0.795609 2.683901 -1.55874 2.12132 -2.12132 
C 1.55874 -2.683901 0.795609 -3 0 -3 
C -0.795609 -3 -1.55874 -2.683901 -2.12132 -2.12132 
C -2.683901 -1.55874 -3 -0.795609 -3 0 
C -3 0.795609 -2.683901 1.55874 -2.12132 2.12132 
C -1.55874 2.683901 -0.795609 3 0 3 
z
" style="stroke: #2ca02c"/>
    </defs>
    <g clip-path="url(#p5b1a50511c)">
     <use xlink:href="#m985d55d647" x="61.02942" y="184.134253" style="fill: #2ca02c; stroke: #2ca02c"/>
     <use xlink:href="#m985d55d647" x="235.699324" y="48.970978" style="fill: #2ca02c; stroke: #2ca02c"/>
     <use xlink:href="#m985d55d647" x="410.369228" y="294.74368" style="fill: #2ca02c; stroke: #2ca02c"/>
     <use xlink:href="#m985d55d647" x="585.039132" y="293.239485" style="fill: #2ca02c; stroke: #2ca02c"/>
    </g>
   </g>
   <g id="line2d_28">
    <path d="M 61.02942 229.467085 
L 235.699324 48.489905 
L 410.369228 297.945224 
L 585.039132 274.896541 
" clip-path="url(#p5b1a50511c)" style="fill: none; stroke: #d62728; stroke-width: 1.8; stroke-linecap: round"/>
    <defs>
     <path id="m6c7d9a2876" d="M 0 3 
C 0.795609 3 1.55874 2.683901 2.12132 2.12132 
C 2.683901 1.55874 3 0.795609 3 0 
C 3 -0.795609 2.683901 -1.55874 2.12132 -2.12132 
C 1.55874 -2.683901 0.795609 -3 0 -3 
C -0.795609 -3 -1.55874 -2.683901 -2.12132 -2.12132 
C -2.683901 -1.55874 -3 -0.795609 -3 0 
C -3 0.795609 -2.683901 1.55874 -2.12132 2.12132 
C -1.55874 2.683901 -0.795609 3 0 3 
z
" style="stroke: #d62728"/>
    </defs>
    <g clip-path="url(#p5b1a50511c)">
     <use xlink:href="#m6c7d9a2876" x="61.02942" y="229.467085" style="fill: #d62728; stroke: #d62728"/>
     <use xlink:href="#m6c7d9a2876" x="235.699324" y="48.489905" style="fill: #d62728; stroke: #d62728"/>
     <use xlink:href="#m6c7d9a2876" x="410.369228" y="297.945224" style="fill: #d62728; stroke: #d62728"/>
     <use xlink:href="#m6c7d9a2876" x="585.039132" y="274.896541" style="fill: #d62728; stroke: #d62728"/>
    </g>
   </g>
   <g id="patch_3">
    <path d="M 40.069031 331.133614 
L 40.069031 22.698047 
" style="fill: none; stroke: #444444; stroke-width: 0.8; stroke-linejoin: miter; stroke-linecap: square"/>
   </g>
   <g id="patch_4">
    <path d="M 40.069031 331.133614 
L 605.99952 331.133614 
" style="fill: none; stroke: #444444; stroke-width: 0.8; stroke-linejoin: miter; stroke-linecap: square"/>
   </g>
   <g id="text_15">
    <text style="font-weight: 700; font-size: 12.5px; font-family: 'DejaVu Sans', 'Bitstream Vera Sans', 'Computer Modern Sans Serif', 'Lucida Grande', 'Verdana', 'Geneva', 'Lucid', 'Arial', 'Helvetica', 'Avant Garde', sans-serif; text-anchor: middle" x="323.034276" y="16.698047" transform="rotate(-0 323.034276 16.698047)">Fuerza SPH maxima por dp</text>
   </g>
   <g id="legend_1">
    <g id="patch_5">
     <path d="M 447.598582 53.330172 
L 600.25952 53.330172 
Q 601.89952 53.330172 601.89952 51.690172 
L 601.89952 28.438047 
Q 601.89952 26.798047 600.25952 26.798047 
L 447.598582 26.798047 
Q 445.958582 26.798047 445.958582 28.438047 
L 445.958582 51.690172 
Q 445.958582 53.330172 447.598582 53.330172 
z
" style="fill: #ffffff; opacity: 0.96; stroke: #d5d5d5; stroke-width: 0.6; stroke-linejoin: miter"/>
    </g>
    <g id="line2d_29">
     <path d="M 449.238582 33.438766 
L 457.438582 33.438766 
L 465.638582 33.438766 
" style="fill: none; stroke: #1f77b4; stroke-width: 1.8; stroke-linecap: round"/>
     <g>
      <use xlink:href="#m824571328c" x="457.438582" y="33.438766" style="fill: #1f77b4; stroke: #1f77b4"/>
     </g>
    </g>
    <g id="text_16">
     <text style="font-size: 8.2px; font-family: 'DejaVu Sans', 'Bitstream Vera Sans', 'Computer Modern Sans Serif', 'Lucida Grande', 'Verdana', 'Geneva', 'Lucid', 'Arial', 'Helvetica', 'Avant Garde', sans-serif; text-anchor: start" x="472.198582" y="36.308766" transform="rotate(-0 472.198582 36.308766)">mu=0.675</text>
    </g>
    <g id="line2d_30">
     <path d="M 449.238582 45.474828 
L 457.438582 45.474828 
L 465.638582 45.474828 
" style="fill: none; stroke: #ff7f0e; stroke-width: 1.8; stroke-linecap: round"/>
     <g>
      <use xlink:href="#mb122623e57" x="457.438582" y="45.474828" style="fill: #ff7f0e; stroke: #ff7f0e"/>
     </g>
    </g>
    <g id="text_17">
     <text style="font-size: 8.2px; font-family: 'DejaVu Sans', 'Bitstream Vera Sans', 'Computer Modern Sans Serif', 'Lucida Grande', 'Verdana', 'Geneva', 'Lucid', 'Arial', 'Helvetica', 'Avant Garde', sans-serif; text-anchor: start" x="472.198582" y="48.344828" transform="rotate(-0 472.198582 48.344828)">mu=0.680</text>
    </g>
    <g id="line2d_31">
     <path d="M 532.129051 33.438766 
L 540.329051 33.438766 
L 548.529051 33.438766 
" style="fill: none; stroke: #2ca02c; stroke-width: 1.8; stroke-linecap: round"/>
     <g>
      <use xlink:href="#m985d55d647" x="540.329051" y="33.438766" style="fill: #2ca02c; stroke: #2ca02c"/>
     </g>
    </g>
    <g id="text_18">
     <text style="font-size: 8.2px; font-family: 'DejaVu Sans', 'Bitstream Vera Sans', 'Computer Modern Sans Serif', 'Lucida Grande', 'Verdana', 'Geneva', 'Lucid', 'Arial', 'Helvetica', 'Avant Garde', sans-serif; text-anchor: start" x="555.089051" y="36.308766" transform="rotate(-0 555.089051 36.308766)">mu=0.681</text>
    </g>
    <g id="line2d_32">
     <path d="M 532.129051 45.474828 
L 540.329051 45.474828 
L 548.529051 45.474828 
" style="fill: none; stroke: #d62728; stroke-width: 1.8; stroke-linecap: round"/>
     <g>
      <use xlink:href="#m6c7d9a2876" x="540.329051" y="45.474828" style="fill: #d62728; stroke: #d62728"/>
     </g>
    </g>
    <g id="text_19">
     <text style="font-size: 8.2px; font-family: 'DejaVu Sans', 'Bitstream Vera Sans', 'Computer Modern Sans Serif', 'Lucida Grande', 'Verdana', 'Geneva', 'Lucid', 'Arial', 'Helvetica', 'Avant Garde', sans-serif; text-anchor: start" x="555.089051" y="48.344828" transform="rotate(-0 555.089051 48.344828)">mu=0.685</text>
    </g>
   </g>
  </g>
 </g>
 <defs>
  <clipPath id="p5b1a50511c">
   <rect x="40.069031" y="22.698047" width="565.930489" height="308.435567"/>
  </clipPath>
 </defs>
</svg>
