<?xml version="1.0" encoding="utf-8" standalone="no"?>
<!DOCTYPE svg PUBLIC "-//W3C//DTD SVG 1.1//EN"
  "http://www.w3.org/Graphics/SVG/1.1/DTD/svg11.dtd">
<svg xmlns:xlink="http://www.w3.org/1999/xlink" width="1001.99952pt" height="382.79952pt" viewBox="0 0 1001.99952 382.79952" xmlns="http://www.w3.org/2000/svg" version="1.1">
 <metadata>
  <rdf:RDF xmlns:dc="http://purl.org/dc/elements/1.1/" xmlns:cc="http://creativecommons.org/ns#" xmlns:rdf="http://www.w3.org/1999/02/22-rdf-syntax-ns#">
   <cc:Work>
    <dc:type rdf:resource="http://purl.org/dc/dcmitype/StillImage"/>
    <dc:date>2026-05-16T17:54:51.798868</dc:date>
    <dc:format>image/svg+xml</dc:format>
    <dc:creator>
     <cc:Agent>
      <dc:title>Matplotlib v3.7.5, https://matplotlib.org/</dc:title>
     </cc:Agent>
    </dc:creator>
   </cc:Work>
  </rdf:RDF>
 </metadata>
 <defs>
  <style type="text/css">*{stroke-linejoin: round; stroke-linecap: butt}</style>
 </defs>
 <g id="figure_1">
  <g id="patch_1">
   <path d="M 0 382.79952 
L 1001.99952 382.79952 
L 1001.99952 0 
L 0 0 
z
" style="fill: #ffffff"/>
  </g>
  <g id="axes_1">
   <g id="patch_2">
    <path d="M 60.81025 361.53427 
L 949.930707 361.53427 
L 949.930707 22.470094 
L 60.81025 22.470094 
z
" style="fill: #ffffff"/>
   </g>
   <g id="axes_2">
    <g id="patch_3">
     <path d="M 949.930707 361.53427 
L 949.930707 361.53427 
L 949.930707 22.470094 
L 949.930707 22.470094 
z
" style="fill: #ffffff"/>
    </g>
    <g id="matplotlib.axis_1"/>
    <g id="matplotlib.axis_2">
     <g id="ytick_1">
      <g id="line2d_1">
       <path d="M 949.930707 360.481325 
L 949.930707 360.481325 
" clip-path="url(#pd18dbabdf1)" style="fill: none; stroke: #b0b0b0; stroke-opacity: 0.18; stroke-width: 0.7; stroke-linecap: square"/>
      </g>
      <g id="line2d_2">
       <defs>
        <path id="m3e12269e31" d="M 0 0 
L 3.5 0 
" style="stroke: #333333; stroke-width: 0.8"/>
       </defs>
       <g>
        <use xlink:href="#m3e12269e31" x="949.930707" y="360.481325" style="fill: #333333; stroke: #333333; stroke-width: 0.8"/>
       </g>
      </g>
      <g id="text_1">
       <text style="fill: #333333; font: 9.2px 'DejaVu Sans', 'Bitstream Vera Sans', 'Computer Modern Sans Serif', 'Lucida Grande', 'Verdana', 'Geneva', 'Lucid', 'Arial', 'Helvetica', 'Avant Garde', sans-serif; text-anchor: start" x="956.930707" y="363.976606" transform="rotate(-0 956.930707 363.976606)">-20.0</text>
      </g>
     </g>
     <g id="ytick_2">
      <g id="line2d_3">
       <path d="M 949.930707 297.954899 
L 949.930707 297.954899 
" clip-path="url(#pd18dbabdf1)" style="fill: none; stroke: #b0b0b0; stroke-opacity: 0.18; stroke-width: 0.7; stroke-linecap: square"/>
      </g>
      <g id="line2d_4">
       <g>
        <use xlink:href="#m3e12269e31" x="949.930707" y="297.954899" style="fill: #333333; stroke: #333333; stroke-width: 0.8"/>
       </g>
      </g>
      <g id="text_2">
       <text style="fill: #333333; font: 9.2px 'DejaVu Sans', 'Bitstream Vera Sans', 'Computer Modern Sans Serif', 'Lucida Grande', 'Verdana', 'Geneva', 'Lucid', 'Arial', 'Helvetica', 'Avant Garde', sans-serif; text-anchor: start" x="956.930707" y="301.45018" transform="rotate(-0 956.930707 301.45018)">-15.0</text>
      </g>
     </g>
     <g id="ytick_3">
      <g id="line2d_5">
       <path d="M 949.930707 235.428473 
L 949.930707 235.428473 
" clip-path="url(#pd18dbabdf1)" style="fill: none; stroke: #b0b0b0; stroke-opacity: 0.18; stroke-width: 0.7; stroke-linecap: square"/>
      </g>
      <g id="line2d_6">
       <g>
        <use xlink:href="#m3e12269e31" x="949.930707" y="235.428473" style="fill: #333333; stroke: #333333; stroke-width: 0.8"/>
       </g>
      </g>
      <g id="text_3">
       <text style="fill: #333333; font: 9.2px 'DejaVu Sans', 'Bitstream Vera Sans', 'Computer Modern Sans Serif', 'Lucida Grande', 'Verdana', 'Geneva', 'Lucid', 'Arial', 'Helvetica', 'Avant Garde', sans-serif; text-anchor: start" x="956.930707" y="238.923754" transform="rotate(-0 956.930707 238.923754)">-10.0</text>
      </g>
     </g>
     <g id="ytick_4">
      <g id="line2d_7">
       <path d="M 949.930707 172.902047 
L 949.930707 172.902047 
" clip-path="url(#pd18dbabdf1)" style="fill: none; stroke: #b0b0b0; stroke-opacity: 0.18; stroke-width: 0.7; stroke-linecap: square"/>
      </g>
      <g id="line2d_8">
       <g>
        <use xlink:href="#m3e12269e31" x="949.930707" y="172.902047" style="fill: #333333; stroke: #333333; stroke-width: 0.8"/>
       </g>
      </g>
      <g id="text_4">
       <text style="fill: #333333; font: 9.2px 'DejaVu Sans', 'Bitstream Vera Sans', 'Computer Modern Sans Serif', 'Lucida Grande', 'Verdana', 'Geneva', 'Lucid', 'Arial', 'Helvetica', 'Avant Garde', sans-serif; text-anchor: start" x="956.930707" y="176.397328" transform="rotate(-0 956.930707 176.397328)">-5.0</text>
      </g>
     </g>
     <g id="ytick_5">
      <g id="line2d_9">
       <path d="M 949.930707 110.375621 
L 949.930707 110.375621 
" clip-path="url(#pd18dbabdf1)" style="fill: none; stroke: #b0b0b0; stroke-opacity: 0.18; stroke-width: 0.7; stroke-linecap: square"/>
      </g>
      <g id="line2d_10">
       <g>
        <use xlink:href="#m3e12269e31" x="949.930707" y="110.375621" style="fill: #333333; stroke: #333333; stroke-width: 0.8"/>
       </g>
      </g>
      <g id="text_5">
       <text style="fill: #333333; font: 9.2px 'DejaVu Sans', 'Bitstream Vera Sans', 'Computer Modern Sans Serif', 'Lucida Grande', 'Verdana', 'Geneva', 'Lucid', 'Arial', 'Helvetica', 'Avant Garde', sans-serif; text-anchor: start" x="956.930707" y="113.870902" transform="rotate(-0 956.930707 113.870902)">0.0</text>
      </g>
     </g>
     <g id="ytick_6">
      <g id="line2d_11">
       <path d="M 949.930707 47.849195 
L 949.930707 47.849195 
" clip-path="url(#pd18dbabdf1)" style="fill: none; stroke: #b0b0b0; stroke-opacity: 0.18; stroke-width: 0.7; stroke-linecap: square"/>
      </g>
      <g id="line2d_12">
       <g>
        <use xlink:href="#m3e12269e31" x="949.930707" y="47.849195" style="fill: #333333; stroke: #333333; stroke-width: 0.8"/>
       </g>
      </g>
      <g id="text_6">
       <text style="fill: #333333; font: 9.2px 'DejaVu Sans', 'Bitstream Vera Sans', 'Computer Modern Sans Serif', 'Lucida Grande', 'Verdana', 'Geneva', 'Lucid', 'Arial', 'Helvetica', 'Avant Garde', sans-serif; text-anchor: start" x="956.930707" y="51.344476" transform="rotate(-0 956.930707 51.344476)">5.0</text>
      </g>
     </g>
     <g id="text_7">
      <text style="fill: #222222; font: 10.4px 'DejaVu Sans', 'Bitstream Vera Sans', 'Computer Modern Sans Serif', 'Lucida Grande', 'Verdana', 'Geneva', 'Lucid', 'Arial', 'Helvetica', 'Avant Garde', sans-serif; text-anchor: middle" x="992.636645" y="192.002182" transform="rotate(-90 992.636645 192.002182)">margen absoluto a umbral (mm)</text>
     </g>
    </g>
    <g id="patch_4">
     <path d="M 949.930707 361.53427 
L 949.930707 22.470094 
" style="fill: none; stroke: #444444; stroke-width: 0.8; stroke-linejoin: miter; stroke-linecap: square"/>
    </g>
   </g>
   <g id="patch_5">
    <path d="M 102.779223 110.375621 
L 115.214474 110.375621 
L 115.214474 351.487924 
L 102.779223 351.487924 
z
" clip-path="url(#p682dc1ec8a)" style="fill: #b73b3b; opacity: 0.9; stroke: #333333; stroke-width: 0.45; stroke-linejoin: miter"/>
   </g>
   <g id="patch_6">
    <path d="M 118.323287 110.375621 
L 130.758538 110.375621 
L 130.758538 65.421412 
L 118.323287 65.421412 
z
" clip-path="url(#p682dc1ec8a)" style="fill: #2f7d4f; opacity: 0.9; stroke: #333333; stroke-width: 0.45; stroke-linejoin: miter"/>
   </g>
   <g id="patch_7">
    <path d="M 133.867351 110.375621 
L 146.302602 110.375621 
L 146.302602 110.639727 
L 133.867351 110.639727 
z
" clip-path="url(#p682dc1ec8a)" style="fill: #b73b3b; opacity: 0.9; stroke: #333333; stroke-width: 0.45; stroke-linejoin: miter"/>
   </g>
   <g id="patch_8">
    <path d="M 149.411414 110.375621 
L 161.846666 110.375621 
L 161.846666 63.053024 
L 149.411414 63.053024 
z
" clip-path="url(#p682dc1ec8a)" style="fill: #2f7d4f; opacity: 0.9; stroke: #333333; stroke-width: 0.45; stroke-linejoin: miter"/>
   </g>
   <g id="patch_9">
    <path d="M 164.955478 110.375621 
L 177.39073 110.375621 
L 177.39073 351.487924 
L 164.955478 351.487924 
z
" clip-path="url(#p682dc1ec8a)" style="fill: #b73b3b; opacity: 0.9; stroke: #333333; stroke-width: 0.45; stroke-linejoin: miter"/>
   </g>
   <g id="patch_10">
    <path d="M 180.499542 110.375621 
L 192.934793 110.375621 
L 192.934793 63.063157 
L 180.499542 63.063157 
z
" clip-path="url(#p682dc1ec8a)" style="fill: #2f7d4f; opacity: 0.9; stroke: #333333; stroke-width: 0.45; stroke-linejoin: miter"/>
   </g>
   <g id="patch_11">
    <path d="M 196.043606 110.375621 
L 208.478857 110.375621 
L 208.478857 66.484587 
L 196.043606 66.484587 
z
" clip-path="url(#p682dc1ec8a)" style="fill: #2f7d4f; opacity: 0.9; stroke: #333333; stroke-width: 0.45; stroke-linejoin: miter"/>
   </g>
   <g id="patch_12">
    <path d="M 211.58767 110.375621 
L 224.022921 110.375621 
L 224.022921 65.424822 
L 211.58767 65.424822 
z
" clip-path="url(#p682dc1ec8a)" style="fill: #2f7d4f; opacity: 0.9; stroke: #333333; stroke-width: 0.45; stroke-linejoin: miter"/>
   </g>
   <g id="patch_13">
    <path d="M 227.131734 110.375621 
L 239.566985 110.375621 
L 239.566985 122.812919 
L 227.131734 122.812919 
z
" clip-path="url(#p682dc1ec8a)" style="fill: #b73b3b; opacity: 0.9; stroke: #333333; stroke-width: 0.45; stroke-linejoin: miter"/>
   </g>
   <g id="patch_14">
    <path d="M 242.675798 110.375621 
L 255.111049 110.375621 
L 255.111049 95.07507 
L 242.675798 95.07507 
z
" clip-path="url(#p682dc1ec8a)" style="fill: #2f7d4f; opacity: 0.9; stroke: #333333; stroke-width: 0.45; stroke-linejoin: miter"/>
   </g>
   <g id="patch_15">
    <path d="M 258.219862 110.375621 
L 270.655113 110.375621 
L 270.655113 76.618132 
L 258.219862 76.618132 
z
" clip-path="url(#p682dc1ec8a)" style="fill: #2f7d4f; opacity: 0.9; stroke: #333333; stroke-width: 0.45; stroke-linejoin: miter"/>
   </g>
   <g id="patch_16">
    <path d="M 273.763926 110.375621 
L 286.199177 110.375621 
L 286.199177 351.487924 
L 273.763926 351.487924 
z
" clip-path="url(#p682dc1ec8a)" style="fill: #b73b3b; opacity: 0.9; stroke: #333333; stroke-width: 0.45; stroke-linejoin: miter"/>
   </g>
   <g id="patch_17">
    <path d="M 289.30799 110.375621 
L 301.743241 110.375621 
L 301.743241 351.487924 
L 289.30799 351.487924 
z
" clip-path="url(#p682dc1ec8a)" style="fill: #b73b3b; opacity: 0.9; stroke: #333333; stroke-width: 0.45; stroke-linejoin: miter"/>
   </g>
   <g id="patch_18">
    <path d="M 304.852054 110.375621 
L 317.287305 110.375621 
L 317.287305 63.060662 
L 304.852054 63.060662 
z
" clip-path="url(#p682dc1ec8a)" style="fill: #2f7d4f; opacity: 0.9; stroke: #333333; stroke-width: 0.45; stroke-linejoin: miter"/>
   </g>
   <g id="patch_19">
    <path d="M 320.396118 110.375621 
L 332.831369 110.375621 
L 332.831369 63.061248 
L 320.396118 63.061248 
z
" clip-path="url(#p682dc1ec8a)" style="fill: #2f7d4f; opacity: 0.9; stroke: #333333; stroke-width: 0.45; stroke-linejoin: miter"/>
   </g>
   <g id="patch_20">
    <path d="M 335.940182 110.375621 
L 348.375433 110.375621 
L 348.375433 63.063157 
L 335.940182 63.063157 
z
" clip-path="url(#p682dc1ec8a)" style="fill: #2f7d4f; opacity: 0.9; stroke: #333333; stroke-width: 0.45; stroke-linejoin: miter"/>
   </g>
   <g id="patch_21">
    <path d="M 351.484246 110.375621 
L 363.919497 110.375621 
L 363.919497 129.651653 
L 351.484246 129.651653 
z
" clip-path="url(#p682dc1ec8a)" style="fill: #b73b3b; opacity: 0.9; stroke: #333333; stroke-width: 0.45; stroke-linejoin: miter"/>
   </g>
   <g id="patch_22">
    <path d="M 367.02831 110.375621 
L 379.463561 110.375621 
L 379.463561 149.147576 
L 367.02831 149.147576 
z
" clip-path="url(#p682dc1ec8a)" style="fill: #b73b3b; opacity: 0.9; stroke: #333333; stroke-width: 0.45; stroke-linejoin: miter"/>
   </g>
   <g id="patch_23">
    <path d="M 382.572374 110.375621 
L 395.007625 110.375621 
L 395.007625 100.96346 
L 382.572374 100.96346 
z
" clip-path="url(#p682dc1ec8a)" style="fill: #2f7d4f; opacity: 0.9; stroke: #333333; stroke-width: 0.45; stroke-linejoin: miter"/>
   </g>
   <g id="patch_24">
    <path d="M 398.116438 110.375621 
L 410.551689 110.375621 
L 410.551689 348.387266 
L 398.116438 348.387266 
z
" clip-path="url(#p682dc1ec8a)" style="fill: #b73b3b; opacity: 0.9; stroke: #333333; stroke-width: 0.45; stroke-linejoin: miter"/>
   </g>
   <g id="patch_25">
    <path d="M 413.660501 110.375621 
L 426.095753 110.375621 
L 426.095753 155.038253 
L 413.660501 155.038253 
z
" clip-path="url(#p682dc1ec8a)" style="fill: #b73b3b; opacity: 0.9; stroke: #333333; stroke-width: 0.45; stroke-linejoin: miter"/>
   </g>
   <g id="patch_26">
    <path d="M 429.204565 110.375621 
L 441.639817 110.375621 
L 441.639817 351.487924 
L 429.204565 351.487924 
z
" clip-path="url(#p682dc1ec8a)" style="fill: #b73b3b; opacity: 0.9; stroke: #333333; stroke-width: 0.45; stroke-linejoin: miter"/>
   </g>
   <g id="patch_27">
    <path d="M 444.748629 110.375621 
L 457.18388 110.375621 
L 457.18388 351.487924 
L 444.748629 351.487924 
z
" clip-path="url(#p682dc1ec8a)" style="fill: #b73b3b; opacity: 0.9; stroke: #333333; stroke-width: 0.45; stroke-linejoin: miter"/>
   </g>
   <g id="patch_28">
    <path d="M 460.292693 110.375621 
L 472.727944 110.375621 
L 472.727944 116.153906 
L 460.292693 116.153906 
z
" clip-path="url(#p682dc1ec8a)" style="fill: #b73b3b; opacity: 0.9; stroke: #333333; stroke-width: 0.45; stroke-linejoin: miter"/>
   </g>
   <g id="patch_29">
    <path d="M 475.836757 110.375621 
L 488.272008 110.375621 
L 488.272008 63.061248 
L 475.836757 63.061248 
z
" clip-path="url(#p682dc1ec8a)" style="fill: #2f7d4f; opacity: 0.9; stroke: #333333; stroke-width: 0.45; stroke-linejoin: miter"/>
   </g>
   <g id="patch_30">
    <path d="M 491.380821 110.375621 
L 503.816072 110.375621 
L 503.816072 351.487924 
L 491.380821 351.487924 
z
" clip-path="url(#p682dc1ec8a)" style="fill: #b73b3b; opacity: 0.9; stroke: #333333; stroke-width: 0.45; stroke-linejoin: miter"/>
   </g>
   <g id="patch_31">
    <path d="M 506.924885 110.375621 
L 519.360136 110.375621 
L 519.360136 101.312531 
L 506.924885 101.312531 
z
" clip-path="url(#p682dc1ec8a)" style="fill: #2f7d4f; opacity: 0.9; stroke: #333333; stroke-width: 0.45; stroke-linejoin: miter"/>
   </g>
   <g id="patch_32">
    <path d="M 522.468949 110.375621 
L 534.9042 110.375621 
L 534.9042 63.05076 
L 522.468949 63.05076 
z
" clip-path="url(#p682dc1ec8a)" style="fill: #2f7d4f; opacity: 0.9; stroke: #333333; stroke-width: 0.45; stroke-linejoin: miter"/>
   </g>
   <g id="patch_33">
    <path d="M 538.013013 110.375621 
L 550.448264 110.375621 
L 550.448264 63.05076 
L 538.013013 63.05076 
z
" clip-path="url(#p682dc1ec8a)" style="fill: #2f7d4f; opacity: 0.9; stroke: #333333; stroke-width: 0.45; stroke-linejoin: miter"/>
   </g>
   <g id="patch_34">
    <path d="M 553.557077 110.375621 
L 565.992328 110.375621 
L 565.992328 351.487924 
L 553.557077 351.487924 
z
" clip-path="url(#p682dc1ec8a)" style="fill: #b73b3b; opacity: 0.9; stroke: #333333; stroke-width: 0.45; stroke-linejoin: miter"/>
   </g>
   <g id="patch_35">
    <path d="M 569.101141 110.375621 
L 581.536392 110.375621 
L 581.536392 63.065416 
L 569.101141 63.065416 
z
" clip-path="url(#p682dc1ec8a)" style="fill: #2f7d4f; opacity: 0.9; stroke: #333333; stroke-width: 0.45; stroke-linejoin: miter"/>
   </g>
   <g id="patch_36">
    <path d="M 584.645205 110.375621 
L 597.080456 110.375621 
L 597.080456 351.487924 
L 584.645205 351.487924 
z
" clip-path="url(#p682dc1ec8a)" style="fill: #b73b3b; opacity: 0.9; stroke: #333333; stroke-width: 0.45; stroke-linejoin: miter"/>
   </g>
   <g id="patch_37">
    <path d="M 600.189269 110.375621 
L 612.62452 110.375621 
L 612.62452 121.024087 
L 600.189269 121.024087 
z
" clip-path="url(#p682dc1ec8a)" style="fill: #b73b3b; opacity: 0.9; stroke: #333333; stroke-width: 0.45; stroke-linejoin: miter"/>
   </g>
   <g id="patch_38">
    <path d="M 615.733333 110.375621 
L 628.168584 110.375621 
L 628.168584 63.078826 
L 615.733333 63.078826 
z
" clip-path="url(#p682dc1ec8a)" style="fill: #2f7d4f; opacity: 0.9; stroke: #333333; stroke-width: 0.45; stroke-linejoin: miter"/>
   </g>
   <g id="patch_39">
    <path d="M 631.277397 110.375621 
L 643.712648 110.375621 
L 643.712648 63.06095 
L 631.277397 63.06095 
z
" clip-path="url(#p682dc1ec8a)" style="fill: #2f7d4f; opacity: 0.9; stroke: #333333; stroke-width: 0.45; stroke-linejoin: miter"/>
   </g>
   <g id="patch_40">
    <path d="M 646.821461 110.375621 
L 659.256712 110.375621 
L 659.256712 143.53143 
L 646.821461 143.53143 
z
" clip-path="url(#p682dc1ec8a)" style="fill: #b73b3b; opacity: 0.9; stroke: #333333; stroke-width: 0.45; stroke-linejoin: miter"/>
   </g>
   <g id="patch_41">
    <path d="M 662.365525 110.375621 
L 674.800776 110.375621 
L 674.800776 63.04855 
L 662.365525 63.04855 
z
" clip-path="url(#p682dc1ec8a)" style="fill: #2f7d4f; opacity: 0.9; stroke: #333333; stroke-width: 0.45; stroke-linejoin: miter"/>
   </g>
   <g id="patch_42">
    <path d="M 677.909588 110.375621 
L 690.34484 110.375621 
L 690.34484 63.04855 
L 677.909588 63.04855 
z
" clip-path="url(#p682dc1ec8a)" style="fill: #2f7d4f; opacity: 0.9; stroke: #333333; stroke-width: 0.45; stroke-linejoin: miter"/>
   </g>
   <g id="patch_43">
    <path d="M 693.453652 110.375621 
L 705.888904 110.375621 
L 705.888904 72.502963 
L 693.453652 72.502963 
z
" clip-path="url(#p682dc1ec8a)" style="fill: #2f7d4f; opacity: 0.9; stroke: #333333; stroke-width: 0.45; stroke-linejoin: miter"/>
   </g>
   <g id="patch_44">
    <path d="M 708.997716 110.375621 
L 721.432967 110.375621 
L 721.432967 63.063799 
L 708.997716 63.063799 
z
" clip-path="url(#p682dc1ec8a)" style="fill: #2f7d4f; opacity: 0.9; stroke: #333333; stroke-width: 0.45; stroke-linejoin: miter"/>
   </g>
   <g id="patch_45">
    <path d="M 724.54178 110.375621 
L 736.977031 110.375621 
L 736.977031 63.82853 
L 724.54178 63.82853 
z
" clip-path="url(#p682dc1ec8a)" style="fill: #2f7d4f; opacity: 0.9; stroke: #333333; stroke-width: 0.45; stroke-linejoin: miter"/>
   </g>
   <g id="patch_46">
    <path d="M 740.085844 110.375621 
L 752.521095 110.375621 
L 752.521095 63.483416 
L 740.085844 63.483416 
z
" clip-path="url(#p682dc1ec8a)" style="fill: #2f7d4f; opacity: 0.9; stroke: #333333; stroke-width: 0.45; stroke-linejoin: miter"/>
   </g>
   <g id="patch_47">
    <path d="M 755.629908 110.375621 
L 768.065159 110.375621 
L 768.065159 66.076324 
L 755.629908 66.076324 
z
" clip-path="url(#p682dc1ec8a)" style="fill: #2f7d4f; opacity: 0.9; stroke: #333333; stroke-width: 0.45; stroke-linejoin: miter"/>
   </g>
   <g id="patch_48">
    <path d="M 771.173972 110.375621 
L 783.609223 110.375621 
L 783.609223 76.214424 
L 771.173972 76.214424 
z
" clip-path="url(#p682dc1ec8a)" style="fill: #2f7d4f; opacity: 0.9; stroke: #333333; stroke-width: 0.45; stroke-linejoin: miter"/>
   </g>
   <g id="patch_49">
    <path d="M 786.718036 110.375621 
L 799.153287 110.375621 
L 799.153287 65.712843 
L 786.718036 65.712843 
z
" clip-path="url(#p682dc1ec8a)" style="fill: #2f7d4f; opacity: 0.9; stroke: #333333; stroke-width: 0.45; stroke-linejoin: miter"/>
   </g>
   <g id="patch_50">
    <path d="M 802.2621 110.375621 
L 814.697351 110.375621 
L 814.697351 112.788018 
L 802.2621 112.788018 
z
" clip-path="url(#p682dc1ec8a)" style="fill: #b73b3b; opacity: 0.9; stroke: #333333; stroke-width: 0.45; stroke-linejoin: miter"/>
   </g>
   <g id="patch_51">
    <path d="M 817.806164 110.375621 
L 830.241415 110.375621 
L 830.241415 101.738212 
L 817.806164 101.738212 
z
" clip-path="url(#p682dc1ec8a)" style="fill: #2f7d4f; opacity: 0.9; stroke: #333333; stroke-width: 0.45; stroke-linejoin: miter"/>
   </g>
   <g id="patch_52">
    <path d="M 833.350228 110.375621 
L 845.785479 110.375621 
L 845.785479 351.487924 
L 833.350228 351.487924 
z
" clip-path="url(#p682dc1ec8a)" style="fill: #b73b3b; opacity: 0.9; stroke: #333333; stroke-width: 0.45; stroke-linejoin: miter"/>
   </g>
   <g id="patch_53">
    <path d="M 848.894292 110.375621 
L 861.329543 110.375621 
L 861.329543 89.195598 
L 848.894292 89.195598 
z
" clip-path="url(#p682dc1ec8a)" style="fill: #2f7d4f; opacity: 0.9; stroke: #333333; stroke-width: 0.45; stroke-linejoin: miter"/>
   </g>
   <g id="patch_54">
    <path d="M 864.438356 110.375621 
L 876.873607 110.375621 
L 876.873607 327.860142 
L 864.438356 327.860142 
z
" clip-path="url(#p682dc1ec8a)" style="fill: #b73b3b; opacity: 0.9; stroke: #333333; stroke-width: 0.45; stroke-linejoin: miter"/>
   </g>
   <g id="patch_55">
    <path d="M 879.98242 110.375621 
L 892.417671 110.375621 
L 892.417671 131.966969 
L 879.98242 131.966969 
z
" clip-path="url(#p682dc1ec8a)" style="fill: #b73b3b; opacity: 0.9; stroke: #333333; stroke-width: 0.45; stroke-linejoin: miter"/>
   </g>
   <g id="patch_56">
    <path d="M 895.526484 110.375621 
L 907.961735 110.375621 
L 907.961735 252.757601 
L 895.526484 252.757601 
z
" clip-path="url(#p682dc1ec8a)" style="fill: #b73b3b; opacity: 0.9; stroke: #333333; stroke-width: 0.45; stroke-linejoin: miter"/>
   </g>
   <g id="patch_57">
    <path d="M 101.224816 361.53427 
L 101.224816 22.470094 
L 178.945136 22.470094 
L 178.945136 361.53427 
z
" clip-path="url(#p682dc1ec8a)" style="fill: #6a3d9a; opacity: 0.055"/>
   </g>
   <g id="patch_58">
    <path d="M 178.945136 361.53427 
L 178.945136 22.470094 
L 303.297647 22.470094 
L 303.297647 361.53427 
z
" clip-path="url(#p682dc1ec8a)" style="fill: #009e73; opacity: 0.055"/>
   </g>
   <g id="patch_59">
    <path d="M 303.297647 361.53427 
L 303.297647 22.470094 
L 458.738287 22.470094 
L 458.738287 361.53427 
z
" clip-path="url(#p682dc1ec8a)" style="fill: #e69f00; opacity: 0.055"/>
   </g>
   <g id="patch_60">
    <path d="M 458.738287 361.53427 
L 458.738287 22.470094 
L 629.72299 22.470094 
L 629.72299 361.53427 
z
" clip-path="url(#p682dc1ec8a)" style="fill: #56b4e9; opacity: 0.055"/>
   </g>
   <g id="patch_61">
    <path d="M 629.72299 361.53427 
L 629.72299 22.470094 
L 754.075502 22.470094 
L 754.075502 361.53427 
z
" clip-path="url(#p682dc1ec8a)" style="fill: #d55e00; opacity: 0.055"/>
   </g>
   <g id="patch_62">
    <path d="M 754.075502 361.53427 
L 754.075502 22.470094 
L 909.516141 22.470094 
L 909.516141 361.53427 
z
" clip-path="url(#p682dc1ec8a)" style="fill: #cc79a7; opacity: 0.055"/>
   </g>
   <g id="matplotlib.axis_3">
    <g id="text_8">
     <text style="fill: #222222; font: 10.4px 'DejaVu Sans', 'Bitstream Vera Sans', 'Computer Modern Sans Serif', 'Lucida Grande', 'Verdana', 'Geneva', 'Lucid', 'Arial', 'Helvetica', 'Avant Garde', sans-serif; text-anchor: middle" x="505.370479" y="373.436645" transform="rotate(-0 505.370479 373.436645)">casos ordenados por lote</text>
    </g>
   </g>
   <g id="matplotlib.axis_4">
    <g id="ytick_7">
     <g id="line2d_13">
      <path d="M 60.81025 361.53427 
L 949.930707 361.53427 
" clip-path="url(#p682dc1ec8a)" style="fill: none; stroke: #b0b0b0; stroke-opacity: 0.18; stroke-width: 0.7; stroke-linecap: square"/>
     </g>
     <g id="line2d_14">
      <defs>
       <path id="m701ae2b349" d="M 0 0 
L -3.5 0 
" style="stroke: #333333; stroke-width: 0.8"/>
      </defs>
      <g>
       <use xlink:href="#m701ae2b349" x="60.81025" y="361.53427" style="fill: #333333; stroke: #333333; stroke-width: 0.8"/>
      </g>
     </g>
     <g id="text_9">
      <text style="fill: #333333; font: 9.2px 'DejaVu Sans', 'Bitstream Vera Sans', 'Computer Modern Sans Serif', 'Lucida Grande', 'Verdana', 'Geneva', 'Lucid', 'Arial', 'Helvetica', 'Avant Garde', sans-serif; text-anchor: end" x="53.81025" y="365.029551" transform="rotate(-0 53.81025 365.029551)">-20.0%</text>
     </g>
    </g>
    <g id="ytick_8">
     <g id="line2d_15">
      <path d="M 60.81025 298.744608 
L 949.930707 298.744608 
" clip-path="url(#p682dc1ec8a)" style="fill: none; stroke: #b0b0b0; stroke-opacity: 0.18; stroke-width: 0.7; stroke-linecap: square"/>
     </g>
     <g id="line2d_16">
      <g>
       <use xlink:href="#m701ae2b349" x="60.81025" y="298.744608" style="fill: #333333; stroke: #333333; stroke-width: 0.8"/>
      </g>
     </g>
     <g id="text_10">
      <text style="fill: #333333; font: 9.2px 'DejaVu Sans', 'Bitstream Vera Sans', 'Computer Modern Sans Serif', 'Lucida Grande', 'Verdana', 'Geneva', 'Lucid', 'Arial', 'Helvetica', 'Avant Garde', sans-serif; text-anchor: end" x="53.81025" y="302.239889" transform="rotate(-0 53.81025 302.239889)">-15.0%</text>
     </g>
    </g>
    <g id="ytick_9">
     <g id="line2d_17">
      <path d="M 60.81025 235.954945 
L 949.930707 235.954945 
" clip-path="url(#p682dc1ec8a)" style="fill: none; stroke: #b0b0b0; stroke-opacity: 0.18; stroke-width: 0.7; stroke-linecap: square"/>
     </g>
     <g id="line2d_18">
      <g>
       <use xlink:href="#m701ae2b349" x="60.81025" y="235.954945" style="fill: #333333; stroke: #333333; stroke-width: 0.8"/>
      </g>
     </g>
     <g id="text_11">
      <text style="fill: #333333; font: 9.2px 'DejaVu Sans', 'Bitstream Vera Sans', 'Computer Modern Sans Serif', 'Lucida Grande', 'Verdana', 'Geneva', 'Lucid', 'Arial', 'Helvetica', 'Avant Garde', sans-serif; text-anchor: end" x="53.81025" y="239.450227" transform="rotate(-0 53.81025 239.450227)">-10.0%</text>
     </g>
    </g>
    <g id="ytick_10">
     <g id="line2d_19">
      <path d="M 60.81025 173.165283 
L 949.930707 173.165283 
" clip-path="url(#p682dc1ec8a)" style="fill: none; stroke: #b0b0b0; stroke-opacity: 0.18; stroke-width: 0.7; stroke-linecap: square"/>
     </g>
     <g id="line2d_20">
      <g>
       <use xlink:href="#m701ae2b349" x="60.81025" y="173.165283" style="fill: #333333; stroke: #333333; stroke-width: 0.8"/>
      </g>
     </g>
     <g id="text_12">
      <text style="fill: #333333; font: 9.2px 'DejaVu Sans', 'Bitstream Vera Sans', 'Computer Modern Sans Serif', 'Lucida Grande', 'Verdana', 'Geneva', 'Lucid', 'Arial', 'Helvetica', 'Avant Garde', sans-serif; text-anchor: end" x="53.81025" y="176.660564" transform="rotate(-0 53.81025 176.660564)">-5.0%</text>
     </g>
    </g>
    <g id="ytick_11">
     <g id="line2d_21">
      <path d="M 60.81025 110.375621 
L 949.930707 110.375621 
" clip-path="url(#p682dc1ec8a)" style="fill: none; stroke: #b0b0b0; stroke-opacity: 0.18; stroke-width: 0.7; stroke-linecap: square"/>
     </g>
     <g id="line2d_22">
      <g>
       <use xlink:href="#m701ae2b349" x="60.81025" y="110.375621" style="fill: #333333; stroke: #333333; stroke-width: 0.8"/>
      </g>
     </g>
     <g id="text_13">
      <text style="fill: #333333; font: 9.2px 'DejaVu Sans', 'Bitstream Vera Sans', 'Computer Modern Sans Serif', 'Lucida Grande', 'Verdana', 'Geneva', 'Lucid', 'Arial', 'Helvetica', 'Avant Garde', sans-serif; text-anchor: end" x="53.81025" y="113.870902" transform="rotate(-0 53.81025 113.870902)">0.0%</text>
     </g>
    </g>
    <g id="ytick_12">
     <g id="line2d_23">
      <path d="M 60.81025 47.585959 
L 949.930707 47.585959 
" clip-path="url(#p682dc1ec8a)" style="fill: none; stroke: #b0b0b0; stroke-opacity: 0.18; stroke-width: 0.7; stroke-linecap: square"/>
     </g>
     <g id="line2d_24">
      <g>
       <use xlink:href="#m701ae2b349" x="60.81025" y="47.585959" style="fill: #333333; stroke: #333333; stroke-width: 0.8"/>
      </g>
     </g>
     <g id="text_14">
      <text style="fill: #333333; font: 9.2px 'DejaVu Sans', 'Bitstream Vera Sans', 'Computer Modern Sans Serif', 'Lucida Grande', 'Verdana', 'Geneva', 'Lucid', 'Arial', 'Helvetica', 'Avant Garde', sans-serif; text-anchor: end" x="53.81025" y="51.08124" transform="rotate(-0 53.81025 51.08124)">5.0%</text>
     </g>
    </g>
    <g id="text_15">
     <text style="fill: #222222; font: 10.4px 'DejaVu Sans', 'Bitstream Vera Sans', 'Computer Modern Sans Serif', 'Lucida Grande', 'Verdana', 'Geneva', 'Lucid', 'Arial', 'Helvetica', 'Avant Garde', sans-serif; text-anchor: middle" x="15.102375" y="192.002182" transform="rotate(-90 15.102375 192.002182)">margen al umbral (%)</text>
    </g>
   </g>
   <g id="line2d_25">
    <path d="M 60.81025 110.375621 
L 949.930707 110.375621 
" clip-path="url(#p682dc1ec8a)" style="fill: none; stroke: #222222; stroke-width: 1.25; stroke-linecap: square"/>
   </g>
   <g id="patch_63">
    <path d="M 60.81025 361.53427 
L 60.81025 22.470094 
" style="fill: none; stroke: #444444; stroke-width: 0.8; stroke-linejoin: miter; stroke-linecap: square"/>
   </g>
   <g id="patch_64">
    <path d="M 60.81025 361.53427 
L 949.930707 361.53427 
" style="fill: none; stroke: #444444; stroke-width: 0.8; stroke-linejoin: miter; stroke-linecap: square"/>
   </g>
   <g id="text_16">
    <g id="patch_65">
     <path d="M 127.701539 33.160406 
L 152.468414 33.160406 
Q 154.448414 33.160406 154.448414 31.180406 
L 154.448414 22.470094 
Q 154.448414 20.490094 152.468414 20.490094 
L 127.701539 20.490094 
Q 125.721539 20.490094 125.721539 22.470094 
L 125.721539 31.180406 
Q 125.721539 33.160406 127.701539 33.160406 
z
" style="fill: #ffffff; stroke: #dddddd; stroke-width: 0.5; stroke-linejoin: miter"/>
    </g>
    <text style="fill: #333333; font: 9px 'DejaVu Sans', 'Bitstream Vera Sans', 'Computer Modern Sans Serif', 'Lucida Grande', 'Verdana', 'Geneva', 'Lucid', 'Arial', 'Helvetica', 'Avant Garde', sans-serif; text-anchor: middle" x="140.084976" y="29.308687" transform="rotate(-0 140.084976 29.308687)">Piloto</text>
   </g>
   <g id="text_17">
    <g id="patch_66">
     <path d="M 225.322876 33.160406 
L 256.919907 33.160406 
Q 258.899907 33.160406 258.899907 31.180406 
L 258.899907 22.470094 
Q 258.899907 20.490094 256.919907 20.490094 
L 225.322876 20.490094 
Q 223.342876 20.490094 223.342876 22.470094 
L 223.342876 31.180406 
Q 223.342876 33.160406 225.322876 33.160406 
z
" style="fill: #ffffff; stroke: #dddddd; stroke-width: 0.5; stroke-linejoin: miter"/>
    </g>
    <text style="fill: #333333; font: 9px 'DejaVu Sans', 'Bitstream Vera Sans', 'Computer Modern Sans Serif', 'Lucida Grande', 'Verdana', 'Geneva', 'Lucid', 'Arial', 'Helvetica', 'Avant Garde', sans-serif; text-anchor: middle" x="241.121392" y="29.308687" transform="rotate(-0 241.121392 29.308687)">Batch2</text>
   </g>
   <g id="text_18">
    <g id="patch_67">
     <path d="M 365.219452 33.160406 
L 396.816483 33.160406 
Q 398.796483 33.160406 398.796483 31.180406 
L 398.796483 22.470094 
Q 398.796483 20.490094 396.816483 20.490094 
L 365.219452 20.490094 
Q 363.239452 20.490094 363.239452 22.470094 
L 363.239452 31.180406 
Q 363.239452 33.160406 365.219452 33.160406 
z
" style="fill: #ffffff; stroke: #dddddd; stroke-width: 0.5; stroke-linejoin: miter"/>
    </g>
    <text style="fill: #333333; font: 9px 'DejaVu Sans', 'Bitstream Vera Sans', 'Computer Modern Sans Serif', 'Lucida Grande', 'Verdana', 'Geneva', 'Lucid', 'Arial', 'Helvetica', 'Avant Garde', sans-serif; text-anchor: middle" x="381.017967" y="29.308687" transform="rotate(-0 381.017967 29.308687)">Batch3</text>
   </g>
   <g id="text_19">
    <g id="patch_68">
     <path d="M 514.759154 33.160406 
L 573.702123 33.160406 
Q 575.682123 33.160406 575.682123 31.180406 
L 575.682123 22.470094 
Q 575.682123 20.490094 573.702123 20.490094 
L 514.759154 20.490094 
Q 512.779154 20.490094 512.779154 22.470094 
L 512.779154 31.180406 
Q 512.779154 33.160406 514.759154 33.160406 
z
" style="fill: #ffffff; stroke: #dddddd; stroke-width: 0.5; stroke-linejoin: miter"/>
    </g>
    <text style="fill: #333333; font: 9px 'DejaVu Sans', 'Bitstream Vera Sans', 'Computer Modern Sans Serif', 'Lucida Grande', 'Verdana', 'Geneva', 'Lucid', 'Arial', 'Helvetica', 'Avant Garde', sans-serif; text-anchor: middle" x="544.230639" y="29.308687" transform="rotate(-0 544.230639 29.308687)">Batch4 masa</text>
   </g>
   <g id="text_20">
    <g id="patch_69">
     <path d="M 683.450496 33.160406 
L 700.347996 33.160406 
Q 702.327996 33.160406 702.327996 31.180406 
L 702.327996 22.470094 
Q 702.327996 20.490094 700.347996 20.490094 
L 683.450496 20.490094 
Q 681.470496 20.490094 681.470496 22.470094 
L 681.470496 31.180406 
Q 681.470496 33.160406 683.450496 33.160406 
z
" style="fill: #ffffff; stroke: #dddddd; stroke-width: 0.5; stroke-linejoin: miter"/>
    </g>
    <text style="fill: #333333; font: 9px 'DejaVu Sans', 'Bitstream Vera Sans', 'Computer Modern Sans Serif', 'Lucida Grande', 'Verdana', 'Geneva', 'Lucid', 'Arial', 'Helvetica', 'Avant Garde', sans-serif; text-anchor: middle" x="691.899246" y="29.308687" transform="rotate(-0 691.899246 29.308687)">AL1</text>
   </g>
   <g id="text_21">
    <g id="patch_70">
     <path d="M 823.347071 33.160406 
L 840.244571 33.160406 
Q 842.224571 33.160406 842.224571 31.180406 
L 842.224571 22.470094 
Q 842.224571 20.490094 840.244571 20.490094 
L 823.347071 20.490094 
Q 821.367071 20.490094 821.367071 22.470094 
L 821.367071 31.180406 
Q 821.367071 33.160406 823.347071 33.160406 
z
" style="fill: #ffffff; stroke: #dddddd; stroke-width: 0.5; stroke-linejoin: miter"/>
    </g>
    <text style="fill: #333333; font: 9px 'DejaVu Sans', 'Bitstream Vera Sans', 'Computer Modern Sans Serif', 'Lucida Grande', 'Verdana', 'Geneva', 'Lucid', 'Arial', 'Helvetica', 'Avant Garde', sans-serif; text-anchor: middle" x="831.795821" y="29.308687" transform="rotate(-0 831.795821 29.308687)">AL2</text>
   </g>
   <g id="text_22">
    <g id="patch_71">
     <path d="M 78.592659 346.656061 
L 169.707206 346.656061 
Q 171.782206 346.656061 171.782206 344.581061 
L 171.782206 327.254033 
Q 171.782206 325.179033 169.707206 325.179033 
L 78.592659 325.179033 
Q 76.517659 325.179033 76.517659 327.254033 
L 76.517659 344.581061 
Q 76.517659 346.656061 78.592659 346.656061 
z
" style="fill: #ffffff; stroke: #dddddd; stroke-width: 0.5; stroke-linejoin: miter"/>
    </g>
    <text style="fill: #555555; font: 8.3px 'DejaVu Sans', 'Bitstream Vera Sans', 'Computer Modern Sans Serif', 'Lucida Grande', 'Verdana', 'Geneva', 'Lucid', 'Arial', 'Helvetica', 'Avant Garde', sans-serif" transform="translate(78.592659 333.560736)">10 caso(s) extremo(s)</text>
    <text style="fill: #555555; font: 8.3px 'DejaVu Sans', 'Bitstream Vera Sans', 'Computer Modern Sans Serif', 'Lucida Grande', 'Verdana', 'Geneva', 'Lucid', 'Arial', 'Helvetica', 'Avant Garde', sans-serif" transform="translate(78.592659 342.854921)">fuera de escala</text>
   </g>
   <g id="text_23">
    <text style="font: 700 12.2px 'DejaVu Sans', 'Bitstream Vera Sans', 'Computer Modern Sans Serif', 'Lucida Grande', 'Verdana', 'Geneva', 'Lucid', 'Arial', 'Helvetica', 'Avant Garde', sans-serif; text-anchor: middle" x="505.370479" y="16.470094" transform="rotate(-0 505.370479 16.470094)">Historia de lotes: del piloto a AL2</text>
   </g>
   <g id="PathCollection_1">
    <defs>
     <path id="m42a12607b6" d="M -0 2.915476 
L 2.915476 -2.915476 
L -2.915476 -2.915476 
z
" style="stroke: #ffffff; stroke-width: 0.4"/>
    </defs>
    <g clip-path="url(#p682dc1ec8a)">
     <use xlink:href="#m42a12607b6" x="108.996848" y="351.487924" style="fill: #222222; stroke: #ffffff; stroke-width: 0.4"/>
     <use xlink:href="#m42a12607b6" x="171.173104" y="351.487924" style="fill: #222222; stroke: #ffffff; stroke-width: 0.4"/>
     <use xlink:href="#m42a12607b6" x="279.981552" y="351.487924" style="fill: #222222; stroke: #ffffff; stroke-width: 0.4"/>
     <use xlink:href="#m42a12607b6" x="295.525616" y="351.487924" style="fill: #222222; stroke: #ffffff; stroke-width: 0.4"/>
     <use xlink:href="#m42a12607b6" x="435.422191" y="351.487924" style="fill: #222222; stroke: #ffffff; stroke-width: 0.4"/>
     <use xlink:href="#m42a12607b6" x="450.966255" y="351.487924" style="fill: #222222; stroke: #ffffff; stroke-width: 0.4"/>
     <use xlink:href="#m42a12607b6" x="497.598447" y="351.487924" style="fill: #222222; stroke: #ffffff; stroke-width: 0.4"/>
     <use xlink:href="#m42a12607b6" x="559.774702" y="351.487924" style="fill: #222222; stroke: #ffffff; stroke-width: 0.4"/>
     <use xlink:href="#m42a12607b6" x="590.86283" y="351.487924" style="fill: #222222; stroke: #ffffff; stroke-width: 0.4"/>
     <use xlink:href="#m42a12607b6" x="839.567853" y="351.487924" style="fill: #222222; stroke: #ffffff; stroke-width: 0.4"/>
    </g>
   </g>
  </g>
 </g>
 <defs>
  <clipPath id="pd18dbabdf1">
   <rect x="949.930707" y="22.470094" width="0" height="339.064176"/>
  </clipPath>
  <clipPath id="p682dc1ec8a">
   <rect x="60.81025" y="22.470094" width="889.120457" height="339.064176"/>
  </clipPath>
 </defs>
</svg>
