<?xml version="1.0" encoding="utf-8" standalone="no"?>
<!DOCTYPE svg PUBLIC "-//W3C//DTD SVG 1.1//EN"
  "http://www.w3.org/Graphics/SVG/1.1/DTD/svg11.dtd">
<svg xmlns:xlink="http://www.w3.org/1999/xlink" width="575.50125pt" height="359.250375pt" viewBox="0 0 575.50125 359.250375" xmlns="http://www.w3.org/2000/svg" version="1.1">
 <metadata>
  <rdf:RDF xmlns:dc="http://purl.org/dc/elements/1.1/" xmlns:cc="http://creativecommons.org/ns#" xmlns:rdf="http://www.w3.org/1999/02/22-rdf-syntax-ns#">
   <cc:Work>
    <dc:type rdf:resource="http://purl.org/dc/dcmitype/StillImage"/>
    <dc:date>2026-05-16T18:14:58.729158</dc:date>
    <dc:format>image/svg+xml</dc:format>
    <dc:creator>
     <cc:Agent>
      <dc:title>Matplotlib v3.7.5, https://matplotlib.org/</dc:title>
     </cc:Agent>
    </dc:creator>
   </cc:Work>
  </rdf:RDF>
 </metadata>
 <defs>
  <style type="text/css">*{stroke-linejoin: round; stroke-linecap: butt}</style>
 </defs>
 <g id="figure_1">
  <g id="patch_1">
   <path d="M 0 359.250375 
L 575.50125 359.250375 
L 575.50125 0 
L 0 0 
z
" style="fill: #ffffff"/>
  </g>
  <g id="axes_1">
   <g id="patch_2">
    <path d="M 43.78125 321.694125 
L 568.30125 321.694125 
L 568.30125 22.318125 
L 43.78125 22.318125 
z
" style="fill: #ffffff"/>
   </g>
   <g id="PolyCollection_1">
    <defs>
     <path id="m105727cfad" d="M 67.623068 -59.569146 
L 67.623068 -50.665103 
L 70.286958 -51.368637 
L 72.950849 -52.102139 
L 75.614739 -52.866368 
L 78.278629 -53.662072 
L 80.94252 -54.489984 
L 83.60641 -55.350821 
L 86.2703 -56.245279 
L 88.934191 -57.174036 
L 91.598081 -58.137745 
L 94.261971 -59.137034 
L 96.925861 -60.172503 
L 99.589752 -61.244722 
L 102.253642 -62.354229 
L 104.917532 -63.501528 
L 107.581423 -64.687085 
L 110.245313 -65.911328 
L 112.909203 -67.174646 
L 115.573094 -68.477384 
L 118.236984 -69.819842 
L 120.900874 -71.202275 
L 123.564764 -72.624889 
L 126.228655 -74.08784 
L 128.892545 -75.591236 
L 131.556435 -77.135128 
L 134.220326 -78.719518 
L 136.884216 -80.344349 
L 139.548106 -82.009513 
L 142.211997 -83.714843 
L 144.875887 -85.460114 
L 147.539777 -87.245047 
L 150.203667 -89.069301 
L 152.867558 -90.932481 
L 155.531448 -92.834132 
L 158.195338 -94.773743 
L 160.859229 -96.750744 
L 163.523119 -98.764509 
L 166.187009 -100.814358 
L 168.8509 -102.899552 
L 171.51479 -105.019302 
L 174.17868 -107.172765 
L 176.84257 -109.359046 
L 179.506461 -111.5772 
L 182.170351 -113.826235 
L 184.834241 -116.105113 
L 187.498132 -118.41275 
L 190.162022 -120.748022 
L 192.825912 -123.109762 
L 195.489803 -125.496769 
L 198.153693 -127.907805 
L 200.817583 -130.341598 
L 203.481473 -132.796847 
L 206.145364 -135.272224 
L 208.809254 -137.766376 
L 211.473144 -140.277928 
L 214.137035 -142.805485 
L 216.800925 -145.347636 
L 219.464815 -147.902957 
L 222.128706 -150.470013 
L 224.792596 -153.047361 
L 227.456486 -155.633554 
L 230.120376 -158.227142 
L 232.784267 -160.826676 
L 235.448157 -163.430709 
L 238.112047 -166.037804 
L 240.775938 -168.646527 
L 243.439828 -171.255461 
L 246.103718 -173.863198 
L 248.767609 -176.468351 
L 251.431499 -179.069547 
L 254.095389 -181.665436 
L 256.759279 -184.254692 
L 259.42317 -186.836011 
L 262.08706 -189.408118 
L 264.75095 -191.969766 
L 267.414841 -194.519738 
L 270.078731 -197.056849 
L 272.742621 -199.579948 
L 275.406512 -202.087918 
L 278.070402 -204.579677 
L 280.734292 -207.054182 
L 283.398182 -209.510427 
L 286.062073 -211.947443 
L 288.725963 -214.364302 
L 291.389853 -216.760117 
L 294.053744 -219.134041 
L 296.717634 -221.485266 
L 299.381524 -223.813027 
L 302.045415 -226.1166 
L 304.709305 -228.395302 
L 307.373195 -230.648493 
L 310.037085 -232.875571 
L 312.700976 -235.075979 
L 315.364866 -237.249196 
L 318.028756 -239.394746 
L 320.692647 -241.512188 
L 323.356537 -243.601126 
L 326.020427 -245.661196 
L 328.684318 -247.692077 
L 331.348208 -249.693484 
L 334.012098 -251.665166 
L 336.675988 -253.606909 
L 339.339879 -255.518535 
L 342.003769 -257.399899 
L 344.667659 -259.250886 
L 347.33155 -261.071416 
L 349.99544 -262.861439 
L 352.65933 -264.620933 
L 355.323221 -266.349906 
L 357.987111 -268.048393 
L 360.651001 -269.716456 
L 363.314891 -271.354181 
L 365.978782 -272.96168 
L 368.642672 -274.539085 
L 371.306562 -276.086553 
L 373.970453 -277.60426 
L 376.634343 -279.092403 
L 379.298233 -280.551197 
L 381.962124 -281.980874 
L 384.626014 -283.381684 
L 387.289904 -284.75389 
L 389.953794 -286.097773 
L 392.617685 -287.413625 
L 395.281575 -288.701751 
L 397.945465 -289.962468 
L 400.609356 -291.196103 
L 403.273246 -292.402993 
L 405.937136 -293.583484 
L 408.601027 -294.737929 
L 411.264917 -295.866692 
L 413.928807 -296.970137 
L 416.592697 -298.04864 
L 419.256588 -299.102577 
L 421.920478 -300.132332 
L 424.584368 -301.138289 
L 427.248259 -302.120838 
L 429.912149 -303.08037 
L 432.576039 -304.017276 
L 435.23993 -304.931952 
L 437.90382 -305.82479 
L 440.56771 -306.696186 
L 443.2316 -307.546533 
L 445.895491 -308.376224 
L 448.559381 -309.185651 
L 451.223271 -309.975205 
L 453.887162 -310.745272 
L 456.551052 -311.496239 
L 459.214942 -312.228488 
L 461.878833 -312.942399 
L 464.542723 -313.638349 
L 467.206613 -314.31671 
L 469.870503 -314.977852 
L 472.534394 -315.622139 
L 475.198284 -316.249931 
L 477.862174 -316.861586 
L 480.526065 -317.457454 
L 483.189955 -318.037883 
L 485.853845 -318.603214 
L 488.517736 -319.153784 
L 491.181626 -319.689926 
L 493.845516 -320.211965 
L 496.509406 -320.720222 
L 499.173297 -321.215015 
L 501.837187 -321.696653 
L 504.501077 -322.165442 
L 507.164968 -322.62168 
L 509.828858 -323.065664 
L 512.492748 -323.49768 
L 515.156639 -323.918012 
L 517.820529 -324.326938 
L 520.484419 -324.72473 
L 523.148309 -325.111655 
L 525.8122 -325.487974 
L 528.47609 -325.853943 
L 531.13998 -326.209814 
L 533.803871 -326.55583 
L 536.467761 -326.892233 
L 539.131651 -327.219257 
L 541.795542 -327.537133 
L 544.459432 -327.846084 
L 544.459432 -336.279476 
L 544.459432 -336.279476 
L 541.795542 -336.242044 
L 539.131651 -336.202642 
L 536.467761 -336.161174 
L 533.803871 -336.117539 
L 531.13998 -336.071632 
L 528.47609 -336.023342 
L 525.8122 -335.972555 
L 523.148309 -335.91915 
L 520.484419 -335.863 
L 517.820529 -335.803974 
L 515.156639 -335.741935 
L 512.492748 -335.676738 
L 509.828858 -335.608233 
L 507.164968 -335.536264 
L 504.501077 -335.460666 
L 501.837187 -335.381269 
L 499.173297 -335.297893 
L 496.509406 -335.210353 
L 493.845516 -335.118453 
L 491.181626 -335.021991 
L 488.517736 -334.920756 
L 485.853845 -334.814526 
L 483.189955 -334.703072 
L 480.526065 -334.586154 
L 477.862174 -334.463522 
L 475.198284 -334.334917 
L 472.534394 -334.200067 
L 469.870503 -334.058691 
L 467.206613 -333.910495 
L 464.542723 -333.755174 
L 461.878833 -333.592412 
L 459.214942 -333.421879 
L 456.551052 -333.243232 
L 453.887162 -333.056115 
L 451.223271 -332.860159 
L 448.559381 -332.654981 
L 445.895491 -332.440182 
L 443.2316 -332.215352 
L 440.56771 -331.980062 
L 437.90382 -331.733869 
L 435.23993 -331.476316 
L 432.576039 -331.206928 
L 429.912149 -330.925215 
L 427.248259 -330.630668 
L 424.584368 -330.322765 
L 421.920478 -330.000963 
L 419.256588 -329.664705 
L 416.592697 -329.313414 
L 413.928807 -328.946497 
L 411.264917 -328.563343 
L 408.601027 -328.163322 
L 405.937136 -327.745786 
L 403.273246 -327.310071 
L 400.609356 -326.855493 
L 397.945465 -326.381351 
L 395.281575 -325.886926 
L 392.617685 -325.371482 
L 389.953794 -324.834266 
L 387.289904 -324.274505 
L 384.626014 -323.691413 
L 381.962124 -323.084187 
L 379.298233 -322.452006 
L 376.634343 -321.794038 
L 373.970453 -321.109432 
L 371.306562 -320.397327 
L 368.642672 -319.656848 
L 365.978782 -318.887108 
L 363.314891 -318.08721 
L 360.651001 -317.256246 
L 357.987111 -316.393302 
L 355.323221 -315.497456 
L 352.65933 -314.56778 
L 349.99544 -313.603343 
L 347.33155 -312.603212 
L 344.667659 -311.566454 
L 342.003769 -310.492137 
L 339.339879 -309.379334 
L 336.675988 -308.227123 
L 334.012098 -307.034592 
L 331.348208 -305.800838 
L 328.684318 -304.524972 
L 326.020427 -303.206123 
L 323.356537 -301.843437 
L 320.692647 -300.436082 
L 318.028756 -298.983252 
L 315.364866 -297.484167 
L 312.700976 -295.938082 
L 310.037085 -294.344281 
L 307.373195 -292.702092 
L 304.709305 -291.010879 
L 302.045415 -289.270054 
L 299.381524 -287.479077 
L 296.717634 -285.637459 
L 294.053744 -283.744766 
L 291.389853 -281.800625 
L 288.725963 -279.804724 
L 286.062073 -277.756819 
L 283.398182 -275.656733 
L 280.734292 -273.504366 
L 278.070402 -271.299691 
L 275.406512 -269.042763 
L 272.742621 -266.733719 
L 270.078731 -264.372784 
L 267.414841 -261.960269 
L 264.75095 -259.496578 
L 262.08706 -256.982209 
L 259.42317 -254.417757 
L 256.759279 -251.803915 
L 254.095389 -249.141476 
L 251.431499 -246.431333 
L 248.767609 -243.674483 
L 246.103718 -240.872029 
L 243.439828 -238.025173 
L 240.775938 -235.135226 
L 238.112047 -232.203598 
L 235.448157 -229.231808 
L 232.784267 -226.221473 
L 230.120376 -223.174313 
L 227.456486 -220.092145 
L 224.792596 -216.976886 
L 222.128706 -213.830544 
L 219.464815 -210.65522 
L 216.800925 -207.453102 
L 214.137035 -204.226461 
L 211.473144 -200.977649 
L 208.809254 -197.70909 
L 206.145364 -194.423279 
L 203.481473 -191.122774 
L 200.817583 -187.810192 
L 198.153693 -184.4882 
L 195.489803 -181.159511 
L 192.825912 -177.826876 
L 190.162022 -174.493078 
L 187.498132 -171.160922 
L 184.834241 -167.833232 
L 182.170351 -164.512839 
L 179.506461 -161.202574 
L 176.84257 -157.905263 
L 174.17868 -154.623714 
L 171.51479 -151.360715 
L 168.8509 -148.119022 
L 166.187009 -144.901351 
L 163.523119 -141.710372 
L 160.859229 -138.5487 
L 158.195338 -135.41889 
L 155.531448 -132.323426 
L 152.867558 -129.264718 
L 150.203667 -126.245091 
L 147.539777 -123.266784 
L 144.875887 -120.331938 
L 142.211997 -117.442596 
L 139.548106 -114.600695 
L 136.884216 -111.808061 
L 134.220326 -109.066406 
L 131.556435 -106.377325 
L 128.892545 -103.74229 
L 126.228655 -101.162651 
L 123.564764 -98.639631 
L 120.900874 -96.174325 
L 118.236984 -93.767701 
L 115.573094 -91.420596 
L 112.909203 -89.133718 
L 110.245313 -86.907649 
L 107.581423 -84.74284 
L 104.917532 -82.639618 
L 102.253642 -80.598186 
L 99.589752 -78.618625 
L 96.925861 -76.700897 
L 94.261971 -74.84485 
L 91.598081 -73.050219 
L 88.934191 -71.316632 
L 86.2703 -69.643615 
L 83.60641 -68.030595 
L 80.94252 -66.476903 
L 78.278629 -64.981785 
L 75.614739 -63.544402 
L 72.950849 -62.163837 
L 70.286958 -60.839104 
L 67.623068 -59.569146 
z
"/>
    </defs>
    <g clip-path="url(#p9f988dfb1f)">
     <use xlink:href="#m105727cfad" x="0" y="359.250375" style="fill: #8c5e3c; fill-opacity: 0.13"/>
    </g>
   </g>
   <g id="PolyCollection_2">
    <defs>
     <path id="m7a7a6930fd" d="M 67.623068 -38.321195 
L 67.623068 -38.245793 
L 70.286958 -38.301245 
L 72.950849 -38.360695 
L 75.614739 -38.424389 
L 78.278629 -38.492583 
L 80.94252 -38.565545 
L 83.60641 -38.643555 
L 86.2703 -38.726903 
L 88.934191 -38.815894 
L 91.598081 -38.910843 
L 94.261971 -39.012077 
L 96.925861 -39.119938 
L 99.589752 -39.234778 
L 102.253642 -39.356961 
L 104.917532 -39.486865 
L 107.581423 -39.624879 
L 110.245313 -39.771405 
L 112.909203 -39.926856 
L 115.573094 -40.091658 
L 118.236984 -40.266248 
L 120.900874 -40.451073 
L 123.564764 -40.646592 
L 126.228655 -40.853275 
L 128.892545 -41.071601 
L 131.556435 -41.302059 
L 134.220326 -41.545147 
L 136.884216 -41.801371 
L 139.548106 -42.071246 
L 142.211997 -42.355292 
L 144.875887 -42.654037 
L 147.539777 -42.968014 
L 150.203667 -43.29776 
L 152.867558 -43.643818 
L 155.531448 -44.00673 
L 158.195338 -44.387044 
L 160.859229 -44.785306 
L 163.523119 -45.202063 
L 166.187009 -45.637861 
L 168.8509 -46.093243 
L 171.51479 -46.568747 
L 174.17868 -47.064909 
L 176.84257 -47.582258 
L 179.506461 -48.121315 
L 182.170351 -48.682593 
L 184.834241 -49.266595 
L 187.498132 -49.873815 
L 190.162022 -50.504732 
L 192.825912 -51.159813 
L 195.489803 -51.839512 
L 198.153693 -52.544263 
L 200.817583 -53.274487 
L 203.481473 -54.030584 
L 206.145364 -54.812936 
L 208.809254 -55.621903 
L 211.473144 -56.457826 
L 214.137035 -57.321021 
L 216.800925 -58.211779 
L 219.464815 -59.130371 
L 222.128706 -60.077037 
L 224.792596 -61.051994 
L 227.456486 -62.05543 
L 230.120376 -63.087507 
L 232.784267 -64.148356 
L 235.448157 -65.23808 
L 238.112047 -66.356752 
L 240.775938 -67.504415 
L 243.439828 -68.681082 
L 246.103718 -69.886732 
L 248.767609 -71.121316 
L 251.431499 -72.384754 
L 254.095389 -73.676932 
L 256.759279 -74.997707 
L 259.42317 -76.346904 
L 262.08706 -77.724315 
L 264.75095 -79.129705 
L 267.414841 -80.562806 
L 270.078731 -82.023319 
L 272.742621 -83.510918 
L 275.406512 -85.025246 
L 278.070402 -86.565918 
L 280.734292 -88.132522 
L 283.398182 -89.724616 
L 286.062073 -91.341736 
L 288.725963 -92.983389 
L 291.389853 -94.649059 
L 294.053744 -96.338206 
L 296.717634 -98.050268 
L 299.381524 -99.784661 
L 302.045415 -101.54078 
L 304.709305 -103.318001 
L 307.373195 -105.115682 
L 310.037085 -106.933164 
L 312.700976 -108.769772 
L 315.364866 -110.624816 
L 318.028756 -112.497593 
L 320.692647 -114.387387 
L 323.356537 -116.293472 
L 326.020427 -118.215112 
L 328.684318 -120.151563 
L 331.348208 -122.102071 
L 334.012098 -124.06588 
L 336.675988 -126.042227 
L 339.339879 -128.030345 
L 342.003769 -130.029465 
L 344.667659 -132.038817 
L 347.33155 -134.057631 
L 349.99544 -136.085137 
L 352.65933 -138.120568 
L 355.323221 -140.163159 
L 357.987111 -142.212151 
L 360.651001 -144.266788 
L 363.314891 -146.32632 
L 365.978782 -148.390005 
L 368.642672 -150.45711 
L 371.306562 -152.526906 
L 373.970453 -154.598679 
L 376.634343 -156.67172 
L 379.298233 -158.745335 
L 381.962124 -160.818839 
L 384.626014 -162.891559 
L 387.289904 -164.962837 
L 389.953794 -167.032024 
L 392.617685 -169.098489 
L 395.281575 -171.161611 
L 397.945465 -173.220788 
L 400.609356 -175.275429 
L 403.273246 -177.324959 
L 405.937136 -179.36882 
L 408.601027 -181.406467 
L 411.264917 -183.437373 
L 413.928807 -185.461027 
L 416.592697 -187.476932 
L 419.256588 -189.484609 
L 421.920478 -191.483595 
L 424.584368 -193.473442 
L 427.248259 -195.45372 
L 429.912149 -197.424014 
L 432.576039 -199.383926 
L 435.23993 -201.333074 
L 437.90382 -203.271089 
L 440.56771 -205.197623 
L 443.2316 -207.112339 
L 445.895491 -209.014917 
L 448.559381 -210.905054 
L 451.223271 -212.782458 
L 453.887162 -214.646856 
L 456.551052 -216.497986 
L 459.214942 -218.335602 
L 461.878833 -220.159471 
L 464.542723 -221.969375 
L 467.206613 -223.765107 
L 469.870503 -225.546475 
L 472.534394 -227.313298 
L 475.198284 -229.065408 
L 477.862174 -230.80265 
L 480.526065 -232.524877 
L 483.189955 -234.231958 
L 485.853845 -235.923769 
L 488.517736 -237.600198 
L 491.181626 -239.261143 
L 493.845516 -240.906512 
L 496.509406 -242.536222 
L 499.173297 -244.150199 
L 501.837187 -245.748378 
L 504.501077 -247.330702 
L 507.164968 -248.897122 
L 509.828858 -250.447597 
L 512.492748 -251.982092 
L 515.156639 -253.500582 
L 517.820529 -255.003044 
L 520.484419 -256.489466 
L 523.148309 -257.959839 
L 525.8122 -259.41416 
L 528.47609 -260.852431 
L 531.13998 -262.274662 
L 533.803871 -263.680864 
L 536.467761 -265.071054 
L 539.131651 -266.445254 
L 541.795542 -267.803489 
L 544.459432 -269.145787 
L 544.459432 -316.962902 
L 544.459432 -316.962902 
L 541.795542 -316.265198 
L 539.131651 -315.548204 
L 536.467761 -314.811534 
L 533.803871 -314.054798 
L 531.13998 -313.277601 
L 528.47609 -312.479548 
L 525.8122 -311.66024 
L 523.148309 -310.819276 
L 520.484419 -309.956251 
L 517.820529 -309.070761 
L 515.156639 -308.1624 
L 512.492748 -307.230758 
L 509.828858 -306.27543 
L 507.164968 -305.296006 
L 504.501077 -304.292078 
L 501.837187 -303.263239 
L 499.173297 -302.209084 
L 496.509406 -301.129209 
L 493.845516 -300.023212 
L 491.181626 -298.890697 
L 488.517736 -297.731267 
L 485.853845 -296.544535 
L 483.189955 -295.330115 
L 480.526065 -294.087629 
L 477.862174 -292.816705 
L 475.198284 -291.51698 
L 472.534394 -290.188098 
L 469.870503 -288.829712 
L 467.206613 -287.441488 
L 464.542723 -286.023101 
L 461.878833 -284.574238 
L 459.214942 -283.094601 
L 456.551052 -281.583905 
L 453.887162 -280.041882 
L 451.223271 -278.468279 
L 448.559381 -276.862862 
L 445.895491 -275.225415 
L 443.2316 -273.555742 
L 440.56771 -271.85367 
L 437.90382 -270.119046 
L 435.23993 -268.351744 
L 432.576039 -266.551661 
L 429.912149 -264.718721 
L 427.248259 -262.852875 
L 424.584368 -260.954103 
L 421.920478 -259.022418 
L 419.256588 -257.057861 
L 416.592697 -255.060508 
L 413.928807 -253.030468 
L 411.264917 -250.967888 
L 408.601027 -248.872948 
L 405.937136 -246.745868 
L 403.273246 -244.586908 
L 400.609356 -242.396366 
L 397.945465 -240.174582 
L 395.281575 -237.921941 
L 392.617685 -235.638867 
L 389.953794 -233.325832 
L 387.289904 -230.983352 
L 384.626014 -228.611988 
L 381.962124 -226.21235 
L 379.298233 -223.785093 
L 376.634343 -221.330921 
L 373.970453 -218.850588 
L 371.306562 -216.344893 
L 368.642672 -213.814687 
L 365.978782 -211.260869 
L 363.314891 -208.684386 
L 360.651001 -206.086237 
L 357.987111 -203.467465 
L 355.323221 -200.829165 
L 352.65933 -198.172478 
L 349.99544 -195.49859 
L 347.33155 -192.808736 
L 344.667659 -190.104194 
L 342.003769 -187.386285 
L 339.339879 -184.656375 
L 336.675988 -181.915867 
L 334.012098 -179.166206 
L 331.348208 -176.408872 
L 328.684318 -173.645382 
L 326.020427 -170.877284 
L 323.356537 -168.106157 
L 320.692647 -165.333609 
L 318.028756 -162.561272 
L 315.364866 -159.790801 
L 312.700976 -157.02387 
L 310.037085 -154.26217 
L 307.373195 -151.507405 
L 304.709305 -148.761288 
L 302.045415 -146.02554 
L 299.381524 -143.301882 
L 296.717634 -140.592037 
L 294.053744 -137.897721 
L 291.389853 -135.220644 
L 288.725963 -132.5625 
L 286.062073 -129.924972 
L 283.398182 -127.309717 
L 280.734292 -124.718374 
L 278.070402 -122.152549 
L 275.406512 -119.61382 
L 272.742621 -117.103728 
L 270.078731 -114.623776 
L 267.414841 -112.175421 
L 264.75095 -109.760078 
L 262.08706 -107.379108 
L 259.42317 -105.033823 
L 256.759279 -102.725475 
L 254.095389 -100.455258 
L 251.431499 -98.224305 
L 248.767609 -96.033682 
L 246.103718 -93.884391 
L 243.439828 -91.77736 
L 240.775938 -89.71345 
L 238.112047 -87.693447 
L 235.448157 -85.718061 
L 232.784267 -83.787929 
L 230.120376 -81.903608 
L 227.456486 -80.06558 
L 224.792596 -78.274249 
L 222.128706 -76.529937 
L 219.464815 -74.832893 
L 216.800925 -73.183285 
L 214.137035 -71.581205 
L 211.473144 -70.026668 
L 208.809254 -68.519615 
L 206.145364 -67.059912 
L 203.481473 -65.647355 
L 200.817583 -64.281669 
L 198.153693 -62.962509 
L 195.489803 -61.689467 
L 192.825912 -60.46207 
L 190.162022 -59.279786 
L 187.498132 -58.142024 
L 184.834241 -57.048139 
L 182.170351 -55.997434 
L 179.506461 -54.989163 
L 176.84257 -54.022537 
L 174.17868 -53.096723 
L 171.51479 -52.210851 
L 168.8509 -51.364016 
L 166.187009 -50.555283 
L 163.523119 -49.783687 
L 160.859229 -49.048241 
L 158.195338 -48.347936 
L 155.531448 -47.681748 
L 152.867558 -47.048636 
L 150.203667 -46.447551 
L 147.539777 -45.877436 
L 144.875887 -45.33723 
L 142.211997 -44.82587 
L 139.548106 -44.342296 
L 136.884216 -43.885452 
L 134.220326 -43.454291 
L 131.556435 -43.047771 
L 128.892545 -42.664868 
L 126.228655 -42.304567 
L 123.564764 -41.965872 
L 120.900874 -41.647805 
L 118.236984 -41.349406 
L 115.573094 -41.069738 
L 112.909203 -40.807886 
L 110.245313 -40.562958 
L 107.581423 -40.334087 
L 104.917532 -40.120434 
L 102.253642 -39.921183 
L 99.589752 -39.735547 
L 96.925861 -39.562767 
L 94.261971 -39.40211 
L 91.598081 -39.252872 
L 88.934191 -39.114377 
L 86.2703 -38.985977 
L 83.60641 -38.867053 
L 80.94252 -38.757011 
L 78.278629 -38.655287 
L 75.614739 -38.561342 
L 72.950849 -38.474665 
L 70.286958 -38.394769 
L 67.623068 -38.321195 
z
"/>
    </defs>
    <g clip-path="url(#p9f988dfb1f)">
     <use xlink:href="#m7a7a6930fd" x="0" y="359.250375" style="fill: #2b6f9f; fill-opacity: 0.13"/>
    </g>
   </g>
   <g id="PolyCollection_3">
    <defs>
     <path id="mebc8c11496" d="M 67.623068 -37.561227 
L 67.623068 -37.567548 
L 70.286958 -37.568781 
L 72.950849 -37.57014 
L 75.614739 -37.571637 
L 78.278629 -37.573286 
L 80.94252 -37.5751 
L 83.60641 -37.577094 
L 86.2703 -37.579284 
L 88.934191 -37.58169 
L 91.598081 -37.584329 
L 94.261971 -37.587221 
L 96.925861 -37.590391 
L 99.589752 -37.59386 
L 102.253642 -37.597656 
L 104.917532 -37.601805 
L 107.581423 -37.606337 
L 110.245313 -37.611284 
L 112.909203 -37.61668 
L 115.573094 -37.62256 
L 118.236984 -37.628965 
L 120.900874 -37.635936 
L 123.564764 -37.643516 
L 126.228655 -37.651752 
L 128.892545 -37.660696 
L 131.556435 -37.6704 
L 134.220326 -37.68092 
L 136.884216 -37.692317 
L 139.548106 -37.704655 
L 142.211997 -37.718001 
L 144.875887 -37.732426 
L 147.539777 -37.748005 
L 150.203667 -37.764818 
L 152.867558 -37.782949 
L 155.531448 -37.802485 
L 158.195338 -37.82352 
L 160.859229 -37.846151 
L 163.523119 -37.870481 
L 166.187009 -37.896616 
L 168.8509 -37.924668 
L 171.51479 -37.954757 
L 174.17868 -37.987003 
L 176.84257 -38.021536 
L 179.506461 -38.058489 
L 182.170351 -38.098001 
L 184.834241 -38.140217 
L 187.498132 -38.185288 
L 190.162022 -38.23337 
L 192.825912 -38.284624 
L 195.489803 -38.339218 
L 198.153693 -38.397327 
L 200.817583 -38.459128 
L 203.481473 -38.524808 
L 206.145364 -38.594556 
L 208.809254 -38.668569 
L 211.473144 -38.74705 
L 214.137035 -38.830204 
L 216.800925 -38.918246 
L 219.464815 -39.011393 
L 222.128706 -39.109868 
L 224.792596 -39.2139 
L 227.456486 -39.323722 
L 230.120376 -39.439571 
L 232.784267 -39.561689 
L 235.448157 -39.690323 
L 238.112047 -39.825723 
L 240.775938 -39.968142 
L 243.439828 -40.117839 
L 246.103718 -40.275073 
L 248.767609 -40.440108 
L 251.431499 -40.613211 
L 254.095389 -40.794648 
L 256.759279 -40.98469 
L 259.42317 -41.183609 
L 262.08706 -41.391677 
L 264.75095 -41.609168 
L 267.414841 -41.836356 
L 270.078731 -42.073514 
L 272.742621 -42.320917 
L 275.406512 -42.578836 
L 278.070402 -42.847544 
L 280.734292 -43.127311 
L 283.398182 -43.418404 
L 286.062073 -43.72109 
L 288.725963 -44.035631 
L 291.389853 -44.362287 
L 294.053744 -44.701313 
L 296.717634 -45.052963 
L 299.381524 -45.417483 
L 302.045415 -45.795117 
L 304.709305 -46.186102 
L 307.373195 -46.59067 
L 310.037085 -47.009048 
L 312.700976 -47.441457 
L 315.364866 -47.888109 
L 318.028756 -48.349211 
L 320.692647 -48.824964 
L 323.356537 -49.315559 
L 326.020427 -49.82118 
L 328.684318 -50.342005 
L 331.348208 -50.878201 
L 334.012098 -51.429929 
L 336.675988 -51.997339 
L 339.339879 -52.580575 
L 342.003769 -53.17977 
L 344.667659 -53.795047 
L 347.33155 -54.426524 
L 349.99544 -55.074304 
L 352.65933 -55.738486 
L 355.323221 -56.419156 
L 357.987111 -57.116393 
L 360.651001 -57.830263 
L 363.314891 -58.560826 
L 365.978782 -59.308131 
L 368.642672 -60.072218 
L 371.306562 -60.853117 
L 373.970453 -61.650849 
L 376.634343 -62.465426 
L 379.298233 -63.296851 
L 381.962124 -64.145118 
L 384.626014 -65.010211 
L 387.289904 -65.892106 
L 389.953794 -66.790773 
L 392.617685 -67.706169 
L 395.281575 -68.638246 
L 397.945465 -69.586947 
L 400.609356 -70.552209 
L 403.273246 -71.533958 
L 405.937136 -72.532116 
L 408.601027 -73.546597 
L 411.264917 -74.577308 
L 413.928807 -75.624148 
L 416.592697 -76.687013 
L 419.256588 -77.765791 
L 421.920478 -78.860363 
L 424.584368 -79.970608 
L 427.248259 -81.096397 
L 429.912149 -82.237596 
L 432.576039 -83.394068 
L 435.23993 -84.565672 
L 437.90382 -85.75226 
L 440.56771 -86.953683 
L 443.2316 -88.169787 
L 445.895491 -89.400415 
L 448.559381 -90.645406 
L 451.223271 -91.904599 
L 453.887162 -93.177827 
L 456.551052 -94.464923 
L 459.214942 -95.765716 
L 461.878833 -97.080035 
L 464.542723 -98.407706 
L 467.206613 -99.748554 
L 469.870503 -101.102402 
L 472.534394 -102.469074 
L 475.198284 -103.84839 
L 477.862174 -105.240172 
L 480.526065 -106.644239 
L 483.189955 -108.060411 
L 485.853845 -109.488508 
L 488.517736 -110.928348 
L 491.181626 -112.379752 
L 493.845516 -113.842537 
L 496.509406 -115.316522 
L 499.173297 -116.801528 
L 501.837187 -118.297373 
L 504.501077 -119.803877 
L 507.164968 -121.320861 
L 509.828858 -122.848144 
L 512.492748 -124.385548 
L 515.156639 -125.932894 
L 517.820529 -127.490003 
L 520.484419 -129.056697 
L 523.148309 -130.632799 
L 525.8122 -132.218131 
L 528.47609 -133.812517 
L 531.13998 -135.415779 
L 533.803871 -137.02774 
L 536.467761 -138.648225 
L 539.131651 -140.277057 
L 541.795542 -141.914058 
L 544.459432 -143.559053 
L 544.459432 -205.187207 
L 544.459432 -205.187207 
L 541.795542 -203.085299 
L 539.131651 -200.976522 
L 536.467761 -198.861323 
L 533.803871 -196.740156 
L 531.13998 -194.613479 
L 528.47609 -192.481761 
L 525.8122 -190.345476 
L 523.148309 -188.205105 
L 520.484419 -186.061139 
L 517.820529 -183.914074 
L 515.156639 -181.764415 
L 512.492748 -179.612672 
L 509.828858 -177.459366 
L 507.164968 -175.305023 
L 504.501077 -173.150177 
L 501.837187 -170.99537 
L 499.173297 -168.841152 
L 496.509406 -166.688078 
L 493.845516 -164.536711 
L 491.181626 -162.387623 
L 488.517736 -160.24139 
L 485.853845 -158.098597 
L 483.189955 -155.959834 
L 480.526065 -153.825696 
L 477.862174 -151.696787 
L 475.198284 -149.573714 
L 472.534394 -147.457091 
L 469.870503 -145.347535 
L 467.206613 -143.245669 
L 464.542723 -141.152119 
L 461.878833 -139.067516 
L 459.214942 -136.992492 
L 456.551052 -134.927683 
L 453.887162 -132.873727 
L 451.223271 -130.831262 
L 448.559381 -128.800929 
L 445.895491 -126.783367 
L 443.2316 -124.779215 
L 440.56771 -122.789112 
L 437.90382 -120.813693 
L 435.23993 -118.853591 
L 432.576039 -116.909437 
L 429.912149 -114.981855 
L 427.248259 -113.071464 
L 424.584368 -111.17888 
L 421.920478 -109.304709 
L 419.256588 -107.449549 
L 416.592697 -105.61399 
L 413.928807 -103.798614 
L 411.264917 -102.003989 
L 408.601027 -100.230675 
L 405.937136 -98.479216 
L 403.273246 -96.750144 
L 400.609356 -95.043978 
L 397.945465 -93.361219 
L 395.281575 -91.702354 
L 392.617685 -90.067852 
L 389.953794 -88.458162 
L 387.289904 -86.873716 
L 384.626014 -85.314927 
L 381.962124 -83.782184 
L 379.298233 -82.275858 
L 376.634343 -80.796296 
L 373.970453 -79.34382 
L 371.306562 -77.918732 
L 368.642672 -76.521307 
L 365.978782 -75.151795 
L 363.314891 -73.810422 
L 360.651001 -72.497385 
L 357.987111 -71.212858 
L 355.323221 -69.956985 
L 352.65933 -68.729883 
L 349.99544 -67.531642 
L 347.33155 -66.362325 
L 344.667659 -65.221964 
L 342.003769 -64.110565 
L 339.339879 -63.028107 
L 336.675988 -61.974537 
L 334.012098 -60.949778 
L 331.348208 -59.953722 
L 328.684318 -58.986235 
L 326.020427 -58.047156 
L 323.356537 -57.136296 
L 320.692647 -56.253441 
L 318.028756 -55.39835 
L 315.364866 -54.570757 
L 312.700976 -53.770372 
L 310.037085 -52.996881 
L 307.373195 -52.249947 
L 304.709305 -51.529211 
L 302.045415 -50.834291 
L 299.381524 -50.164788 
L 296.717634 -49.520282 
L 294.053744 -48.900335 
L 291.389853 -48.30449 
L 288.725963 -47.732279 
L 286.062073 -47.183214 
L 283.398182 -46.656796 
L 280.734292 -46.152515 
L 278.070402 -45.669846 
L 275.406512 -45.208257 
L 272.742621 -44.767207 
L 270.078731 -44.346147 
L 267.414841 -43.944523 
L 264.75095 -43.561774 
L 262.08706 -43.197339 
L 259.42317 -42.850651 
L 256.759279 -42.521143 
L 254.095389 -42.208248 
L 251.431499 -41.911402 
L 248.767609 -41.630039 
L 246.103718 -41.363601 
L 243.439828 -41.111532 
L 240.775938 -40.87328 
L 238.112047 -40.648302 
L 235.448157 -40.43606 
L 232.784267 -40.236026 
L 230.120376 -40.047678 
L 227.456486 -39.870506 
L 224.792596 -39.70401 
L 222.128706 -39.547699 
L 219.464815 -39.401096 
L 216.800925 -39.263732 
L 214.137035 -39.135154 
L 211.473144 -39.014921 
L 208.809254 -38.902603 
L 206.145364 -38.797785 
L 203.481473 -38.700066 
L 200.817583 -38.609057 
L 198.153693 -38.524384 
L 195.489803 -38.445686 
L 192.825912 -38.372617 
L 190.162022 -38.304845 
L 187.498132 -38.242049 
L 184.834241 -38.183926 
L 182.170351 -38.130183 
L 179.506461 -38.080541 
L 176.84257 -38.034737 
L 174.17868 -37.992517 
L 171.51479 -37.953641 
L 168.8509 -37.917883 
L 166.187009 -37.885026 
L 163.523119 -37.854868 
L 160.859229 -37.827215 
L 158.195338 -37.801887 
L 155.531448 -37.778712 
L 152.867558 -37.757529 
L 150.203667 -37.738188 
L 147.539777 -37.720548 
L 144.875887 -37.704475 
L 142.211997 -37.689847 
L 139.548106 -37.676546 
L 136.884216 -37.664466 
L 134.220326 -37.653505 
L 131.556435 -37.643572 
L 128.892545 -37.634578 
L 126.228655 -37.626443 
L 123.564764 -37.619094 
L 120.900874 -37.612461 
L 118.236984 -37.60648 
L 115.573094 -37.601094 
L 112.909203 -37.596247 
L 110.245313 -37.591891 
L 107.581423 -37.58798 
L 104.917532 -37.584472 
L 102.253642 -37.581328 
L 99.589752 -37.578514 
L 96.925861 -37.575998 
L 94.261971 -37.57375 
L 91.598081 -37.571744 
L 88.934191 -37.569956 
L 86.2703 -37.568363 
L 83.60641 -37.566945 
L 80.94252 -37.565686 
L 78.278629 -37.564567 
L 75.614739 -37.563574 
L 72.950849 -37.562695 
L 70.286958 -37.561916 
L 67.623068 -37.561227 
z
"/>
    </defs>
    <g clip-path="url(#p9f988dfb1f)">
     <use xlink:href="#mebc8c11496" x="0" y="359.250375" style="fill: #b98524; fill-opacity: 0.13"/>
    </g>
   </g>
   <g id="PolyCollection_4">
    <defs>
     <path id="m6c153092e8" d="M 67.623068 -37.556316 
L 67.623068 -37.556624 
L 70.286958 -37.556672 
L 72.950849 -37.556726 
L 75.614739 -37.556787 
L 78.278629 -37.556855 
L 80.94252 -37.556932 
L 83.60641 -37.557018 
L 86.2703 -37.557113 
L 88.934191 -37.557221 
L 91.598081 -37.557341 
L 94.261971 -37.557474 
L 96.925861 -37.557624 
L 99.589752 -37.55779 
L 102.253642 -37.557976 
L 104.917532 -37.558183 
L 107.581423 -37.558413 
L 110.245313 -37.558669 
L 112.909203 -37.558953 
L 115.573094 -37.559269 
L 118.236984 -37.559619 
L 120.900874 -37.560007 
L 123.564764 -37.560436 
L 126.228655 -37.560912 
L 128.892545 -37.561438 
L 131.556435 -37.56202 
L 134.220326 -37.562662 
L 136.884216 -37.56337 
L 139.548106 -37.564151 
L 142.211997 -37.565011 
L 144.875887 -37.565958 
L 147.539777 -37.567 
L 150.203667 -37.568144 
L 152.867558 -37.569401 
L 155.531448 -37.57078 
L 158.195338 -37.572291 
L 160.859229 -37.573947 
L 163.523119 -37.57576 
L 166.187009 -37.577742 
L 168.8509 -37.579908 
L 171.51479 -37.582274 
L 174.17868 -37.584854 
L 176.84257 -37.587667 
L 179.506461 -37.590731 
L 182.170351 -37.594066 
L 184.834241 -37.597693 
L 187.498132 -37.601634 
L 190.162022 -37.605912 
L 192.825912 -37.610554 
L 195.489803 -37.615585 
L 198.153693 -37.621035 
L 200.817583 -37.626932 
L 203.481473 -37.63331 
L 206.145364 -37.640201 
L 208.809254 -37.64764 
L 211.473144 -37.655666 
L 214.137035 -37.664316 
L 216.800925 -37.673634 
L 219.464815 -37.683661 
L 222.128706 -37.694444 
L 224.792596 -37.70603 
L 227.456486 -37.71847 
L 230.120376 -37.731815 
L 232.784267 -37.746121 
L 235.448157 -37.761444 
L 238.112047 -37.777846 
L 240.775938 -37.795387 
L 243.439828 -37.814132 
L 246.103718 -37.83415 
L 248.767609 -37.85551 
L 251.431499 -37.878284 
L 254.095389 -37.902549 
L 256.759279 -37.928382 
L 259.42317 -37.955865 
L 262.08706 -37.985081 
L 264.75095 -38.016116 
L 267.414841 -38.04906 
L 270.078731 -38.084004 
L 272.742621 -38.121043 
L 275.406512 -38.160275 
L 278.070402 -38.2018 
L 280.734292 -38.245721 
L 283.398182 -38.292143 
L 286.062073 -38.341174 
L 288.725963 -38.392925 
L 291.389853 -38.44751 
L 294.053744 -38.505044 
L 296.717634 -38.565646 
L 299.381524 -38.629436 
L 302.045415 -38.696537 
L 304.709305 -38.767074 
L 307.373195 -38.841175 
L 310.037085 -38.91897 
L 312.700976 -39.000589 
L 315.364866 -39.086167 
L 318.028756 -39.175838 
L 320.692647 -39.269739 
L 323.356537 -39.36801 
L 326.020427 -39.470789 
L 328.684318 -39.57822 
L 331.348208 -39.690444 
L 334.012098 -39.807607 
L 336.675988 -39.929852 
L 339.339879 -40.057327 
L 342.003769 -40.190178 
L 344.667659 -40.328554 
L 347.33155 -40.472603 
L 349.99544 -40.622474 
L 352.65933 -40.778317 
L 355.323221 -40.940281 
L 357.987111 -41.108517 
L 360.651001 -41.283175 
L 363.314891 -41.464404 
L 365.978782 -41.652356 
L 368.642672 -41.847179 
L 371.306562 -42.049024 
L 373.970453 -42.25804 
L 376.634343 -42.474375 
L 379.298233 -42.698177 
L 381.962124 -42.929594 
L 384.626014 -43.168773 
L 387.289904 -43.415859 
L 389.953794 -43.670997 
L 392.617685 -43.934331 
L 395.281575 -44.206005 
L 397.945465 -44.48616 
L 400.609356 -44.774936 
L 403.273246 -45.072474 
L 405.937136 -45.378912 
L 408.601027 -45.694387 
L 411.264917 -46.019034 
L 413.928807 -46.352989 
L 416.592697 -46.696384 
L 419.256588 -47.049351 
L 421.920478 -47.412021 
L 424.584368 -47.784523 
L 427.248259 -48.166984 
L 429.912149 -48.559532 
L 432.576039 -48.96229 
L 435.23993 -49.375384 
L 437.90382 -49.798934 
L 440.56771 -50.233064 
L 443.2316 -50.677891 
L 445.895491 -51.133536 
L 448.559381 -51.600115 
L 451.223271 -52.077745 
L 453.887162 -52.566541 
L 456.551052 -53.066618 
L 459.214942 -53.578088 
L 461.878833 -54.101064 
L 464.542723 -54.635657 
L 467.206613 -55.181978 
L 469.870503 -55.740136 
L 472.534394 -56.310241 
L 475.198284 -56.8924 
L 477.862174 -57.486721 
L 480.526065 -58.093312 
L 483.189955 -58.712278 
L 485.853845 -59.343726 
L 488.517736 -59.987762 
L 491.181626 -60.64449 
L 493.845516 -61.314017 
L 496.509406 -61.996446 
L 499.173297 -62.691884 
L 501.837187 -63.400433 
L 504.501077 -64.122198 
L 507.164968 -64.857285 
L 509.828858 -65.605797 
L 512.492748 -66.367838 
L 515.156639 -67.143514 
L 517.820529 -67.932928 
L 520.484419 -68.736186 
L 523.148309 -69.553391 
L 525.8122 -70.38465 
L 528.47609 -71.230066 
L 531.13998 -72.089745 
L 533.803871 -72.963793 
L 536.467761 -73.852314 
L 539.131651 -74.755414 
L 541.795542 -75.673199 
L 544.459432 -76.605774 
L 544.459432 -105.475473 
L 544.459432 -105.475473 
L 541.795542 -103.882542 
L 539.131651 -102.309782 
L 536.467761 -100.757305 
L 533.803871 -99.225217 
L 531.13998 -97.713617 
L 528.47609 -96.222596 
L 525.8122 -94.75224 
L 523.148309 -93.302628 
L 520.484419 -91.873834 
L 517.820529 -90.465924 
L 515.156639 -89.078958 
L 512.492748 -87.712991 
L 509.828858 -86.368071 
L 507.164968 -85.044238 
L 504.501077 -83.741529 
L 501.837187 -82.459972 
L 499.173297 -81.199589 
L 496.509406 -79.960398 
L 493.845516 -78.742407 
L 491.181626 -77.545621 
L 488.517736 -76.370035 
L 485.853845 -75.21564 
L 483.189955 -74.082418 
L 480.526065 -72.970347 
L 477.862174 -71.879397 
L 475.198284 -70.809529 
L 472.534394 -69.7607 
L 469.870503 -68.732859 
L 467.206613 -67.725946 
L 464.542723 -66.739897 
L 461.878833 -65.774637 
L 459.214942 -64.830086 
L 456.551052 -63.906157 
L 453.887162 -63.002754 
L 451.223271 -62.119773 
L 448.559381 -61.257105 
L 445.895491 -60.414629 
L 443.2316 -59.592221 
L 440.56771 -58.789746 
L 437.90382 -58.007063 
L 435.23993 -57.244022 
L 432.576039 -56.500465 
L 429.912149 -55.776229 
L 427.248259 -55.071139 
L 424.584368 -54.385017 
L 421.920478 -53.717673 
L 419.256588 -53.068913 
L 416.592697 -52.438533 
L 413.928807 -51.826324 
L 411.264917 -51.232067 
L 408.601027 -50.655539 
L 405.937136 -50.096507 
L 403.273246 -49.554734 
L 400.609356 -49.029975 
L 397.945465 -48.521977 
L 395.281575 -48.030485 
L 392.617685 -47.555235 
L 389.953794 -47.095957 
L 387.289904 -46.652378 
L 384.626014 -46.224217 
L 381.962124 -45.81119 
L 379.298233 -45.413009 
L 376.634343 -45.029378 
L 373.970453 -44.660002 
L 371.306562 -44.30458 
L 368.642672 -43.962807 
L 365.978782 -43.634376 
L 363.314891 -43.318978 
L 360.651001 -43.016301 
L 357.987111 -42.726031 
L 355.323221 -42.447853 
L 352.65933 -42.181452 
L 349.99544 -41.926511 
L 347.33155 -41.682713 
L 344.667659 -41.449741 
L 342.003769 -41.227279 
L 339.339879 -41.015012 
L 336.675988 -40.812626 
L 334.012098 -40.619808 
L 331.348208 -40.436249 
L 328.684318 -40.26164 
L 326.020427 -40.095676 
L 323.356537 -39.938056 
L 320.692647 -39.788481 
L 318.028756 -39.646655 
L 315.364866 -39.512289 
L 312.700976 -39.385096 
L 310.037085 -39.264794 
L 307.373195 -39.151107 
L 304.709305 -39.043762 
L 302.045415 -38.942495 
L 299.381524 -38.847043 
L 296.717634 -38.757152 
L 294.053744 -38.672574 
L 291.389853 -38.593066 
L 288.725963 -38.518391 
L 286.062073 -38.448319 
L 283.398182 -38.382628 
L 280.734292 -38.3211 
L 278.070402 -38.263525 
L 275.406512 -38.209701 
L 272.742621 -38.159429 
L 270.078731 -38.112522 
L 267.414841 -38.068795 
L 264.75095 -38.028072 
L 262.08706 -37.990184 
L 259.42317 -37.954968 
L 256.759279 -37.922269 
L 254.095389 -37.891935 
L 251.431499 -37.863825 
L 248.767609 -37.837802 
L 246.103718 -37.813734 
L 243.439828 -37.791498 
L 240.775938 -37.770975 
L 238.112047 -37.752053 
L 235.448157 -37.734625 
L 232.784267 -37.718589 
L 230.120376 -37.70385 
L 227.456486 -37.690318 
L 224.792596 -37.677905 
L 222.128706 -37.666532 
L 219.464815 -37.656123 
L 216.800925 -37.646606 
L 214.137035 -37.637914 
L 211.473144 -37.629984 
L 208.809254 -37.622757 
L 206.145364 -37.616177 
L 203.481473 -37.610194 
L 200.817583 -37.604759 
L 198.153693 -37.599827 
L 195.489803 -37.595356 
L 192.825912 -37.591309 
L 190.162022 -37.587648 
L 187.498132 -37.584341 
L 184.834241 -37.581356 
L 182.170351 -37.578665 
L 179.506461 -37.576242 
L 176.84257 -37.574063 
L 174.17868 -37.572105 
L 171.51479 -37.570348 
L 168.8509 -37.568772 
L 166.187009 -37.567361 
L 163.523119 -37.566099 
L 160.859229 -37.564972 
L 158.195338 -37.563965 
L 155.531448 -37.563068 
L 152.867558 -37.562269 
L 150.203667 -37.561558 
L 147.539777 -37.560926 
L 144.875887 -37.560366 
L 142.211997 -37.559868 
L 139.548106 -37.559428 
L 136.884216 -37.559038 
L 134.220326 -37.558694 
L 131.556435 -37.55839 
L 128.892545 -37.558122 
L 126.228655 -37.557886 
L 123.564764 -37.557678 
L 120.900874 -37.557496 
L 118.236984 -37.557335 
L 115.573094 -37.557195 
L 112.909203 -37.557072 
L 110.245313 -37.556964 
L 107.581423 -37.556869 
L 104.917532 -37.556787 
L 102.253642 -37.556715 
L 99.589752 -37.556653 
L 96.925861 -37.556598 
L 94.261971 -37.556551 
L 91.598081 -37.55651 
L 88.934191 -37.556474 
L 86.2703 -37.556443 
L 83.60641 -37.556416 
L 80.94252 -37.556393 
L 78.278629 -37.556373 
L 75.614739 -37.556355 
L 72.950849 -37.55634 
L 70.286958 -37.556327 
L 67.623068 -37.556316 
z
"/>
    </defs>
    <g clip-path="url(#p9f988dfb1f)">
     <use xlink:href="#m6c153092e8" x="0" y="359.250375" style="fill: #6a4c93; fill-opacity: 0.13"/>
    </g>
   </g>
   <g id="matplotlib.axis_1">
    <g id="xtick_1">
     <g id="line2d_1">
      <path d="M 115.306705 321.694125 
L 115.306705 22.318125 
" clip-path="url(#p9f988dfb1f)" style="fill: none; stroke: #b0b0b0; stroke-opacity: 0.2; stroke-width: 0.8; stroke-linecap: square"/>
     </g>
     <g id="line2d_2">
      <defs>
       <path id="m3c757c150f" d="M 0 0 
L 0 3.5 
" style="stroke: #000000; stroke-width: 0.8"/>
      </defs>
      <g>
       <use xlink:href="#m3c757c150f" x="115.306705" y="321.694125" style="stroke: #000000; stroke-width: 0.8"/>
      </g>
     </g>
     <g id="text_1">
      <!-- 0.18 -->
      <g transform="translate(104.173892 336.292562) scale(0.1 -0.1)">
       <defs>
        <path id="DejaVuSans-30" d="M 2034 4250 
Q 1547 4250 1301 3770 
Q 1056 3291 1056 2328 
Q 1056 1369 1301 889 
Q 1547 409 2034 409 
Q 2525 409 2770 889 
Q 3016 1369 3016 2328 
Q 3016 3291 2770 3770 
Q 2525 4250 2034 4250 
z
M 2034 4750 
Q 2819 4750 3233 4129 
Q 3647 3509 3647 2328 
Q 3647 1150 3233 529 
Q 2819 -91 2034 -91 
Q 1250 -91 836 529 
Q 422 1150 422 2328 
Q 422 3509 836 4129 
Q 1250 4750 2034 4750 
z
" transform="scale(0.015625)"/>
        <path id="DejaVuSans-2e" d="M 684 794 
L 1344 794 
L 1344 0 
L 684 0 
L 684 794 
z
" transform="scale(0.015625)"/>
        <path id="DejaVuSans-31" d="M 794 531 
L 1825 531 
L 1825 4091 
L 703 3866 
L 703 4441 
L 1819 4666 
L 2450 4666 
L 2450 531 
L 3481 531 
L 3481 0 
L 794 0 
L 794 531 
z
" transform="scale(0.015625)"/>
        <path id="DejaVuSans-38" d="M 2034 2216 
Q 1584 2216 1326 1975 
Q 1069 1734 1069 1313 
Q 1069 891 1326 650 
Q 1584 409 2034 409 
Q 2484 409 2743 651 
Q 3003 894 3003 1313 
Q 3003 1734 2745 1975 
Q 2488 2216 2034 2216 
z
M 1403 2484 
Q 997 2584 770 2862 
Q 544 3141 544 3541 
Q 544 4100 942 4425 
Q 1341 4750 2034 4750 
Q 2731 4750 3128 4425 
Q 3525 4100 3525 3541 
Q 3525 3141 3298 2862 
Q 3072 2584 2669 2484 
Q 3125 2378 3379 2068 
Q 3634 1759 3634 1313 
Q 3634 634 3220 271 
Q 2806 -91 2034 -91 
Q 1263 -91 848 271 
Q 434 634 434 1313 
Q 434 1759 690 2068 
Q 947 2378 1403 2484 
z
M 1172 3481 
Q 1172 3119 1398 2916 
Q 1625 2713 2034 2713 
Q 2441 2713 2670 2916 
Q 2900 3119 2900 3481 
Q 2900 3844 2670 4047 
Q 2441 4250 2034 4250 
Q 1625 4250 1398 4047 
Q 1172 3844 1172 3481 
z
" transform="scale(0.015625)"/>
       </defs>
       <use xlink:href="#DejaVuSans-30"/>
       <use xlink:href="#DejaVuSans-2e" x="63.623047"/>
       <use xlink:href="#DejaVuSans-31" x="95.410156"/>
       <use xlink:href="#DejaVuSans-38" x="159.033203"/>
      </g>
     </g>
    </g>
    <g id="xtick_2">
     <g id="line2d_3">
      <path d="M 210.673977 321.694125 
L 210.673977 22.318125 
" clip-path="url(#p9f988dfb1f)" style="fill: none; stroke: #b0b0b0; stroke-opacity: 0.2; stroke-width: 0.8; stroke-linecap: square"/>
     </g>
     <g id="line2d_4">
      <g>
       <use xlink:href="#m3c757c150f" x="210.673977" y="321.694125" style="stroke: #000000; stroke-width: 0.8"/>
      </g>
     </g>
     <g id="text_2">
      <!-- 0.19 -->
      <g transform="translate(199.541165 336.292562) scale(0.1 -0.1)">
       <defs>
        <path id="DejaVuSans-39" d="M 703 97 
L 703 672 
Q 941 559 1184 500 
Q 1428 441 1663 441 
Q 2288 441 2617 861 
Q 2947 1281 2994 2138 
Q 2813 1869 2534 1725 
Q 2256 1581 1919 1581 
Q 1219 1581 811 2004 
Q 403 2428 403 3163 
Q 403 3881 828 4315 
Q 1253 4750 1959 4750 
Q 2769 4750 3195 4129 
Q 3622 3509 3622 2328 
Q 3622 1225 3098 567 
Q 2575 -91 1691 -91 
Q 1453 -91 1209 -44 
Q 966 3 703 97 
z
M 1959 2075 
Q 2384 2075 2632 2365 
Q 2881 2656 2881 3163 
Q 2881 3666 2632 3958 
Q 2384 4250 1959 4250 
Q 1534 4250 1286 3958 
Q 1038 3666 1038 3163 
Q 1038 2656 1286 2365 
Q 1534 2075 1959 2075 
z
" transform="scale(0.015625)"/>
       </defs>
       <use xlink:href="#DejaVuSans-30"/>
       <use xlink:href="#DejaVuSans-2e" x="63.623047"/>
       <use xlink:href="#DejaVuSans-31" x="95.410156"/>
       <use xlink:href="#DejaVuSans-39" x="159.033203"/>
      </g>
     </g>
    </g>
    <g id="xtick_3">
     <g id="line2d_5">
      <path d="M 306.04125 321.694125 
L 306.04125 22.318125 
" clip-path="url(#p9f988dfb1f)" style="fill: none; stroke: #b0b0b0; stroke-opacity: 0.2; stroke-width: 0.8; stroke-linecap: square"/>
     </g>
     <g id="line2d_6">
      <g>
       <use xlink:href="#m3c757c150f" x="306.04125" y="321.694125" style="stroke: #000000; stroke-width: 0.8"/>
      </g>
     </g>
     <g id="text_3">
      <!-- 0.20 -->
      <g transform="translate(294.908438 336.292562) scale(0.1 -0.1)">
       <defs>
        <path id="DejaVuSans-32" d="M 1228 531 
L 3431 531 
L 3431 0 
L 469 0 
L 469 531 
Q 828 903 1448 1529 
Q 2069 2156 2228 2338 
Q 2531 2678 2651 2914 
Q 2772 3150 2772 3378 
Q 2772 3750 2511 3984 
Q 2250 4219 1831 4219 
Q 1534 4219 1204 4116 
Q 875 4013 500 3803 
L 500 4441 
Q 881 4594 1212 4672 
Q 1544 4750 1819 4750 
Q 2544 4750 2975 4387 
Q 3406 4025 3406 3419 
Q 3406 3131 3298 2873 
Q 3191 2616 2906 2266 
Q 2828 2175 2409 1742 
Q 1991 1309 1228 531 
z
" transform="scale(0.015625)"/>
       </defs>
       <use xlink:href="#DejaVuSans-30"/>
       <use xlink:href="#DejaVuSans-2e" x="63.623047"/>
       <use xlink:href="#DejaVuSans-32" x="95.410156"/>
       <use xlink:href="#DejaVuSans-30" x="159.033203"/>
      </g>
     </g>
    </g>
    <g id="xtick_4">
     <g id="line2d_7">
      <path d="M 401.408523 321.694125 
L 401.408523 22.318125 
" clip-path="url(#p9f988dfb1f)" style="fill: none; stroke: #b0b0b0; stroke-opacity: 0.2; stroke-width: 0.8; stroke-linecap: square"/>
     </g>
     <g id="line2d_8">
      <g>
       <use xlink:href="#m3c757c150f" x="401.408523" y="321.694125" style="stroke: #000000; stroke-width: 0.8"/>
      </g>
     </g>
     <g id="text_4">
      <!-- 0.21 -->
      <g transform="translate(390.27571 336.292562) scale(0.1 -0.1)">
       <use xlink:href="#DejaVuSans-30"/>
       <use xlink:href="#DejaVuSans-2e" x="63.623047"/>
       <use xlink:href="#DejaVuSans-32" x="95.410156"/>
       <use xlink:href="#DejaVuSans-31" x="159.033203"/>
      </g>
     </g>
    </g>
    <g id="xtick_5">
     <g id="line2d_9">
      <path d="M 496.775795 321.694125 
L 496.775795 22.318125 
" clip-path="url(#p9f988dfb1f)" style="fill: none; stroke: #b0b0b0; stroke-opacity: 0.2; stroke-width: 0.8; stroke-linecap: square"/>
     </g>
     <g id="line2d_10">
      <g>
       <use xlink:href="#m3c757c150f" x="496.775795" y="321.694125" style="stroke: #000000; stroke-width: 0.8"/>
      </g>
     </g>
     <g id="text_5">
      <!-- 0.22 -->
      <g transform="translate(485.642983 336.292562) scale(0.1 -0.1)">
       <use xlink:href="#DejaVuSans-30"/>
       <use xlink:href="#DejaVuSans-2e" x="63.623047"/>
       <use xlink:href="#DejaVuSans-32" x="95.410156"/>
       <use xlink:href="#DejaVuSans-32" x="159.033203"/>
      </g>
     </g>
    </g>
    <g id="text_6">
     <!-- altura hidraulica H (m) -->
     <g transform="translate(249.42875 349.970687) scale(0.1 -0.1)">
      <defs>
       <path id="DejaVuSans-61" d="M 2194 1759 
Q 1497 1759 1228 1600 
Q 959 1441 959 1056 
Q 959 750 1161 570 
Q 1363 391 1709 391 
Q 2188 391 2477 730 
Q 2766 1069 2766 1631 
L 2766 1759 
L 2194 1759 
z
M 3341 1997 
L 3341 0 
L 2766 0 
L 2766 531 
Q 2569 213 2275 61 
Q 1981 -91 1556 -91 
Q 1019 -91 701 211 
Q 384 513 384 1019 
Q 384 1609 779 1909 
Q 1175 2209 1959 2209 
L 2766 2209 
L 2766 2266 
Q 2766 2663 2505 2880 
Q 2244 3097 1772 3097 
Q 1472 3097 1187 3025 
Q 903 2953 641 2809 
L 641 3341 
Q 956 3463 1253 3523 
Q 1550 3584 1831 3584 
Q 2591 3584 2966 3190 
Q 3341 2797 3341 1997 
z
" transform="scale(0.015625)"/>
       <path id="DejaVuSans-6c" d="M 603 4863 
L 1178 4863 
L 1178 0 
L 603 0 
L 603 4863 
z
" transform="scale(0.015625)"/>
       <path id="DejaVuSans-74" d="M 1172 4494 
L 1172 3500 
L 2356 3500 
L 2356 3053 
L 1172 3053 
L 1172 1153 
Q 1172 725 1289 603 
Q 1406 481 1766 481 
L 2356 481 
L 2356 0 
L 1766 0 
Q 1100 0 847 248 
Q 594 497 594 1153 
L 594 3053 
L 172 3053 
L 172 3500 
L 594 3500 
L 594 4494 
L 1172 4494 
z
" transform="scale(0.015625)"/>
       <path id="DejaVuSans-75" d="M 544 1381 
L 544 3500 
L 1119 3500 
L 1119 1403 
Q 1119 906 1312 657 
Q 1506 409 1894 409 
Q 2359 409 2629 706 
Q 2900 1003 2900 1516 
L 2900 3500 
L 3475 3500 
L 3475 0 
L 2900 0 
L 2900 538 
Q 2691 219 2414 64 
Q 2138 -91 1772 -91 
Q 1169 -91 856 284 
Q 544 659 544 1381 
z
M 1991 3584 
L 1991 3584 
z
" transform="scale(0.015625)"/>
       <path id="DejaVuSans-72" d="M 2631 2963 
Q 2534 3019 2420 3045 
Q 2306 3072 2169 3072 
Q 1681 3072 1420 2755 
Q 1159 2438 1159 1844 
L 1159 0 
L 581 0 
L 581 3500 
L 1159 3500 
L 1159 2956 
Q 1341 3275 1631 3429 
Q 1922 3584 2338 3584 
Q 2397 3584 2469 3576 
Q 2541 3569 2628 3553 
L 2631 2963 
z
" transform="scale(0.015625)"/>
       <path id="DejaVuSans-20" transform="scale(0.015625)"/>
       <path id="DejaVuSans-68" d="M 3513 2113 
L 3513 0 
L 2938 0 
L 2938 2094 
Q 2938 2591 2744 2837 
Q 2550 3084 2163 3084 
Q 1697 3084 1428 2787 
Q 1159 2491 1159 1978 
L 1159 0 
L 581 0 
L 581 4863 
L 1159 4863 
L 1159 2956 
Q 1366 3272 1645 3428 
Q 1925 3584 2291 3584 
Q 2894 3584 3203 3211 
Q 3513 2838 3513 2113 
z
" transform="scale(0.015625)"/>
       <path id="DejaVuSans-69" d="M 603 3500 
L 1178 3500 
L 1178 0 
L 603 0 
L 603 3500 
z
M 603 4863 
L 1178 4863 
L 1178 4134 
L 603 4134 
L 603 4863 
z
" transform="scale(0.015625)"/>
       <path id="DejaVuSans-64" d="M 2906 2969 
L 2906 4863 
L 3481 4863 
L 3481 0 
L 2906 0 
L 2906 525 
Q 2725 213 2448 61 
Q 2172 -91 1784 -91 
Q 1150 -91 751 415 
Q 353 922 353 1747 
Q 353 2572 751 3078 
Q 1150 3584 1784 3584 
Q 2172 3584 2448 3432 
Q 2725 3281 2906 2969 
z
M 947 1747 
Q 947 1113 1208 752 
Q 1469 391 1925 391 
Q 2381 391 2643 752 
Q 2906 1113 2906 1747 
Q 2906 2381 2643 2742 
Q 2381 3103 1925 3103 
Q 1469 3103 1208 2742 
Q 947 2381 947 1747 
z
" transform="scale(0.015625)"/>
       <path id="DejaVuSans-63" d="M 3122 3366 
L 3122 2828 
Q 2878 2963 2633 3030 
Q 2388 3097 2138 3097 
Q 1578 3097 1268 2742 
Q 959 2388 959 1747 
Q 959 1106 1268 751 
Q 1578 397 2138 397 
Q 2388 397 2633 464 
Q 2878 531 3122 666 
L 3122 134 
Q 2881 22 2623 -34 
Q 2366 -91 2075 -91 
Q 1284 -91 818 406 
Q 353 903 353 1747 
Q 353 2603 823 3093 
Q 1294 3584 2113 3584 
Q 2378 3584 2631 3529 
Q 2884 3475 3122 3366 
z
" transform="scale(0.015625)"/>
       <path id="DejaVuSans-48" d="M 628 4666 
L 1259 4666 
L 1259 2753 
L 3553 2753 
L 3553 4666 
L 4184 4666 
L 4184 0 
L 3553 0 
L 3553 2222 
L 1259 2222 
L 1259 0 
L 628 0 
L 628 4666 
z
" transform="scale(0.015625)"/>
       <path id="DejaVuSans-28" d="M 1984 4856 
Q 1566 4138 1362 3434 
Q 1159 2731 1159 2009 
Q 1159 1288 1364 580 
Q 1569 -128 1984 -844 
L 1484 -844 
Q 1016 -109 783 600 
Q 550 1309 550 2009 
Q 550 2706 781 3412 
Q 1013 4119 1484 4856 
L 1984 4856 
z
" transform="scale(0.015625)"/>
       <path id="DejaVuSans-6d" d="M 3328 2828 
Q 3544 3216 3844 3400 
Q 4144 3584 4550 3584 
Q 5097 3584 5394 3201 
Q 5691 2819 5691 2113 
L 5691 0 
L 5113 0 
L 5113 2094 
Q 5113 2597 4934 2840 
Q 4756 3084 4391 3084 
Q 3944 3084 3684 2787 
Q 3425 2491 3425 1978 
L 3425 0 
L 2847 0 
L 2847 2094 
Q 2847 2600 2669 2842 
Q 2491 3084 2119 3084 
Q 1678 3084 1418 2786 
Q 1159 2488 1159 1978 
L 1159 0 
L 581 0 
L 581 3500 
L 1159 3500 
L 1159 2956 
Q 1356 3278 1631 3431 
Q 1906 3584 2284 3584 
Q 2666 3584 2933 3390 
Q 3200 3197 3328 2828 
z
" transform="scale(0.015625)"/>
       <path id="DejaVuSans-29" d="M 513 4856 
L 1013 4856 
Q 1481 4119 1714 3412 
Q 1947 2706 1947 2009 
Q 1947 1309 1714 600 
Q 1481 -109 1013 -844 
L 513 -844 
Q 928 -128 1133 580 
Q 1338 1288 1338 2009 
Q 1338 2731 1133 3434 
Q 928 4138 513 4856 
z
" transform="scale(0.015625)"/>
      </defs>
      <use xlink:href="#DejaVuSans-61"/>
      <use xlink:href="#DejaVuSans-6c" x="61.279297"/>
      <use xlink:href="#DejaVuSans-74" x="89.0625"/>
      <use xlink:href="#DejaVuSans-75" x="128.271484"/>
      <use xlink:href="#DejaVuSans-72" x="191.650391"/>
      <use xlink:href="#DejaVuSans-61" x="232.763672"/>
      <use xlink:href="#DejaVuSans-20" x="294.042969"/>
      <use xlink:href="#DejaVuSans-68" x="325.830078"/>
      <use xlink:href="#DejaVuSans-69" x="389.208984"/>
      <use xlink:href="#DejaVuSans-64" x="416.992188"/>
      <use xlink:href="#DejaVuSans-72" x="480.46875"/>
      <use xlink:href="#DejaVuSans-61" x="521.582031"/>
      <use xlink:href="#DejaVuSans-75" x="582.861328"/>
      <use xlink:href="#DejaVuSans-6c" x="646.240234"/>
      <use xlink:href="#DejaVuSans-69" x="674.023438"/>
      <use xlink:href="#DejaVuSans-63" x="701.806641"/>
      <use xlink:href="#DejaVuSans-61" x="756.787109"/>
      <use xlink:href="#DejaVuSans-20" x="818.066406"/>
      <use xlink:href="#DejaVuSans-48" x="849.853516"/>
      <use xlink:href="#DejaVuSans-20" x="925.048828"/>
      <use xlink:href="#DejaVuSans-28" x="956.835938"/>
      <use xlink:href="#DejaVuSans-6d" x="995.849609"/>
      <use xlink:href="#DejaVuSans-29" x="1093.261719"/>
     </g>
    </g>
   </g>
   <g id="matplotlib.axis_2">
    <g id="ytick_1">
     <g id="line2d_11">
      <path d="M 43.78125 321.694125 
L 568.30125 321.694125 
" clip-path="url(#p9f988dfb1f)" style="fill: none; stroke: #b0b0b0; stroke-opacity: 0.2; stroke-width: 0.8; stroke-linecap: square"/>
     </g>
     <g id="line2d_12">
      <defs>
       <path id="m5a05817c4c" d="M 0 0 
L -3.5 0 
" style="stroke: #000000; stroke-width: 0.8"/>
      </defs>
      <g>
       <use xlink:href="#m5a05817c4c" x="43.78125" y="321.694125" style="stroke: #000000; stroke-width: 0.8"/>
      </g>
     </g>
     <g id="text_7">
      <!-- 0.0 -->
      <g transform="translate(20.878125 325.493344) scale(0.1 -0.1)">
       <use xlink:href="#DejaVuSans-30"/>
       <use xlink:href="#DejaVuSans-2e" x="63.623047"/>
       <use xlink:href="#DejaVuSans-30" x="95.410156"/>
      </g>
     </g>
    </g>
    <g id="ytick_2">
     <g id="line2d_13">
      <path d="M 43.78125 261.818925 
L 568.30125 261.818925 
" clip-path="url(#p9f988dfb1f)" style="fill: none; stroke: #b0b0b0; stroke-opacity: 0.2; stroke-width: 0.8; stroke-linecap: square"/>
     </g>
     <g id="line2d_14">
      <g>
       <use xlink:href="#m5a05817c4c" x="43.78125" y="261.818925" style="stroke: #000000; stroke-width: 0.8"/>
      </g>
     </g>
     <g id="text_8">
      <!-- 0.2 -->
      <g transform="translate(20.878125 265.618144) scale(0.1 -0.1)">
       <use xlink:href="#DejaVuSans-30"/>
       <use xlink:href="#DejaVuSans-2e" x="63.623047"/>
       <use xlink:href="#DejaVuSans-32" x="95.410156"/>
      </g>
     </g>
    </g>
    <g id="ytick_3">
     <g id="line2d_15">
      <path d="M 43.78125 201.943725 
L 568.30125 201.943725 
" clip-path="url(#p9f988dfb1f)" style="fill: none; stroke: #b0b0b0; stroke-opacity: 0.2; stroke-width: 0.8; stroke-linecap: square"/>
     </g>
     <g id="line2d_16">
      <g>
       <use xlink:href="#m5a05817c4c" x="43.78125" y="201.943725" style="stroke: #000000; stroke-width: 0.8"/>
      </g>
     </g>
     <g id="text_9">
      <!-- 0.4 -->
      <g transform="translate(20.878125 205.742944) scale(0.1 -0.1)">
       <defs>
        <path id="DejaVuSans-34" d="M 2419 4116 
L 825 1625 
L 2419 1625 
L 2419 4116 
z
M 2253 4666 
L 3047 4666 
L 3047 1625 
L 3713 1625 
L 3713 1100 
L 3047 1100 
L 3047 0 
L 2419 0 
L 2419 1100 
L 313 1100 
L 313 1709 
L 2253 4666 
z
" transform="scale(0.015625)"/>
       </defs>
       <use xlink:href="#DejaVuSans-30"/>
       <use xlink:href="#DejaVuSans-2e" x="63.623047"/>
       <use xlink:href="#DejaVuSans-34" x="95.410156"/>
      </g>
     </g>
    </g>
    <g id="ytick_4">
     <g id="line2d_17">
      <path d="M 43.78125 142.068525 
L 568.30125 142.068525 
" clip-path="url(#p9f988dfb1f)" style="fill: none; stroke: #b0b0b0; stroke-opacity: 0.2; stroke-width: 0.8; stroke-linecap: square"/>
     </g>
     <g id="line2d_18">
      <g>
       <use xlink:href="#m5a05817c4c" x="43.78125" y="142.068525" style="stroke: #000000; stroke-width: 0.8"/>
      </g>
     </g>
     <g id="text_10">
      <!-- 0.6 -->
      <g transform="translate(20.878125 145.867744) scale(0.1 -0.1)">
       <defs>
        <path id="DejaVuSans-36" d="M 2113 2584 
Q 1688 2584 1439 2293 
Q 1191 2003 1191 1497 
Q 1191 994 1439 701 
Q 1688 409 2113 409 
Q 2538 409 2786 701 
Q 3034 994 3034 1497 
Q 3034 2003 2786 2293 
Q 2538 2584 2113 2584 
z
M 3366 4563 
L 3366 3988 
Q 3128 4100 2886 4159 
Q 2644 4219 2406 4219 
Q 1781 4219 1451 3797 
Q 1122 3375 1075 2522 
Q 1259 2794 1537 2939 
Q 1816 3084 2150 3084 
Q 2853 3084 3261 2657 
Q 3669 2231 3669 1497 
Q 3669 778 3244 343 
Q 2819 -91 2113 -91 
Q 1303 -91 875 529 
Q 447 1150 447 2328 
Q 447 3434 972 4092 
Q 1497 4750 2381 4750 
Q 2619 4750 2861 4703 
Q 3103 4656 3366 4563 
z
" transform="scale(0.015625)"/>
       </defs>
       <use xlink:href="#DejaVuSans-30"/>
       <use xlink:href="#DejaVuSans-2e" x="63.623047"/>
       <use xlink:href="#DejaVuSans-36" x="95.410156"/>
      </g>
     </g>
    </g>
    <g id="ytick_5">
     <g id="line2d_19">
      <path d="M 43.78125 82.193325 
L 568.30125 82.193325 
" clip-path="url(#p9f988dfb1f)" style="fill: none; stroke: #b0b0b0; stroke-opacity: 0.2; stroke-width: 0.8; stroke-linecap: square"/>
     </g>
     <g id="line2d_20">
      <g>
       <use xlink:href="#m5a05817c4c" x="43.78125" y="82.193325" style="stroke: #000000; stroke-width: 0.8"/>
      </g>
     </g>
     <g id="text_11">
      <!-- 0.8 -->
      <g transform="translate(20.878125 85.992544) scale(0.1 -0.1)">
       <use xlink:href="#DejaVuSans-30"/>
       <use xlink:href="#DejaVuSans-2e" x="63.623047"/>
       <use xlink:href="#DejaVuSans-38" x="95.410156"/>
      </g>
     </g>
    </g>
    <g id="ytick_6">
     <g id="line2d_21">
      <path d="M 43.78125 22.318125 
L 568.30125 22.318125 
" clip-path="url(#p9f988dfb1f)" style="fill: none; stroke: #b0b0b0; stroke-opacity: 0.2; stroke-width: 0.8; stroke-linecap: square"/>
     </g>
     <g id="line2d_22">
      <g>
       <use xlink:href="#m5a05817c4c" x="43.78125" y="22.318125" style="stroke: #000000; stroke-width: 0.8"/>
      </g>
     </g>
     <g id="text_12">
      <!-- 1.0 -->
      <g transform="translate(20.878125 26.117344) scale(0.1 -0.1)">
       <use xlink:href="#DejaVuSans-31"/>
       <use xlink:href="#DejaVuSans-2e" x="63.623047"/>
       <use xlink:href="#DejaVuSans-30" x="95.410156"/>
      </g>
     </g>
    </g>
    <g id="text_13">
     <!-- probabilidad condicional de movimiento, Pf -->
     <g transform="translate(14.798438 280.308469) rotate(-90) scale(0.1 -0.1)">
      <defs>
       <path id="DejaVuSans-70" d="M 1159 525 
L 1159 -1331 
L 581 -1331 
L 581 3500 
L 1159 3500 
L 1159 2969 
Q 1341 3281 1617 3432 
Q 1894 3584 2278 3584 
Q 2916 3584 3314 3078 
Q 3713 2572 3713 1747 
Q 3713 922 3314 415 
Q 2916 -91 2278 -91 
Q 1894 -91 1617 61 
Q 1341 213 1159 525 
z
M 3116 1747 
Q 3116 2381 2855 2742 
Q 2594 3103 2138 3103 
Q 1681 3103 1420 2742 
Q 1159 2381 1159 1747 
Q 1159 1113 1420 752 
Q 1681 391 2138 391 
Q 2594 391 2855 752 
Q 3116 1113 3116 1747 
z
" transform="scale(0.015625)"/>
       <path id="DejaVuSans-6f" d="M 1959 3097 
Q 1497 3097 1228 2736 
Q 959 2375 959 1747 
Q 959 1119 1226 758 
Q 1494 397 1959 397 
Q 2419 397 2687 759 
Q 2956 1122 2956 1747 
Q 2956 2369 2687 2733 
Q 2419 3097 1959 3097 
z
M 1959 3584 
Q 2709 3584 3137 3096 
Q 3566 2609 3566 1747 
Q 3566 888 3137 398 
Q 2709 -91 1959 -91 
Q 1206 -91 779 398 
Q 353 888 353 1747 
Q 353 2609 779 3096 
Q 1206 3584 1959 3584 
z
" transform="scale(0.015625)"/>
       <path id="DejaVuSans-62" d="M 3116 1747 
Q 3116 2381 2855 2742 
Q 2594 3103 2138 3103 
Q 1681 3103 1420 2742 
Q 1159 2381 1159 1747 
Q 1159 1113 1420 752 
Q 1681 391 2138 391 
Q 2594 391 2855 752 
Q 3116 1113 3116 1747 
z
M 1159 2969 
Q 1341 3281 1617 3432 
Q 1894 3584 2278 3584 
Q 2916 3584 3314 3078 
Q 3713 2572 3713 1747 
Q 3713 922 3314 415 
Q 2916 -91 2278 -91 
Q 1894 -91 1617 61 
Q 1341 213 1159 525 
L 1159 0 
L 581 0 
L 581 4863 
L 1159 4863 
L 1159 2969 
z
" transform="scale(0.015625)"/>
       <path id="DejaVuSans-6e" d="M 3513 2113 
L 3513 0 
L 2938 0 
L 2938 2094 
Q 2938 2591 2744 2837 
Q 2550 3084 2163 3084 
Q 1697 3084 1428 2787 
Q 1159 2491 1159 1978 
L 1159 0 
L 581 0 
L 581 3500 
L 1159 3500 
L 1159 2956 
Q 1366 3272 1645 3428 
Q 1925 3584 2291 3584 
Q 2894 3584 3203 3211 
Q 3513 2838 3513 2113 
z
" transform="scale(0.015625)"/>
       <path id="DejaVuSans-65" d="M 3597 1894 
L 3597 1613 
L 953 1613 
Q 991 1019 1311 708 
Q 1631 397 2203 397 
Q 2534 397 2845 478 
Q 3156 559 3463 722 
L 3463 178 
Q 3153 47 2828 -22 
Q 2503 -91 2169 -91 
Q 1331 -91 842 396 
Q 353 884 353 1716 
Q 353 2575 817 3079 
Q 1281 3584 2069 3584 
Q 2775 3584 3186 3129 
Q 3597 2675 3597 1894 
z
M 3022 2063 
Q 3016 2534 2758 2815 
Q 2500 3097 2075 3097 
Q 1594 3097 1305 2825 
Q 1016 2553 972 2059 
L 3022 2063 
z
" transform="scale(0.015625)"/>
       <path id="DejaVuSans-76" d="M 191 3500 
L 800 3500 
L 1894 563 
L 2988 3500 
L 3597 3500 
L 2284 0 
L 1503 0 
L 191 3500 
z
" transform="scale(0.015625)"/>
       <path id="DejaVuSans-2c" d="M 750 794 
L 1409 794 
L 1409 256 
L 897 -744 
L 494 -744 
L 750 256 
L 750 794 
z
" transform="scale(0.015625)"/>
       <path id="DejaVuSans-50" d="M 1259 4147 
L 1259 2394 
L 2053 2394 
Q 2494 2394 2734 2622 
Q 2975 2850 2975 3272 
Q 2975 3691 2734 3919 
Q 2494 4147 2053 4147 
L 1259 4147 
z
M 628 4666 
L 2053 4666 
Q 2838 4666 3239 4311 
Q 3641 3956 3641 3272 
Q 3641 2581 3239 2228 
Q 2838 1875 2053 1875 
L 1259 1875 
L 1259 0 
L 628 0 
L 628 4666 
z
" transform="scale(0.015625)"/>
       <path id="DejaVuSans-66" d="M 2375 4863 
L 2375 4384 
L 1825 4384 
Q 1516 4384 1395 4259 
Q 1275 4134 1275 3809 
L 1275 3500 
L 2222 3500 
L 2222 3053 
L 1275 3053 
L 1275 0 
L 697 0 
L 697 3053 
L 147 3053 
L 147 3500 
L 697 3500 
L 697 3744 
Q 697 4328 969 4595 
Q 1241 4863 1831 4863 
L 2375 4863 
z
" transform="scale(0.015625)"/>
      </defs>
      <use xlink:href="#DejaVuSans-70"/>
      <use xlink:href="#DejaVuSans-72" x="63.476562"/>
      <use xlink:href="#DejaVuSans-6f" x="102.339844"/>
      <use xlink:href="#DejaVuSans-62" x="163.521484"/>
      <use xlink:href="#DejaVuSans-61" x="226.998047"/>
      <use xlink:href="#DejaVuSans-62" x="288.277344"/>
      <use xlink:href="#DejaVuSans-69" x="351.753906"/>
      <use xlink:href="#DejaVuSans-6c" x="379.537109"/>
      <use xlink:href="#DejaVuSans-69" x="407.320312"/>
      <use xlink:href="#DejaVuSans-64" x="435.103516"/>
      <use xlink:href="#DejaVuSans-61" x="498.580078"/>
      <use xlink:href="#DejaVuSans-64" x="559.859375"/>
      <use xlink:href="#DejaVuSans-20" x="623.335938"/>
      <use xlink:href="#DejaVuSans-63" x="655.123047"/>
      <use xlink:href="#DejaVuSans-6f" x="710.103516"/>
      <use xlink:href="#DejaVuSans-6e" x="771.285156"/>
      <use xlink:href="#DejaVuSans-64" x="834.664062"/>
      <use xlink:href="#DejaVuSans-69" x="898.140625"/>
      <use xlink:href="#DejaVuSans-63" x="925.923828"/>
      <use xlink:href="#DejaVuSans-69" x="980.904297"/>
      <use xlink:href="#DejaVuSans-6f" x="1008.6875"/>
      <use xlink:href="#DejaVuSans-6e" x="1069.869141"/>
      <use xlink:href="#DejaVuSans-61" x="1133.248047"/>
      <use xlink:href="#DejaVuSans-6c" x="1194.527344"/>
      <use xlink:href="#DejaVuSans-20" x="1222.310547"/>
      <use xlink:href="#DejaVuSans-64" x="1254.097656"/>
      <use xlink:href="#DejaVuSans-65" x="1317.574219"/>
      <use xlink:href="#DejaVuSans-20" x="1379.097656"/>
      <use xlink:href="#DejaVuSans-6d" x="1410.884766"/>
      <use xlink:href="#DejaVuSans-6f" x="1508.296875"/>
      <use xlink:href="#DejaVuSans-76" x="1569.478516"/>
      <use xlink:href="#DejaVuSans-69" x="1628.658203"/>
      <use xlink:href="#DejaVuSans-6d" x="1656.441406"/>
      <use xlink:href="#DejaVuSans-69" x="1753.853516"/>
      <use xlink:href="#DejaVuSans-65" x="1781.636719"/>
      <use xlink:href="#DejaVuSans-6e" x="1843.160156"/>
      <use xlink:href="#DejaVuSans-74" x="1906.539062"/>
      <use xlink:href="#DejaVuSans-6f" x="1945.748047"/>
      <use xlink:href="#DejaVuSans-2c" x="2006.929688"/>
      <use xlink:href="#DejaVuSans-20" x="2038.716797"/>
      <use xlink:href="#DejaVuSans-50" x="2070.503906"/>
      <use xlink:href="#DejaVuSans-66" x="2130.806641"/>
     </g>
    </g>
   </g>
   <g id="line2d_23">
    <path d="M 67.623068 304.984448 
L 72.950849 303.080549 
L 78.278629 301.012008 
L 83.60641 298.771734 
L 88.934191 296.353214 
L 94.261971 293.750633 
L 99.589752 290.958979 
L 104.917532 287.974151 
L 110.245313 284.793062 
L 115.573094 281.413726 
L 120.900874 277.835339 
L 126.228655 274.05835 
L 131.556435 270.084511 
L 136.884216 265.916912 
L 144.875887 259.312324 
L 152.867558 252.302855 
L 160.859229 244.915937 
L 168.8509 237.185313 
L 176.84257 229.150443 
L 187.498132 218.041376 
L 198.153693 206.58681 
L 214.137035 189.030136 
L 235.448157 165.58935 
L 246.103718 154.128757 
L 256.759279 142.986558 
L 264.75095 134.895073 
L 272.742621 127.068424 
L 280.734292 119.534853 
L 288.725963 112.31737 
L 296.717634 105.433805 
L 304.709305 98.896976 
L 312.700976 92.714958 
L 320.692647 86.891436 
L 328.684318 81.42611 
L 336.675988 76.315148 
L 344.667659 71.551653 
L 352.65933 67.126134 
L 360.651001 63.026971 
L 368.642672 59.240858 
L 376.634343 55.753209 
L 384.626014 52.548544 
L 392.617685 49.610818 
L 400.609356 46.923721 
L 408.601027 44.470929 
L 416.592697 42.236321 
L 424.584368 40.204148 
L 432.576039 38.359178 
L 443.2316 36.165268 
L 453.887162 34.245592 
L 464.542723 32.569884 
L 475.198284 31.110383 
L 488.517736 29.551818 
L 501.837187 28.247844 
L 515.156639 27.160123 
L 531.13998 26.093941 
L 544.459432 25.371731 
L 544.459432 25.371731 
" clip-path="url(#p9f988dfb1f)" style="fill: none; stroke: #8c5e3c; stroke-width: 2.5; stroke-linecap: square"/>
   </g>
   <g id="line2d_24">
    <path d="M 67.623068 320.971185 
L 83.60641 320.509855 
L 96.925861 319.941242 
L 110.245313 319.145335 
L 120.900874 318.299651 
L 131.556435 317.225464 
L 142.211997 315.879264 
L 150.203667 314.663304 
L 158.195338 313.248123 
L 166.187009 311.613425 
L 174.17868 309.739226 
L 182.170351 307.606322 
L 190.162022 305.196775 
L 198.153693 302.494416 
L 206.145364 299.485322 
L 214.137035 296.158277 
L 222.128706 292.505172 
L 230.120376 288.521347 
L 238.112047 284.205844 
L 246.103718 279.561575 
L 254.095389 274.595384 
L 262.08706 269.318008 
L 270.078731 263.743944 
L 278.070402 257.891208 
L 286.062073 251.781022 
L 294.053744 245.437421 
L 304.709305 236.662107 
L 315.364866 227.586515 
L 328.684318 215.928571 
L 349.99544 196.886298 
L 373.970453 175.501583 
L 387.289904 163.889282 
L 400.609356 152.598324 
L 411.264917 143.852865 
L 421.920478 135.400336 
L 432.576039 127.268062 
L 443.2316 119.47684 
L 453.887162 112.041442 
L 461.878833 106.704209 
L 469.870503 101.574625 
L 477.862174 96.653478 
L 485.853845 91.940357 
L 493.845516 87.433806 
L 501.837187 83.131469 
L 509.828858 79.03023 
L 517.820529 75.126342 
L 525.8122 71.415541 
L 533.803871 67.893157 
L 544.459432 63.48108 
L 544.459432 63.48108 
" clip-path="url(#p9f988dfb1f)" style="fill: none; stroke: #2b6f9f; stroke-width: 2.5; stroke-linecap: square"/>
   </g>
   <g id="line2d_25">
    <path d="M 67.623068 321.686308 
L 139.548106 321.559176 
L 171.51479 321.296126 
L 192.825912 320.926877 
L 211.473144 320.387567 
L 227.456486 319.694186 
L 240.775938 318.901907 
L 254.095389 317.867717 
L 264.75095 316.834577 
L 275.406512 315.591692 
L 286.062073 314.114414 
L 296.717634 312.378929 
L 307.373195 310.362963 
L 315.364866 308.654755 
L 323.356537 306.769993 
L 331.348208 304.702261 
L 339.339879 302.446271 
L 347.33155 299.997947 
L 355.323221 297.354484 
L 363.314891 294.51437 
L 371.306562 291.477399 
L 379.298233 288.244642 
L 387.289904 284.818409 
L 395.281575 281.20218 
L 405.937136 276.093035 
L 416.592697 270.667888 
L 427.248259 264.942953 
L 437.90382 258.936647 
L 448.559381 252.669097 
L 459.214942 246.161681 
L 472.534394 237.723947 
L 485.853845 228.990325 
L 499.173297 220.005158 
L 515.156639 208.952525 
L 533.803871 195.778034 
L 544.459432 188.155805 
L 544.459432 188.155805 
" clip-path="url(#p9f988dfb1f)" style="fill: none; stroke: #b98524; stroke-width: 2.5; stroke-linecap: square"/>
   </g>
   <g id="line2d_26">
    <path d="M 67.623068 321.693952 
L 216.800925 321.589843 
L 254.095389 321.352688 
L 280.734292 320.971267 
L 302.045415 320.44735 
L 320.692647 319.759821 
L 336.675988 318.949379 
L 349.99544 318.084495 
L 363.314891 317.019019 
L 376.634343 315.726144 
L 389.953794 314.179442 
L 400.609356 312.742151 
L 411.264917 311.113647 
L 421.920478 309.282201 
L 432.576039 307.236865 
L 443.2316 304.967516 
L 453.887162 302.464878 
L 464.542723 299.720507 
L 475.198284 296.726755 
L 485.853845 293.476724 
L 496.509406 289.964205 
L 507.164968 286.183625 
L 517.820529 282.129999 
L 528.47609 277.798901 
L 539.131651 273.18646 
L 544.459432 270.773687 
L 544.459432 270.773687 
" clip-path="url(#p9f988dfb1f)" style="fill: none; stroke: #6a4c93; stroke-width: 2.5; stroke-linecap: square"/>
   </g>
   <g id="patch_3">
    <path d="M 43.78125 321.694125 
L 43.78125 22.318125 
" style="fill: none; stroke: #000000; stroke-width: 0.8; stroke-linejoin: miter; stroke-linecap: square"/>
   </g>
   <g id="patch_4">
    <path d="M 568.30125 321.694125 
L 568.30125 22.318125 
" style="fill: none; stroke: #000000; stroke-width: 0.8; stroke-linejoin: miter; stroke-linecap: square"/>
   </g>
   <g id="patch_5">
    <path d="M 43.78125 321.694125 
L 568.30125 321.694125 
" style="fill: none; stroke: #000000; stroke-width: 0.8; stroke-linejoin: miter; stroke-linecap: square"/>
   </g>
   <g id="patch_6">
    <path d="M 43.78125 22.318125 
L 568.30125 22.318125 
" style="fill: none; stroke: #000000; stroke-width: 0.8; stroke-linejoin: miter; stroke-linecap: square"/>
   </g>
   <g id="text_14">
    <!-- DATOS SINTETICOS: ejemplo de forma del resultado -->
    <g style="fill: #6d5b00" transform="translate(77.159795 303.731565) scale(0.09 -0.09)">
     <defs>
      <path id="DejaVuSans-44" d="M 1259 4147 
L 1259 519 
L 2022 519 
Q 2988 519 3436 956 
Q 3884 1394 3884 2338 
Q 3884 3275 3436 3711 
Q 2988 4147 2022 4147 
L 1259 4147 
z
M 628 4666 
L 1925 4666 
Q 3281 4666 3915 4102 
Q 4550 3538 4550 2338 
Q 4550 1131 3912 565 
Q 3275 0 1925 0 
L 628 0 
L 628 4666 
z
" transform="scale(0.015625)"/>
      <path id="DejaVuSans-41" d="M 2188 4044 
L 1331 1722 
L 3047 1722 
L 2188 4044 
z
M 1831 4666 
L 2547 4666 
L 4325 0 
L 3669 0 
L 3244 1197 
L 1141 1197 
L 716 0 
L 50 0 
L 1831 4666 
z
" transform="scale(0.015625)"/>
      <path id="DejaVuSans-54" d="M -19 4666 
L 3928 4666 
L 3928 4134 
L 2272 4134 
L 2272 0 
L 1638 0 
L 1638 4134 
L -19 4134 
L -19 4666 
z
" transform="scale(0.015625)"/>
      <path id="DejaVuSans-4f" d="M 2522 4238 
Q 1834 4238 1429 3725 
Q 1025 3213 1025 2328 
Q 1025 1447 1429 934 
Q 1834 422 2522 422 
Q 3209 422 3611 934 
Q 4013 1447 4013 2328 
Q 4013 3213 3611 3725 
Q 3209 4238 2522 4238 
z
M 2522 4750 
Q 3503 4750 4090 4092 
Q 4678 3434 4678 2328 
Q 4678 1225 4090 567 
Q 3503 -91 2522 -91 
Q 1538 -91 948 565 
Q 359 1222 359 2328 
Q 359 3434 948 4092 
Q 1538 4750 2522 4750 
z
" transform="scale(0.015625)"/>
      <path id="DejaVuSans-53" d="M 3425 4513 
L 3425 3897 
Q 3066 4069 2747 4153 
Q 2428 4238 2131 4238 
Q 1616 4238 1336 4038 
Q 1056 3838 1056 3469 
Q 1056 3159 1242 3001 
Q 1428 2844 1947 2747 
L 2328 2669 
Q 3034 2534 3370 2195 
Q 3706 1856 3706 1288 
Q 3706 609 3251 259 
Q 2797 -91 1919 -91 
Q 1588 -91 1214 -16 
Q 841 59 441 206 
L 441 856 
Q 825 641 1194 531 
Q 1563 422 1919 422 
Q 2459 422 2753 634 
Q 3047 847 3047 1241 
Q 3047 1584 2836 1778 
Q 2625 1972 2144 2069 
L 1759 2144 
Q 1053 2284 737 2584 
Q 422 2884 422 3419 
Q 422 4038 858 4394 
Q 1294 4750 2059 4750 
Q 2388 4750 2728 4690 
Q 3069 4631 3425 4513 
z
" transform="scale(0.015625)"/>
      <path id="DejaVuSans-49" d="M 628 4666 
L 1259 4666 
L 1259 0 
L 628 0 
L 628 4666 
z
" transform="scale(0.015625)"/>
      <path id="DejaVuSans-4e" d="M 628 4666 
L 1478 4666 
L 3547 763 
L 3547 4666 
L 4159 4666 
L 4159 0 
L 3309 0 
L 1241 3903 
L 1241 0 
L 628 0 
L 628 4666 
z
" transform="scale(0.015625)"/>
      <path id="DejaVuSans-45" d="M 628 4666 
L 3578 4666 
L 3578 4134 
L 1259 4134 
L 1259 2753 
L 3481 2753 
L 3481 2222 
L 1259 2222 
L 1259 531 
L 3634 531 
L 3634 0 
L 628 0 
L 628 4666 
z
" transform="scale(0.015625)"/>
      <path id="DejaVuSans-43" d="M 4122 4306 
L 4122 3641 
Q 3803 3938 3442 4084 
Q 3081 4231 2675 4231 
Q 1875 4231 1450 3742 
Q 1025 3253 1025 2328 
Q 1025 1406 1450 917 
Q 1875 428 2675 428 
Q 3081 428 3442 575 
Q 3803 722 4122 1019 
L 4122 359 
Q 3791 134 3420 21 
Q 3050 -91 2638 -91 
Q 1578 -91 968 557 
Q 359 1206 359 2328 
Q 359 3453 968 4101 
Q 1578 4750 2638 4750 
Q 3056 4750 3426 4639 
Q 3797 4528 4122 4306 
z
" transform="scale(0.015625)"/>
      <path id="DejaVuSans-3a" d="M 750 794 
L 1409 794 
L 1409 0 
L 750 0 
L 750 794 
z
M 750 3309 
L 1409 3309 
L 1409 2516 
L 750 2516 
L 750 3309 
z
" transform="scale(0.015625)"/>
      <path id="DejaVuSans-6a" d="M 603 3500 
L 1178 3500 
L 1178 -63 
Q 1178 -731 923 -1031 
Q 669 -1331 103 -1331 
L -116 -1331 
L -116 -844 
L 38 -844 
Q 366 -844 484 -692 
Q 603 -541 603 -63 
L 603 3500 
z
M 603 4863 
L 1178 4863 
L 1178 4134 
L 603 4134 
L 603 4863 
z
" transform="scale(0.015625)"/>
      <path id="DejaVuSans-73" d="M 2834 3397 
L 2834 2853 
Q 2591 2978 2328 3040 
Q 2066 3103 1784 3103 
Q 1356 3103 1142 2972 
Q 928 2841 928 2578 
Q 928 2378 1081 2264 
Q 1234 2150 1697 2047 
L 1894 2003 
Q 2506 1872 2764 1633 
Q 3022 1394 3022 966 
Q 3022 478 2636 193 
Q 2250 -91 1575 -91 
Q 1294 -91 989 -36 
Q 684 19 347 128 
L 347 722 
Q 666 556 975 473 
Q 1284 391 1588 391 
Q 1994 391 2212 530 
Q 2431 669 2431 922 
Q 2431 1156 2273 1281 
Q 2116 1406 1581 1522 
L 1381 1569 
Q 847 1681 609 1914 
Q 372 2147 372 2553 
Q 372 3047 722 3315 
Q 1072 3584 1716 3584 
Q 2034 3584 2315 3537 
Q 2597 3491 2834 3397 
z
" transform="scale(0.015625)"/>
     </defs>
     <use xlink:href="#DejaVuSans-44"/>
     <use xlink:href="#DejaVuSans-41" x="75.251953"/>
     <use xlink:href="#DejaVuSans-54" x="135.910156"/>
     <use xlink:href="#DejaVuSans-4f" x="196.994141"/>
     <use xlink:href="#DejaVuSans-53" x="275.705078"/>
     <use xlink:href="#DejaVuSans-20" x="339.181641"/>
     <use xlink:href="#DejaVuSans-53" x="370.96875"/>
     <use xlink:href="#DejaVuSans-49" x="434.445312"/>
     <use xlink:href="#DejaVuSans-4e" x="463.9375"/>
     <use xlink:href="#DejaVuSans-54" x="538.742188"/>
     <use xlink:href="#DejaVuSans-45" x="599.826172"/>
     <use xlink:href="#DejaVuSans-54" x="663.009766"/>
     <use xlink:href="#DejaVuSans-49" x="724.09375"/>
     <use xlink:href="#DejaVuSans-43" x="753.585938"/>
     <use xlink:href="#DejaVuSans-4f" x="823.410156"/>
     <use xlink:href="#DejaVuSans-53" x="902.121094"/>
     <use xlink:href="#DejaVuSans-3a" x="965.597656"/>
     <use xlink:href="#DejaVuSans-20" x="999.289062"/>
     <use xlink:href="#DejaVuSans-65" x="1031.076172"/>
     <use xlink:href="#DejaVuSans-6a" x="1092.599609"/>
     <use xlink:href="#DejaVuSans-65" x="1120.382812"/>
     <use xlink:href="#DejaVuSans-6d" x="1181.90625"/>
     <use xlink:href="#DejaVuSans-70" x="1279.318359"/>
     <use xlink:href="#DejaVuSans-6c" x="1342.794922"/>
     <use xlink:href="#DejaVuSans-6f" x="1370.578125"/>
     <use xlink:href="#DejaVuSans-20" x="1431.759766"/>
     <use xlink:href="#DejaVuSans-64" x="1463.546875"/>
     <use xlink:href="#DejaVuSans-65" x="1527.023438"/>
     <use xlink:href="#DejaVuSans-20" x="1588.546875"/>
     <use xlink:href="#DejaVuSans-66" x="1620.333984"/>
     <use xlink:href="#DejaVuSans-6f" x="1655.539062"/>
     <use xlink:href="#DejaVuSans-72" x="1716.720703"/>
     <use xlink:href="#DejaVuSans-6d" x="1756.083984"/>
     <use xlink:href="#DejaVuSans-61" x="1853.496094"/>
     <use xlink:href="#DejaVuSans-20" x="1914.775391"/>
     <use xlink:href="#DejaVuSans-64" x="1946.5625"/>
     <use xlink:href="#DejaVuSans-65" x="2010.039062"/>
     <use xlink:href="#DejaVuSans-6c" x="2071.5625"/>
     <use xlink:href="#DejaVuSans-20" x="2099.345703"/>
     <use xlink:href="#DejaVuSans-72" x="2131.132812"/>
     <use xlink:href="#DejaVuSans-65" x="2169.996094"/>
     <use xlink:href="#DejaVuSans-73" x="2231.519531"/>
     <use xlink:href="#DejaVuSans-75" x="2283.619141"/>
     <use xlink:href="#DejaVuSans-6c" x="2346.998047"/>
     <use xlink:href="#DejaVuSans-74" x="2374.78125"/>
     <use xlink:href="#DejaVuSans-61" x="2413.990234"/>
     <use xlink:href="#DejaVuSans-64" x="2475.269531"/>
     <use xlink:href="#DejaVuSans-6f" x="2538.746094"/>
    </g>
   </g>
   <g id="text_15">
    <!-- Curvas de fragilidad condicional derivadas del surrogate -->
    <g transform="translate(136.429688 16.318125) scale(0.12 -0.12)">
     <defs>
      <path id="DejaVuSans-67" d="M 2906 1791 
Q 2906 2416 2648 2759 
Q 2391 3103 1925 3103 
Q 1463 3103 1205 2759 
Q 947 2416 947 1791 
Q 947 1169 1205 825 
Q 1463 481 1925 481 
Q 2391 481 2648 825 
Q 2906 1169 2906 1791 
z
M 3481 434 
Q 3481 -459 3084 -895 
Q 2688 -1331 1869 -1331 
Q 1566 -1331 1297 -1286 
Q 1028 -1241 775 -1147 
L 775 -588 
Q 1028 -725 1275 -790 
Q 1522 -856 1778 -856 
Q 2344 -856 2625 -561 
Q 2906 -266 2906 331 
L 2906 616 
Q 2728 306 2450 153 
Q 2172 0 1784 0 
Q 1141 0 747 490 
Q 353 981 353 1791 
Q 353 2603 747 3093 
Q 1141 3584 1784 3584 
Q 2172 3584 2450 3431 
Q 2728 3278 2906 2969 
L 2906 3500 
L 3481 3500 
L 3481 434 
z
" transform="scale(0.015625)"/>
     </defs>
     <use xlink:href="#DejaVuSans-43"/>
     <use xlink:href="#DejaVuSans-75" x="69.824219"/>
     <use xlink:href="#DejaVuSans-72" x="133.203125"/>
     <use xlink:href="#DejaVuSans-76" x="174.316406"/>
     <use xlink:href="#DejaVuSans-61" x="233.496094"/>
     <use xlink:href="#DejaVuSans-73" x="294.775391"/>
     <use xlink:href="#DejaVuSans-20" x="346.875"/>
     <use xlink:href="#DejaVuSans-64" x="378.662109"/>
     <use xlink:href="#DejaVuSans-65" x="442.138672"/>
     <use xlink:href="#DejaVuSans-20" x="503.662109"/>
     <use xlink:href="#DejaVuSans-66" x="535.449219"/>
     <use xlink:href="#DejaVuSans-72" x="570.654297"/>
     <use xlink:href="#DejaVuSans-61" x="611.767578"/>
     <use xlink:href="#DejaVuSans-67" x="673.046875"/>
     <use xlink:href="#DejaVuSans-69" x="736.523438"/>
     <use xlink:href="#DejaVuSans-6c" x="764.306641"/>
     <use xlink:href="#DejaVuSans-69" x="792.089844"/>
     <use xlink:href="#DejaVuSans-64" x="819.873047"/>
     <use xlink:href="#DejaVuSans-61" x="883.349609"/>
     <use xlink:href="#DejaVuSans-64" x="944.628906"/>
     <use xlink:href="#DejaVuSans-20" x="1008.105469"/>
     <use xlink:href="#DejaVuSans-63" x="1039.892578"/>
     <use xlink:href="#DejaVuSans-6f" x="1094.873047"/>
     <use xlink:href="#DejaVuSans-6e" x="1156.054688"/>
     <use xlink:href="#DejaVuSans-64" x="1219.433594"/>
     <use xlink:href="#DejaVuSans-69" x="1282.910156"/>
     <use xlink:href="#DejaVuSans-63" x="1310.693359"/>
     <use xlink:href="#DejaVuSans-69" x="1365.673828"/>
     <use xlink:href="#DejaVuSans-6f" x="1393.457031"/>
     <use xlink:href="#DejaVuSans-6e" x="1454.638672"/>
     <use xlink:href="#DejaVuSans-61" x="1518.017578"/>
     <use xlink:href="#DejaVuSans-6c" x="1579.296875"/>
     <use xlink:href="#DejaVuSans-20" x="1607.080078"/>
     <use xlink:href="#DejaVuSans-64" x="1638.867188"/>
     <use xlink:href="#DejaVuSans-65" x="1702.34375"/>
     <use xlink:href="#DejaVuSans-72" x="1763.867188"/>
     <use xlink:href="#DejaVuSans-69" x="1804.980469"/>
     <use xlink:href="#DejaVuSans-76" x="1832.763672"/>
     <use xlink:href="#DejaVuSans-61" x="1891.943359"/>
     <use xlink:href="#DejaVuSans-64" x="1953.222656"/>
     <use xlink:href="#DejaVuSans-61" x="2016.699219"/>
     <use xlink:href="#DejaVuSans-73" x="2077.978516"/>
     <use xlink:href="#DejaVuSans-20" x="2130.078125"/>
     <use xlink:href="#DejaVuSans-64" x="2161.865234"/>
     <use xlink:href="#DejaVuSans-65" x="2225.341797"/>
     <use xlink:href="#DejaVuSans-6c" x="2286.865234"/>
     <use xlink:href="#DejaVuSans-20" x="2314.648438"/>
     <use xlink:href="#DejaVuSans-73" x="2346.435547"/>
     <use xlink:href="#DejaVuSans-75" x="2398.535156"/>
     <use xlink:href="#DejaVuSans-72" x="2461.914062"/>
     <use xlink:href="#DejaVuSans-72" x="2501.277344"/>
     <use xlink:href="#DejaVuSans-6f" x="2540.140625"/>
     <use xlink:href="#DejaVuSans-67" x="2601.322266"/>
     <use xlink:href="#DejaVuSans-61" x="2664.798828"/>
     <use xlink:href="#DejaVuSans-74" x="2726.078125"/>
     <use xlink:href="#DejaVuSans-65" x="2765.287109"/>
    </g>
   </g>
   <g id="legend_1">
    <g id="patch_7">
     <path d="M 50.78125 59.674375 
L 221.553125 59.674375 
Q 223.553125 59.674375 223.553125 57.674375 
L 223.553125 29.318125 
Q 223.553125 27.318125 221.553125 27.318125 
L 50.78125 27.318125 
Q 48.78125 27.318125 48.78125 29.318125 
L 48.78125 57.674375 
Q 48.78125 59.674375 50.78125 59.674375 
z
" style="fill: #ffffff; opacity: 0.8; stroke: #cccccc; stroke-linejoin: miter"/>
    </g>
    <g id="line2d_27">
     <path d="M 52.78125 35.416562 
L 62.78125 35.416562 
L 72.78125 35.416562 
" style="fill: none; stroke: #8c5e3c; stroke-width: 2.5; stroke-linecap: square"/>
    </g>
    <g id="text_16">
     <!-- m*=0.85 -->
     <g transform="translate(80.78125 38.916562) scale(0.1 -0.1)">
      <defs>
       <path id="DejaVuSans-2a" d="M 3009 3897 
L 1888 3291 
L 3009 2681 
L 2828 2375 
L 1778 3009 
L 1778 1831 
L 1422 1831 
L 1422 3009 
L 372 2375 
L 191 2681 
L 1313 3291 
L 191 3897 
L 372 4206 
L 1422 3572 
L 1422 4750 
L 1778 4750 
L 1778 3572 
L 2828 4206 
L 3009 3897 
z
" transform="scale(0.015625)"/>
       <path id="DejaVuSans-3d" d="M 678 2906 
L 4684 2906 
L 4684 2381 
L 678 2381 
L 678 2906 
z
M 678 1631 
L 4684 1631 
L 4684 1100 
L 678 1100 
L 678 1631 
z
" transform="scale(0.015625)"/>
       <path id="DejaVuSans-35" d="M 691 4666 
L 3169 4666 
L 3169 4134 
L 1269 4134 
L 1269 2991 
Q 1406 3038 1543 3061 
Q 1681 3084 1819 3084 
Q 2600 3084 3056 2656 
Q 3513 2228 3513 1497 
Q 3513 744 3044 326 
Q 2575 -91 1722 -91 
Q 1428 -91 1123 -41 
Q 819 9 494 109 
L 494 744 
Q 775 591 1075 516 
Q 1375 441 1709 441 
Q 2250 441 2565 725 
Q 2881 1009 2881 1497 
Q 2881 1984 2565 2268 
Q 2250 2553 1709 2553 
Q 1456 2553 1204 2497 
Q 953 2441 691 2322 
L 691 4666 
z
" transform="scale(0.015625)"/>
      </defs>
      <use xlink:href="#DejaVuSans-6d"/>
      <use xlink:href="#DejaVuSans-2a" x="97.412109"/>
      <use xlink:href="#DejaVuSans-3d" x="147.412109"/>
      <use xlink:href="#DejaVuSans-30" x="231.201172"/>
      <use xlink:href="#DejaVuSans-2e" x="294.824219"/>
      <use xlink:href="#DejaVuSans-38" x="326.611328"/>
      <use xlink:href="#DejaVuSans-35" x="390.234375"/>
     </g>
    </g>
    <g id="line2d_28">
     <path d="M 52.78125 50.094687 
L 62.78125 50.094687 
L 72.78125 50.094687 
" style="fill: none; stroke: #2b6f9f; stroke-width: 2.5; stroke-linecap: square"/>
    </g>
    <g id="text_17">
     <!-- m*=1.00 -->
     <g transform="translate(80.78125 53.594687) scale(0.1 -0.1)">
      <use xlink:href="#DejaVuSans-6d"/>
      <use xlink:href="#DejaVuSans-2a" x="97.412109"/>
      <use xlink:href="#DejaVuSans-3d" x="147.412109"/>
      <use xlink:href="#DejaVuSans-31" x="231.201172"/>
      <use xlink:href="#DejaVuSans-2e" x="294.824219"/>
      <use xlink:href="#DejaVuSans-30" x="326.611328"/>
      <use xlink:href="#DejaVuSans-30" x="390.234375"/>
     </g>
    </g>
    <g id="line2d_29">
     <path d="M 146.167188 35.416562 
L 156.167188 35.416562 
L 166.167188 35.416562 
" style="fill: none; stroke: #b98524; stroke-width: 2.5; stroke-linecap: square"/>
    </g>
    <g id="text_18">
     <!-- m*=1.15 -->
     <g transform="translate(174.167188 38.916562) scale(0.1 -0.1)">
      <use xlink:href="#DejaVuSans-6d"/>
      <use xlink:href="#DejaVuSans-2a" x="97.412109"/>
      <use xlink:href="#DejaVuSans-3d" x="147.412109"/>
      <use xlink:href="#DejaVuSans-31" x="231.201172"/>
      <use xlink:href="#DejaVuSans-2e" x="294.824219"/>
      <use xlink:href="#DejaVuSans-31" x="326.611328"/>
      <use xlink:href="#DejaVuSans-35" x="390.234375"/>
     </g>
    </g>
    <g id="line2d_30">
     <path d="M 146.167188 50.094687 
L 156.167188 50.094687 
L 166.167188 50.094687 
" style="fill: none; stroke: #6a4c93; stroke-width: 2.5; stroke-linecap: square"/>
    </g>
    <g id="text_19">
     <!-- m*=1.25 -->
     <g transform="translate(174.167188 53.594687) scale(0.1 -0.1)">
      <use xlink:href="#DejaVuSans-6d"/>
      <use xlink:href="#DejaVuSans-2a" x="97.412109"/>
      <use xlink:href="#DejaVuSans-3d" x="147.412109"/>
      <use xlink:href="#DejaVuSans-31" x="231.201172"/>
      <use xlink:href="#DejaVuSans-2e" x="294.824219"/>
      <use xlink:href="#DejaVuSans-32" x="326.611328"/>
      <use xlink:href="#DejaVuSans-35" x="390.234375"/>
     </g>
    </g>
   </g>
  </g>
 </g>
 <defs>
  <clipPath id="p9f988dfb1f">
   <rect x="43.78125" y="22.318125" width="524.52" height="299.376"/>
  </clipPath>
 </defs>
</svg>
